<svg width="645" height="532" viewBox="0 0 645 532" fill="none" xmlns="http://www.w3.org/2000/svg">
<g clip-path="url(#clip0_63_2968)">
<rect x="496" y="196.724" width="57.4316" height="14.5493" rx="7.27467" transform="rotate(-30 496 196.724)" fill="#03305C"/>
<path d="M537.51 141.634C525.292 157.925 527.3 176.093 531.001 184.133C545.55 204.425 574.496 195.007 590.73 186.43C606.964 177.854 616 140.102 616 121.341C596.856 119.81 560.482 111.003 537.51 141.634Z" fill="#0ABE24"/>
<path fill-rule="evenodd" clip-rule="evenodd" d="M601.903 174.666C611.053 159.502 616 135.223 616 121.341C613.648 121.153 611.036 120.855 608.221 120.534C594.626 118.983 576.291 116.892 559.613 124.014L561.472 165.711L565.301 163.031L571.427 160.734L601.903 174.666Z" fill="#C5FF2A"/>
<path fill-rule="evenodd" clip-rule="evenodd" d="M609.568 157.357L575.638 154.225L567.981 162.265L592.593 185.299C599.889 180.283 605.609 169.348 609.568 157.357Z" fill="#8FEE03"/>
<path fill-rule="evenodd" clip-rule="evenodd" d="M528.923 177.407C535.171 175.816 548.385 168.675 555.729 164.562C561.153 161.524 577.769 149.141 591.776 138.701C602.484 130.72 611.667 123.875 613.16 123.212C614.139 122.777 614.776 122.056 615.254 121.279C615.506 121.301 615.754 121.321 616 121.341C616 121.68 615.997 122.024 615.991 122.375C607.034 129.668 558.996 170.867 556.877 172.986C556.292 173.571 554.446 175.106 552.004 177.136C547.607 180.792 541.279 186.054 536.898 190.272C534.752 188.629 532.77 186.6 531.001 184.133C530.179 182.347 529.44 180.061 528.923 177.407Z" fill="url(#paint0_linear_63_2968)"/>
<rect width="86.626" height="21.9453" rx="10.9726" transform="matrix(0.258819 -0.965926 -0.965926 -0.258819 484.197 196)" fill="#2B2045"/>
<path d="M555.1 119.389C530.527 137.818 503.124 134.789 490.997 129.207C460.389 107.261 474.595 63.6018 487.532 39.1155C500.468 14.6292 557.41 1.00008 585.708 1.00008C588.018 29.8756 601.3 84.7388 555.1 119.389Z" fill="#FD304F"/>
<path fill-rule="evenodd" clip-rule="evenodd" d="M505.276 22.2626C528.149 8.46195 564.77 1.00017 585.708 1.00017C585.992 4.54764 586.441 8.48734 586.925 12.7336C589.264 33.2393 592.419 60.8941 581.677 86.0507L518.783 83.2465L522.826 77.4714L526.291 68.2313L505.276 22.2626Z" fill="#F8D42E"/>
<path fill-rule="evenodd" clip-rule="evenodd" d="M531.384 10.7013L536.108 61.8787L523.981 73.4288L489.238 36.3062C496.804 25.301 513.297 16.6728 531.384 10.7013Z" fill="#F4B41C"/>
<path fill-rule="evenodd" clip-rule="evenodd" d="M501.141 132.342C503.541 122.917 514.312 102.986 520.516 91.9091C525.098 83.7268 543.777 58.6653 559.523 37.5385C571.561 21.3869 581.886 7.53497 582.886 5.28301C583.542 3.80768 584.629 2.84612 585.802 2.12489C585.769 1.74577 585.737 1.37082 585.708 1.00017C585.197 1.00017 584.677 1.00459 584.148 1.01346C573.148 14.5235 511.006 86.9808 507.811 90.1766C506.927 91.06 504.612 93.8442 501.55 97.5269C496.036 104.159 488.099 113.705 481.736 120.312C484.216 123.549 487.275 126.538 490.997 129.207C493.691 130.447 497.138 131.561 501.141 132.342Z" fill="url(#paint1_linear_63_2968)"/>
<path d="M134 467.091L228.045 373.045L322.091 467.091L228.045 467.091L134 467.091Z" fill="#88E100"/>
<path d="M181.023 420.068L228.045 373.045L275.068 420.068L181.023 420.068Z" fill="#063054"/>
<path d="M134 279L228.045 373.046L134 467.091V373.046V279Z" fill="#88E100"/>
<path d="M181.022 326.023L228.045 373.046L181.022 420.068V326.023Z" fill="#063054"/>
<path d="M322.091 279.045L228.045 373.09L134 279.045L228.045 279.045L322.091 279.045Z" fill="#0A8371"/>
<path d="M275.068 326.068L228.045 373.09L181.023 326.068L275.068 326.068Z" fill="#063054"/>
<path d="M322.045 467.091L228 373.045L322.045 279L322.045 373.045L322.045 467.091Z" fill="#88E100"/>
<path d="M275.023 420.068L228 373.045L275.023 326.023L275.023 420.068Z" fill="#063054"/>
<path d="M134 279.091L228.045 185.045L322.091 279.091L228.045 279.091L134 279.091Z" fill="#FF4D4E"/>
<path d="M181.023 232.068L228.045 185.045L275.068 232.068L181.023 232.068Z" fill="#7E1434"/>
<path d="M134 91.0002L228.045 185.046L134 279.091V185.046V91.0002Z" fill="#FF4D4E"/>
<path d="M181.022 138.023L228.045 185.046L181.022 232.068V138.023Z" fill="#7E1434"/>
<path d="M322.091 91.0452L228.045 185.09L134 91.0452L228.045 91.0452L322.091 91.0452Z" fill="#FBA600"/>
<path d="M275.068 138.068L228.045 185.09L181.023 138.068L275.068 138.068Z" fill="#7E1434"/>
<path d="M322.045 279.091L228 185.045L322.045 91L322.045 185.045L322.045 279.091Z" fill="#FF4D4E"/>
<path d="M275.023 232.068L228 185.045L275.023 138.023L275.023 232.068Z" fill="#7E1434"/>
<path d="M322 279.091L416.045 185.045L510.091 279.091L416.045 279.091L322 279.091Z" fill="#1A9EFE"/>
<path d="M369.023 232.068L416.045 185.045L463.068 232.068L369.023 232.068Z" fill="#04295D"/>
<path d="M322 91.0002L416.045 185.046L322 279.091V185.046V91.0002Z" fill="#1A9EFE"/>
<path d="M369.022 138.023L416.045 185.046L369.022 232.068V138.023Z" fill="#04295D"/>
<path d="M510.091 91.0452L416.045 185.09L322 91.0452L416.045 91.0452L510.091 91.0452Z" fill="#22AFFF"/>
<path d="M463.068 138.068L416.045 185.09L369.023 138.068L463.068 138.068Z" fill="#04295D"/>
<path d="M510.045 279.091L416 185.045L510.045 91L510.045 185.045L510.045 279.091Z" fill="#1A9EFE"/>
<path d="M463.023 232.068L416 185.045L463.023 138.023L463.023 232.068Z" fill="#04295D"/>
<path d="M510.09 467.091L416.045 373.046L510.09 279L510.09 373.046L510.09 467.091Z" fill="#EC2345"/>
<path d="M463.068 420.068L416.045 373.045L463.068 326.023L463.068 420.068Z" fill="#063054"/>
<path d="M322 467.091L416.045 373.046L510.091 467.091L416.045 467.091L322 467.091Z" fill="#EC2345"/>
<path d="M369.023 420.068L416.045 373.046L463.068 420.068L369.023 420.068Z" fill="#063054"/>
<path d="M322.045 279L416.09 373.046L322.045 467.091L322.045 373.046L322.045 279Z" fill="#EC2345"/>
<path d="M369.068 326.023L416.09 373.046L369.068 420.068L369.068 326.023Z" fill="#063054"/>
<path d="M510.09 279.046L416.045 373.091L322 279.046L416.045 279.046L510.09 279.046Z" fill="#FA660D"/>
<path d="M463.068 326.068L416.045 373.091L369.022 326.068L463.068 326.068Z" fill="#063054"/>
</g>
<defs>
<linearGradient id="paint0_linear_63_2968" x1="607.167" y1="121.279" x2="538.175" y2="190.689" gradientUnits="userSpaceOnUse">
<stop stop-color="#06B43C"/>
<stop offset="1" stop-color="#073869"/>
</linearGradient>
<linearGradient id="paint1_linear_63_2968" x1="585.802" y1="14.3228" x2="481.108" y2="118.387" gradientUnits="userSpaceOnUse">
<stop stop-color="#955533"/>
<stop offset="1" stop-color="#2A1F45"/>
</linearGradient>
<clipPath id="clip0_63_2968">
<rect width="645" height="532" fill="white"/>
</clipPath>
</defs>
</svg>
