<svg width="36" height="36" viewBox="0 0 36 36" fill="none" xmlns="http://www.w3.org/2000/svg">
<path opacity="0.3" d="M18 36C27.9411 36 36 27.9411 36 18C36 8.05887 27.9411 0 18 0C8.05887 0 0 8.05887 0 18C0 27.9411 8.05887 36 18 36Z" fill="#3755BE"/>
<path opacity="0.7" fill-rule="evenodd" clip-rule="evenodd" d="M17.4715 35.9924C7.7748 35.7128 0 27.7643 0 18C0 17.8337 0.00225572 17.6679 0.00673866 17.5026C1.32466 17.6287 3.71274 17.9148 3.82526 18.8408C3.98099 20.1218 3.82526 21.7232 4.91609 22.2035C6.00693 22.6839 6.31863 20.2819 7.2535 20.9225C8.18836 21.5632 10.6817 22.1798 10.6817 23.3124C10.6817 24.4448 10.2143 26.2069 10.6817 26.5272C11.1492 26.8476 13.0179 29.0893 13.0184 29.4096C13.0191 29.7299 13.6772 31.3587 13.4808 31.9813C13.3181 32.4975 12.4972 34.1003 11.7012 34.8291C13.5063 35.5241 15.4472 35.9318 17.4715 35.9924ZM10.5655 1.60224C12.8317 0.573128 15.3489 0 18 0C25.0229 0 31.1064 4.02195 34.0729 9.88817C34.1393 11.4482 34.1277 12.7827 34.4723 13.2655C36.2264 15.7201 30.199 17.4086 31.1147 21.1211C31.5179 22.759 27.1056 22.2394 26.0279 23.7728C24.9496 25.3055 22.3149 24.2756 21.704 23.981C21.0931 23.6863 18.7533 24.6683 18.9578 22.999C19.1611 21.3293 20.5846 21.2312 22.1111 20.5439C23.6369 19.8573 25.8378 17.5743 24.7564 17.276C19.6646 15.8725 17.9275 10.957 17.9275 10.957C17.6221 10.898 17.6988 7.48219 16.3767 7.38414C15.0535 7.2856 14.3409 7.77682 12.4087 7.38414C10.4753 6.99146 10.8829 5.71487 10.5774 2.96512C10.5091 2.34831 10.5124 1.91434 10.5655 1.60224ZM35.9984 17.7541C35.9995 17.8359 36 17.9179 36 18C36 27.8814 28.0377 35.9031 18.179 35.9991C27.9405 35.9007 35.8674 27.7769 35.9984 17.7541Z" fill="#3755BE"/>
</svg>
