<svg width="24" height="24" viewBox="0 0 24 24" fill="none" xmlns="http://www.w3.org/2000/svg">
<path d="M18.1375 10.1299C18.2732 10.1355 18.4016 10.1961 18.4957 10.299C18.5898 10.4018 18.6424 10.5389 18.6424 10.6816C18.6424 10.8242 18.5898 10.9613 18.4957 11.0641C18.4016 11.167 18.2732 11.2276 18.1375 11.2333H16.675V12.2177H18.1375C18.2081 12.2147 18.2786 12.2268 18.3447 12.2531C18.4108 12.2795 18.4712 12.3196 18.5222 12.371C18.5732 12.4224 18.6137 12.4842 18.6414 12.5525C18.6691 12.6208 18.6834 12.6943 18.6834 12.7685C18.6834 12.8427 18.6691 12.9162 18.6414 12.9845C18.6137 13.0528 18.5732 13.1145 18.5222 13.166C18.4712 13.2174 18.4108 13.2575 18.3447 13.2839C18.2786 13.3102 18.2081 13.3223 18.1375 13.3193H16.1492C16.0105 13.3186 15.8777 13.2604 15.7798 13.1572C15.682 13.0541 15.6269 12.9145 15.6267 12.7689V8.59419C15.6267 8.2923 15.8617 8.04292 16.1517 8.04292H18.14C18.2792 8.04327 18.4126 8.10168 18.5109 8.20531C18.6091 8.30894 18.6641 8.44929 18.6637 8.5955C18.6634 8.7417 18.6078 8.88178 18.5091 8.98492C18.4104 9.08805 18.2767 9.1458 18.1375 9.14545H16.675V10.1299H18.1375ZM14.925 12.7689C14.9243 12.9148 14.8686 13.0545 14.7701 13.1573C14.6715 13.2602 14.5381 13.3178 14.3992 13.3176C14.3169 13.3193 14.2353 13.3004 14.1614 13.2623C14.0875 13.2242 14.0233 13.1682 13.9742 13.0988L11.9383 10.1964V12.7689C11.9292 12.9082 11.87 13.0387 11.7728 13.1339C11.6756 13.2292 11.5476 13.2822 11.4146 13.2822C11.2816 13.2822 11.1536 13.2292 11.0564 13.1339C10.9592 13.0387 10.9 12.9082 10.8908 12.7689V8.59419C10.8906 8.44898 10.9452 8.3096 11.0427 8.2066C11.1402 8.1036 11.2725 8.04537 11.4108 8.04467C11.5733 8.04467 11.7233 8.13567 11.8233 8.26693L13.875 11.1808V8.59419C13.875 8.2923 14.11 8.04292 14.4 8.04292C14.6875 8.04292 14.925 8.2923 14.925 8.59419V12.7689ZM10.1408 12.7689C10.1407 12.8413 10.127 12.913 10.1006 12.9798C10.0741 13.0467 10.0353 13.1074 9.98648 13.1585C9.93765 13.2096 9.87971 13.2501 9.81597 13.2777C9.75223 13.3053 9.68394 13.3194 9.615 13.3193C9.47634 13.3186 9.34357 13.2604 9.24568 13.1572C9.14778 13.0541 9.09272 12.9145 9.0925 12.7689V8.59419C9.0925 8.2923 9.3275 8.04292 9.6175 8.04292C9.90583 8.04292 10.1408 8.2923 10.1408 8.59419V12.7689ZM8.08583 13.3193H6.0975C5.95867 13.3184 5.82577 13.2601 5.72753 13.1572C5.62928 13.0542 5.57359 12.9147 5.5725 12.7689V8.59419C5.5725 8.2923 5.81 8.04292 6.0975 8.04292C6.3875 8.04292 6.6225 8.2923 6.6225 8.59419V12.2177H8.08583C8.22134 12.2233 8.34951 12.2839 8.44347 12.3865C8.53744 12.4892 8.58992 12.6261 8.58992 12.7685C8.58992 12.9109 8.53744 13.0478 8.44347 13.1505C8.34951 13.2531 8.22134 13.3136 8.08583 13.3193ZM22 10.5245C22 5.82473 17.5125 2 12 2C6.4875 2 2 5.82473 2 10.5245C2 14.7342 5.55833 18.2615 10.3625 18.9317C10.6883 19.0035 11.1317 19.1575 11.2442 19.448C11.3442 19.7114 11.31 20.1183 11.2758 20.393L11.1392 21.2855C11.1017 21.5489 10.9392 22.3233 12.0133 21.8499C13.0892 21.3783 17.7767 18.2816 19.8767 15.7466C21.3133 14.0937 22 12.4005 22 10.5245Z" fill="white"/>
</svg>
