<svg width="229" height="27" viewBox="0 0 229 27" fill="none" xmlns="http://www.w3.org/2000/svg">
<rect y="2.24023" width="10.5367" height="10.5367" rx="2.23974" fill="#C3CCEB"/>
<rect x="12.3236" y="2.24023" width="10.5367" height="10.5367" rx="2.23974" fill="#3755BE"/>
<rect x="12.3236" y="14.564" width="10.5367" height="10.5367" rx="2.23974" fill="#3755BE"/>
<rect y="14.564" width="10.5367" height="10.5367" rx="2.23974" fill="#3755BE"/>
<path d="M39.9064 5.52259C40.0451 5.79992 40.1231 6.05992 40.1404 6.30258C40.1751 6.54525 40.1924 6.98725 40.1924 7.62858C40.1924 8.26992 39.9758 10.0726 39.5424 13.0366L39.3084 14.5446C41.6484 12.6206 43.6244 10.7573 45.2364 8.95458C46.8484 7.13459 47.9838 5.59192 48.6424 4.32659C49.2144 5.33192 49.5004 6.31992 49.5004 7.29058C49.5004 8.24392 49.0064 9.22325 48.0184 10.2286C47.0478 11.2339 45.5744 12.4646 43.5984 13.9206C44.8118 17.7513 46.1724 20.7153 47.6804 22.8126C48.3218 23.6966 49.1364 24.6586 50.1244 25.6986C49.4831 25.8719 48.8418 25.9586 48.2004 25.9586C47.5591 25.9586 46.9004 25.7593 46.2244 25.3606C45.5484 24.9619 44.9591 24.4766 44.4564 23.9046C43.9711 23.3326 43.4684 22.5699 42.9484 21.6166C42.2031 20.2126 41.3971 18.3666 40.5304 16.0786C40.0451 16.4426 39.5164 16.8153 38.9444 17.1966C38.6324 19.7793 38.4764 21.7379 38.4764 23.0726C38.4764 24.3899 38.5978 25.3346 38.8404 25.9066C37.3671 25.5253 36.3618 25.0226 35.8244 24.3986C35.2871 23.7573 35.0184 22.8733 35.0184 21.7466C35.0184 21.0879 35.2004 19.4153 35.5644 16.7286C36.2058 12.2739 36.5264 8.82458 36.5264 6.38059C36.5264 5.86058 36.4918 5.14992 36.4224 4.24858C37.7398 4.31792 38.7018 4.52592 39.3084 4.87258C39.5684 5.01125 39.7678 5.22792 39.9064 5.52259ZM58.0778 18.7046C57.2458 18.7046 56.4311 18.6093 55.6338 18.4186C55.6164 18.5919 55.6078 18.8606 55.6078 19.2246C55.6078 20.6633 55.8764 21.7466 56.4138 22.4746C56.9511 23.2026 57.5924 23.5666 58.3378 23.5666C59.0831 23.5666 59.7938 23.3413 60.4698 22.8906C61.1458 22.4399 61.7351 21.8159 62.2378 21.0186C62.8618 21.1573 63.1738 21.4779 63.1738 21.9806C61.6484 24.3206 59.6811 25.4906 57.2718 25.4906C55.8158 25.4906 54.5418 24.9359 53.4498 23.8266C52.3578 22.6999 51.8118 21.1399 51.8118 19.1466C51.8118 17.6559 52.0978 16.2433 52.6698 14.9086C53.2418 13.5566 54.1518 12.4213 55.3998 11.5026C56.6478 10.5666 58.0258 10.0986 59.5338 10.0986C61.0591 10.0986 62.1771 10.4453 62.8878 11.1386C63.5984 11.8319 63.9538 12.7419 63.9538 13.8686C63.9538 15.4979 63.3818 16.7113 62.2378 17.5086C61.1111 18.3059 59.7244 18.7046 58.0778 18.7046ZM59.1698 11.7106C58.2858 11.7106 57.5404 12.2566 56.9338 13.3486C56.3271 14.4406 55.9284 15.7666 55.7378 17.3266H56.1278C57.6358 17.3266 58.7451 16.9366 59.4558 16.1566C60.1838 15.3766 60.5478 14.4406 60.5478 13.3486C60.5478 12.8979 60.4264 12.5166 60.1838 12.2046C59.9584 11.8753 59.6204 11.7106 59.1698 11.7106ZM70.8326 14.5966C70.6073 16.2433 70.4339 17.7339 70.3126 19.0686C70.1913 20.4033 70.1306 21.5386 70.1306 22.4746C70.1306 23.4106 70.1653 24.3293 70.2346 25.2306C69.0213 25.2306 68.1979 25.0919 67.7646 24.8146C67.3486 24.5199 67.1406 24.1126 67.1406 23.5926C67.1406 23.4366 67.4266 21.1139 67.9986 16.6246C68.5706 12.1179 68.8653 8.96325 68.8826 7.16058L68.6486 6.82259C68.2153 6.18125 67.6433 5.64392 66.9326 5.21058C66.7593 5.10659 66.6553 5.03725 66.6206 5.00258C67.4526 4.49992 68.2499 4.24858 69.0126 4.24858C70.5379 4.24858 71.6559 4.75125 72.3666 5.75659C73.0773 6.74459 74.4033 9.19725 76.3446 13.1146C76.5526 13.5479 76.8646 14.2066 77.2806 15.0906C77.7139 15.9573 78.0606 16.6593 78.3206 17.1966C78.9273 18.4966 79.5773 19.7186 80.2706 20.8626C80.3226 20.1866 80.5566 18.1153 80.9726 14.6486C81.4059 11.1646 81.6226 8.40858 81.6226 6.38059C81.6226 5.84325 81.5879 5.14125 81.5186 4.27458C82.7319 4.27458 83.5466 4.41325 83.9626 4.69059C84.3786 4.96792 84.5866 5.35792 84.5866 5.86059C84.5866 6.05125 84.3006 8.46925 83.7286 13.1146C83.1566 17.7599 82.8706 20.9753 82.8706 22.7606C82.8706 23.4019 82.8879 23.8699 82.9226 24.1646C83.0613 24.2859 83.2866 24.4333 83.5986 24.6066C82.5239 25.2999 81.5273 25.6466 80.6086 25.6466C79.6899 25.6466 78.8926 25.1353 78.2166 24.1126C77.9046 23.6619 76.8559 21.7379 75.0706 18.3406C73.3026 14.9259 72.0459 12.5513 71.3006 11.2166C71.2313 11.8059 71.0753 12.9326 70.8326 14.5966ZM91.7961 23.1506C92.1948 22.4573 92.4548 21.6946 92.5761 20.8626C92.6975 20.0133 92.7841 19.2939 92.8361 18.7046C92.9055 18.0979 92.9661 17.3526 93.0181 16.4686C93.0701 15.5673 93.1135 14.7526 93.1481 14.0246C93.2868 11.1126 93.3821 9.21458 93.4341 8.33058C93.0181 8.36525 92.4895 8.38259 91.8481 8.38259C90.8081 8.38259 90.2881 7.70659 90.2881 6.35459C90.2881 5.76525 90.3401 5.24525 90.4441 4.79459C91.7615 5.10659 93.3388 5.26259 95.1761 5.26259C97.0135 5.26259 98.9288 4.95059 100.922 4.32659C100.818 5.38392 100.445 6.20725 99.8041 6.79658C99.1628 7.36859 98.5128 7.71525 97.8541 7.83659L97.0481 7.99258C96.7188 11.4419 96.4848 14.1286 96.3461 16.0526C96.2075 17.9766 95.9908 19.5019 95.6961 20.6286C95.4188 21.7553 95.0808 22.6566 94.6821 23.3326C94.2835 24.0086 93.8155 24.5546 93.2781 24.9706C92.7408 25.3866 92.2035 25.6639 91.6661 25.8026C91.1288 25.9586 90.5308 26.0366 89.8721 26.0366C88.2601 26.0366 87.0295 25.5686 86.1801 24.6326C85.3308 23.6966 84.9061 22.6999 84.9061 21.6426C84.9061 20.5679 85.2008 19.7273 85.7901 19.1206C86.3621 18.4966 87.1855 18.1846 88.2601 18.1846C88.7975 18.1846 89.3001 18.3233 89.7681 18.6006C89.3175 18.9819 88.9621 19.4759 88.7021 20.0826C88.4595 20.6893 88.3381 21.3046 88.3381 21.9286C88.3381 22.5526 88.4941 23.0813 88.8061 23.5146C89.1355 23.9479 89.6208 24.1646 90.2621 24.1646C90.9035 24.1646 91.4148 23.8266 91.7961 23.1506ZM102.133 20.8366C102.133 20.1086 102.272 18.7913 102.549 16.8846C102.826 14.9779 102.965 13.4959 102.965 12.4386C102.965 11.3813 102.913 10.5666 102.809 9.99459C103.19 9.95992 103.546 9.94259 103.875 9.94259C104.88 9.94259 105.574 10.1159 105.955 10.4626C106.354 10.7919 106.553 11.3639 106.553 12.1786C106.553 12.4386 106.336 13.8079 105.903 16.2866C105.487 18.7479 105.27 20.7846 105.253 22.3966C105.253 23.9913 105.357 25.0226 105.565 25.4906C104.213 25.1439 103.303 24.6239 102.835 23.9306C102.367 23.2199 102.133 22.1886 102.133 20.8366ZM105.669 7.75858C103.884 7.75858 102.991 7.13458 102.991 5.88659C102.991 5.43592 103.121 4.82058 103.381 4.04058C103.866 3.97125 104.291 3.93659 104.655 3.93659C106.44 3.93659 107.333 4.56059 107.333 5.80858C107.333 6.25925 107.203 6.87459 106.943 7.65459C106.458 7.72392 106.033 7.75858 105.669 7.75858ZM125.205 25.4906C123.159 25.4906 121.443 24.7106 120.057 23.1506C118.67 21.5906 117.977 19.3199 117.977 16.3386C117.977 13.0106 118.835 10.1766 120.551 7.83659C121.4 6.70992 122.483 5.81725 123.801 5.15859C125.135 4.48258 126.669 4.14458 128.403 4.14458C130.153 4.14458 131.479 4.61258 132.381 5.54859C133.299 6.46725 133.759 7.55925 133.759 8.82458C133.759 10.0726 133.412 11.0953 132.719 11.8926C132.025 12.6726 131.124 13.0626 130.015 13.0626C129.633 13.0626 129.191 12.9933 128.689 12.8546C129.053 12.4039 129.373 11.7626 129.651 10.9306C129.928 10.0986 130.067 9.30992 130.067 8.56458C130.067 7.81925 129.893 7.21259 129.547 6.74459C129.2 6.27658 128.654 6.04258 127.909 6.04258C126.765 6.04258 125.733 6.57125 124.815 7.62858C123.896 8.68592 123.211 9.98592 122.761 11.5286C122.31 13.0713 122.085 14.6659 122.085 16.3126C122.085 18.5313 122.518 20.2126 123.385 21.3566C124.251 22.5006 125.361 23.0726 126.713 23.0726C127.562 23.0726 128.446 22.7866 129.365 22.2146C130.283 21.6426 131.159 20.8279 131.991 19.7706C132.632 19.9093 132.953 20.2299 132.953 20.7326C132.294 21.9286 131.488 22.8993 130.535 23.6446C129.581 24.3899 128.68 24.8839 127.831 25.1266C126.981 25.3693 126.106 25.4906 125.205 25.4906ZM144.042 12.0746C142.916 12.0746 141.91 12.8373 141.026 14.3626C140.142 15.8706 139.7 17.3786 139.7 18.8866C139.7 22.0413 140.515 23.6186 142.144 23.6186C143.306 23.6186 144.25 22.8646 144.978 21.3566C145.706 19.8313 146.07 18.1239 146.07 16.2346C146.07 13.4613 145.394 12.0746 144.042 12.0746ZM145.654 10.1766C146.694 10.1766 147.578 10.6879 148.306 11.7106C149.034 12.7333 149.398 14.1026 149.398 15.8186C149.398 17.7426 149.008 19.5106 148.228 21.1226C147.362 22.9426 146.131 24.1993 144.536 24.8926C143.635 25.2913 142.647 25.4906 141.572 25.4906C140.064 25.4906 138.747 24.9099 137.62 23.7486C136.511 22.5699 135.956 20.8886 135.956 18.7046C135.956 16.5033 136.494 14.5706 137.568 12.9066C138.643 11.2253 140.064 10.1679 141.832 9.73459C142.023 9.73459 142.196 9.79525 142.352 9.91658C142.526 10.0206 142.612 10.1333 142.612 10.2546C140.862 11.4679 139.813 13.1579 139.466 15.3246C139.83 14.3539 140.272 13.5133 140.792 12.8026C141.33 12.0919 141.884 11.5546 142.456 11.1906C143.548 10.5146 144.614 10.1766 145.654 10.1766ZM155.487 19.8486C155.487 21.9113 156.111 22.9426 157.359 22.9426C158.018 22.9426 158.659 22.5873 159.283 21.8766C159.907 21.1659 160.41 20.2126 160.791 19.0166C161.19 17.8206 161.528 16.5466 161.805 15.1946C162.1 13.8253 162.317 12.3779 162.455 10.8526C162.698 7.90592 162.819 5.60925 162.819 3.96259C162.819 2.29859 162.75 1.05059 162.611 0.218585C163.859 0.495918 164.735 1.08525 165.237 1.98658C165.74 2.88792 165.991 4.02325 165.991 5.39259C165.991 6.76192 165.697 9.30992 165.107 13.0366C164.535 16.7633 164.249 19.4846 164.249 21.2006C164.249 22.9166 164.327 24.3726 164.483 25.5686C163.253 25.2393 162.403 24.6499 161.935 23.8006C161.485 22.9339 161.259 21.8506 161.259 20.5506C160.722 22.0413 159.916 23.2199 158.841 24.0866C157.767 24.9533 156.657 25.3866 155.513 25.3866C154.369 25.3866 153.433 24.9533 152.705 24.0866C151.995 23.2026 151.639 21.9113 151.639 20.2126C151.639 17.5259 152.376 15.2206 153.849 13.2966C155.323 11.3553 157.065 10.3846 159.075 10.3846C159.647 10.3846 160.549 10.5233 161.779 10.8006C160.705 11.0779 159.743 11.5633 158.893 12.2566C158.061 12.9326 157.411 13.7126 156.943 14.5966C155.973 16.3473 155.487 18.0979 155.487 19.8486ZM174.291 18.7046C173.459 18.7046 172.644 18.6093 171.847 18.4186C171.829 18.5919 171.821 18.8606 171.821 19.2246C171.821 20.6633 172.089 21.7466 172.627 22.4746C173.164 23.2026 173.805 23.5666 174.551 23.5666C175.296 23.5666 176.007 23.3413 176.683 22.8906C177.359 22.4399 177.948 21.8159 178.451 21.0186C179.075 21.1573 179.387 21.4779 179.387 21.9806C177.861 24.3206 175.894 25.4906 173.485 25.4906C172.029 25.4906 170.755 24.9359 169.663 23.8266C168.571 22.6999 168.025 21.1399 168.025 19.1466C168.025 17.6559 168.311 16.2433 168.883 14.9086C169.455 13.5566 170.365 12.4213 171.613 11.5026C172.861 10.5666 174.239 10.0986 175.747 10.0986C177.272 10.0986 178.39 10.4453 179.101 11.1386C179.811 11.8319 180.167 12.7419 180.167 13.8686C180.167 15.4979 179.595 16.7113 178.451 17.5086C177.324 18.3059 175.937 18.7046 174.291 18.7046ZM175.383 11.7106C174.499 11.7106 173.753 12.2566 173.147 13.3486C172.54 14.4406 172.141 15.7666 171.951 17.3266H172.341C173.849 17.3266 174.958 16.9366 175.669 16.1566C176.397 15.3766 176.761 14.4406 176.761 13.3486C176.761 12.8979 176.639 12.5166 176.397 12.2046C176.171 11.8753 175.833 11.7106 175.383 11.7106ZM183.587 23.1246C183.501 22.7779 183.457 22.3013 183.457 21.6946C183.457 21.0706 183.639 19.4153 184.003 16.7286C184.645 12.2739 184.965 8.82458 184.965 6.38059C184.965 5.86058 184.931 5.14992 184.861 4.24858C186.179 4.31792 187.141 4.52592 187.747 4.87258C188.007 5.01125 188.207 5.22792 188.345 5.52259C188.484 5.79992 188.562 6.05992 188.579 6.30258C188.614 6.54525 188.631 6.98725 188.631 7.62858C188.631 8.26992 188.363 10.3759 187.825 13.9466C187.305 17.4999 187.002 20.2993 186.915 22.3446C191.023 22.3446 194.065 22.0153 196.041 21.3566C195.885 22.6393 195.495 23.6359 194.871 24.3466C194.247 25.0573 193.467 25.4126 192.531 25.4126C192.254 25.4126 191.474 25.3346 190.191 25.1786C188.926 25.0399 187.583 24.9706 186.161 24.9706C184.74 24.9706 183.353 25.1179 182.001 25.4126C182.261 24.4073 182.79 23.6446 183.587 23.1246ZM200.328 20.1866C200.328 21.0013 200.476 21.6686 200.77 22.1886C201.082 22.6913 201.516 22.9426 202.07 22.9426C202.885 22.9426 203.656 22.4659 204.384 21.5126C205.13 20.5593 205.719 19.3373 206.152 17.8466C206.603 16.3559 206.828 14.9433 206.828 13.6086C206.828 12.2566 206.776 11.1646 206.672 10.3326C207.192 10.2979 207.556 10.2806 207.764 10.2806C208.648 10.2806 209.316 10.4453 209.766 10.7746C210.217 11.1039 210.442 11.6933 210.442 12.5426C210.442 12.8719 210.234 14.2153 209.818 16.5726C209.402 18.9126 209.194 20.7933 209.194 22.2146C209.194 23.6186 209.463 24.8666 210 25.9586C208.7 25.7333 207.747 25.2566 207.14 24.5286C206.534 23.7833 206.23 22.7173 206.23 21.3306C206.23 21.0879 206.265 20.6199 206.334 19.9266C205.866 21.5733 205.034 22.8993 203.838 23.9046C202.642 24.9099 201.464 25.4126 200.302 25.4126C199.158 25.4126 198.231 24.9879 197.52 24.1386C196.827 23.2719 196.48 22.0499 196.48 20.4726C196.48 18.8953 196.758 17.3699 197.312 15.8966C197.884 14.4059 198.734 13.1493 199.86 12.1266C200.987 11.0866 202.244 10.5666 203.63 10.5666C204.428 10.5666 205.242 10.7573 206.074 11.1386C204.324 11.7626 202.928 12.9933 201.888 14.8306C200.848 16.6506 200.328 18.4359 200.328 20.1866ZM215.74 0.218585C216.971 0.547919 217.811 1.14592 218.262 2.01258C218.73 2.86192 218.964 3.80658 218.964 4.84658C218.964 5.88658 218.799 7.66325 218.47 10.1766C218.141 12.6726 217.915 14.6659 217.794 16.1566C218.314 14.3019 219.051 12.8286 220.004 11.7366C220.975 10.6446 222.015 10.0986 223.124 10.0986C224.233 10.0986 225.187 10.6273 225.984 11.6846C226.799 12.7419 227.206 14.0939 227.206 15.7406C227.206 18.2886 226.521 20.4899 225.152 22.3446C223.8 24.1819 222.249 25.1006 220.498 25.1006C219.891 25.1006 219.285 24.9619 218.678 24.6846C219.423 24.4766 220.099 24.0519 220.706 23.4106C221.313 22.7693 221.807 22.0326 222.188 21.2006C222.968 19.4673 223.358 17.7339 223.358 16.0006C223.358 15.1513 223.193 14.4059 222.864 13.7646C222.552 13.1233 222.127 12.8026 221.59 12.8026C220.723 12.8026 219.839 13.6866 218.938 15.4546C218.054 17.2226 217.586 19.4239 217.534 22.0586V22.5526C217.569 23.1593 217.716 24.1646 217.976 25.5686C215.48 24.9966 214.232 23.2026 214.232 20.1866C214.232 18.9559 214.518 16.4773 215.09 12.7506C215.679 9.02392 215.974 6.30258 215.974 4.58659C215.974 2.87058 215.896 1.41458 215.74 0.218585Z" fill="#495057"/>
</svg>
