<svg width="241" height="42" viewBox="0 0 241 42" fill="none" xmlns="http://www.w3.org/2000/svg">
<g clip-path="url(#clip0_98_3925)">
<rect x="38.4497" y="15.2499" width="4.45206" height="1.12786" rx="0.563928" transform="rotate(-30 38.4497 15.2499)" fill="#03305C"/>
<path d="M41.6673 10.9793C40.7202 12.2422 40.8758 13.6506 41.1627 14.2739C42.2906 15.8469 44.5344 15.1168 45.7929 14.4519C47.0513 13.7871 47.7518 10.8606 47.7518 9.40627C46.2678 9.28756 43.4481 8.60491 41.6673 10.9793Z" fill="#0ABE24"/>
<path fill-rule="evenodd" clip-rule="evenodd" d="M46.6592 13.54C47.3685 12.3645 47.752 10.4824 47.752 9.40627C47.5696 9.39169 47.3672 9.36859 47.1489 9.3437C46.0951 9.22348 44.6738 9.06136 43.3809 9.61345L43.525 12.8458L43.8218 12.638L44.2967 12.46L46.6592 13.54Z" fill="#C5FF2A"/>
<path fill-rule="evenodd" clip-rule="evenodd" d="M47.2533 12.1982L44.6231 11.9554L44.0295 12.5787L45.9374 14.3642C46.503 13.9754 46.9464 13.1277 47.2533 12.1982Z" fill="#8FEE03"/>
<path fill-rule="evenodd" clip-rule="evenodd" d="M41.0017 13.7525C41.4861 13.6292 42.5104 13.0756 43.0797 12.7568C43.5002 12.5213 44.7882 11.5613 45.874 10.752C46.7041 10.1333 47.416 9.60271 47.5318 9.55127C47.6076 9.51758 47.657 9.4617 47.6941 9.40143C47.7136 9.40313 47.7328 9.40475 47.7519 9.40627C47.7519 9.43251 47.7517 9.45924 47.7512 9.48642C47.0569 10.0518 43.333 13.2455 43.1687 13.4097C43.1233 13.4551 42.9802 13.5741 42.791 13.7315C42.4501 14.0149 41.9595 14.4228 41.62 14.7498C41.4536 14.6224 41.3 14.4651 41.1628 14.2739C41.0991 14.1354 41.0418 13.9582 41.0017 13.7525Z" fill="url(#paint0_linear_98_3925)"/>
<rect width="6.7152" height="1.70118" rx="0.850592" transform="matrix(0.258819 -0.965926 -0.965926 -0.258819 37.5347 15.1938)" fill="#2B2045"/>
<path d="M43.0311 9.2549C41.1262 10.6835 39.0019 10.4487 38.0618 10.016C35.6891 8.31477 36.7904 4.93031 37.7932 3.03215C38.796 1.13399 43.2101 0.0774633 45.4038 0.0774632C45.5828 2.31588 46.6125 6.56884 43.0311 9.2549Z" fill="#FD304F"/>
<path fill-rule="evenodd" clip-rule="evenodd" d="M39.1688 1.72571C40.9418 0.655898 43.7806 0.0774668 45.4038 0.0774667C45.4258 0.352464 45.4606 0.657868 45.4981 0.987036C45.6795 2.57662 45.924 4.72041 45.0913 6.67053L40.2158 6.45316L40.5292 6.00548L40.7978 5.28919L39.1688 1.72571Z" fill="#F8D42E"/>
<path fill-rule="evenodd" clip-rule="evenodd" d="M41.1926 0.829492L41.5588 4.79678L40.6187 5.69214L37.9254 2.81436C38.512 1.96125 39.7905 1.2924 41.1926 0.829492Z" fill="#F4B41C"/>
<path fill-rule="evenodd" clip-rule="evenodd" d="M38.848 10.259C39.034 9.52843 39.869 7.98343 40.3499 7.12473C40.7051 6.49044 42.1531 4.54768 43.3738 2.90994C44.307 1.65789 45.1073 0.584098 45.1849 0.40953C45.2357 0.295159 45.32 0.220617 45.4109 0.164707C45.4083 0.135319 45.4059 0.106254 45.4036 0.0775215C45.364 0.0775215 45.3237 0.0778677 45.2827 0.0785543C44.4299 1.12584 39.6128 6.74269 39.365 6.99042C39.2965 7.05891 39.1171 7.27474 38.8797 7.56022C38.4523 8.07432 37.837 8.8143 37.3438 9.32648C37.536 9.57741 37.7731 9.80916 38.0616 10.016C38.2705 10.1121 38.5377 10.1985 38.848 10.259Z" fill="url(#paint1_linear_98_3925)"/>
<path d="M10.3877 36.2084L17.678 28.918L24.9684 36.2084L17.678 36.2084L10.3877 36.2084Z" fill="#88E100"/>
<path d="M14.0327 32.5634L17.6779 28.9183L21.323 32.5634L14.0327 32.5634Z" fill="#063054"/>
<path d="M10.3877 21.6279L17.678 28.9182L10.3877 36.2085V28.9182V21.6279Z" fill="#88E100"/>
<path d="M14.0327 25.2731L17.6779 28.9182L14.0327 32.5634V25.2731Z" fill="#063054"/>
<path d="M24.9683 21.6313L17.6779 28.9217L10.3876 21.6313L17.6779 21.6313L24.9683 21.6313Z" fill="#0A8371"/>
<path d="M21.323 25.2766L17.6778 28.9217L14.0327 25.2765L21.323 25.2766Z" fill="#063054"/>
<path d="M24.9648 36.2086L17.6745 28.9182L24.9648 21.6279L24.9648 28.9182L24.9648 36.2086Z" fill="#88E100"/>
<path d="M21.3196 32.5634L17.6744 28.9182L21.3196 25.273L21.3196 32.5634Z" fill="#063054"/>
<path d="M10.3877 21.6347L17.678 14.3444L24.9684 21.6347L17.678 21.6347L10.3877 21.6347Z" fill="#FF4D4E"/>
<path d="M14.0327 17.9897L17.6779 14.3446L21.323 17.9897L14.0327 17.9897Z" fill="#7E1434"/>
<path d="M10.3877 7.05426L17.678 14.3446L10.3877 21.6349V14.3446V7.05426Z" fill="#FF4D4E"/>
<path d="M14.0327 10.6994L17.6779 14.3446L14.0327 17.9897V10.6994Z" fill="#7E1434"/>
<path d="M24.9683 7.05774L17.6779 14.3481L10.3876 7.05774L17.6779 7.05774L24.9683 7.05774Z" fill="#FBA600"/>
<path d="M21.323 10.7029L17.6778 14.348L14.0327 10.7029L21.323 10.7029Z" fill="#7E1434"/>
<path d="M24.9648 21.6349L17.6745 14.3446L24.9648 7.05423L24.9648 14.3446L24.9648 21.6349Z" fill="#FF4D4E"/>
<path d="M21.3196 17.9897L17.6744 14.3446L21.3196 10.6994L21.3196 17.9897Z" fill="#7E1434"/>
<path d="M24.9612 21.6347L32.2515 14.3444L39.5418 21.6347L32.2515 21.6347L24.9612 21.6347Z" fill="#1A9EFE"/>
<path d="M28.6064 17.9897L32.2516 14.3446L35.8968 17.9897L28.6064 17.9897Z" fill="#04295D"/>
<path d="M24.9612 7.05426L32.2515 14.3446L24.9612 21.6349V14.3446V7.05426Z" fill="#1A9EFE"/>
<path d="M28.6064 10.6994L32.2516 14.3446L28.6064 17.9897V10.6994Z" fill="#04295D"/>
<path d="M39.542 7.05774L32.2517 14.3481L24.9613 7.05774L32.2517 7.05774L39.542 7.05774Z" fill="#22AFFF"/>
<path d="M35.8967 10.7029L32.2516 14.348L28.6064 10.7029L35.8967 10.7029Z" fill="#04295D"/>
<path d="M39.5383 21.6349L32.248 14.3446L39.5383 7.05423L39.5383 14.3446L39.5383 21.6349Z" fill="#1A9EFE"/>
<path d="M35.8933 17.9897L32.2481 14.3446L35.8933 10.6994L35.8933 17.9897Z" fill="#04295D"/>
<path d="M39.5417 36.2086L32.2514 28.9182L39.5417 21.6279L39.5417 28.9182L39.5417 36.2086Z" fill="#EC2345"/>
<path d="M35.8967 32.5634L32.2516 28.9182L35.8967 25.273L35.8967 32.5634Z" fill="#063054"/>
<path d="M24.9612 36.2086L32.2515 28.9182L39.5418 36.2086L32.2515 36.2086L24.9612 36.2086Z" fill="#EC2345"/>
<path d="M28.6064 32.5634L32.2516 28.9183L35.8968 32.5634L28.6064 32.5634Z" fill="#063054"/>
<path d="M24.9648 21.6279L32.2552 28.9182L24.9648 36.2085L24.9648 28.9182L24.9648 21.6279Z" fill="#EC2345"/>
<path d="M28.6099 25.2731L32.255 28.9182L28.6099 32.5634L28.6099 25.2731Z" fill="#063054"/>
<path d="M39.542 21.6314L32.2517 28.9217L24.9613 21.6314L32.2517 21.6314L39.542 21.6314Z" fill="#FA660D"/>
<path d="M35.8967 25.2766L32.2516 28.9217L28.6064 25.2766L35.8967 25.2766Z" fill="#063054"/>
</g>
<path d="M66.5425 11.5482C66.6705 11.8042 66.7425 12.0442 66.7585 12.2682C66.7905 12.4922 66.8065 12.9002 66.8065 13.4922C66.8065 14.0842 66.6065 15.7482 66.2065 18.4842L65.9905 19.8762C68.1505 18.1002 69.9745 16.3802 71.4625 14.7162C72.9505 13.0362 73.9985 11.6122 74.6065 10.4442C75.1345 11.3722 75.3985 12.2842 75.3985 13.1802C75.3985 14.0602 74.9425 14.9642 74.0305 15.8922C73.1345 16.8202 71.7745 17.9562 69.9505 19.3002C71.0705 22.8362 72.3265 25.5722 73.7185 27.5082C74.3105 28.3242 75.0625 29.2122 75.9745 30.1722C75.3825 30.3322 74.7905 30.4122 74.1985 30.4122C73.6065 30.4122 72.9985 30.2282 72.3745 29.8602C71.7505 29.4922 71.2065 29.0442 70.7425 28.5162C70.2945 27.9882 69.8305 27.2842 69.3505 26.4042C68.6625 25.1082 67.9185 23.4042 67.1185 21.2922C66.6705 21.6282 66.1825 21.9722 65.6545 22.3242C65.3665 24.7082 65.2225 26.5162 65.2225 27.7482C65.2225 28.9642 65.3345 29.8362 65.5585 30.3642C64.1985 30.0122 63.2705 29.5482 62.7745 28.9722C62.2785 28.3802 62.0305 27.5642 62.0305 26.5242C62.0305 25.9162 62.1985 24.3722 62.5345 21.8922C63.1265 17.7802 63.4225 14.5962 63.4225 12.3402C63.4225 11.8602 63.3905 11.2042 63.3265 10.3722C64.5425 10.4362 65.4305 10.6282 65.9905 10.9482C66.2305 11.0762 66.4145 11.2762 66.5425 11.5482ZM83.316 23.7162C82.548 23.7162 81.796 23.6282 81.06 23.4522C81.044 23.6122 81.036 23.8602 81.036 24.1962C81.036 25.5242 81.284 26.5242 81.78 27.1962C82.276 27.8682 82.868 28.2042 83.556 28.2042C84.244 28.2042 84.9 27.9962 85.524 27.5802C86.148 27.1642 86.692 26.5882 87.156 25.8522C87.732 25.9802 88.02 26.2762 88.02 26.7402C86.612 28.9002 84.796 29.9802 82.572 29.9802C81.228 29.9802 80.052 29.4682 79.044 28.4442C78.036 27.4042 77.532 25.9642 77.532 24.1242C77.532 22.7482 77.796 21.4442 78.324 20.2122C78.852 18.9642 79.692 17.9162 80.844 17.0682C81.996 16.2042 83.268 15.7722 84.66 15.7722C86.068 15.7722 87.1 16.0922 87.756 16.7322C88.412 17.3722 88.74 18.2122 88.74 19.2522C88.74 20.7562 88.212 21.8762 87.156 22.6122C86.116 23.3482 84.836 23.7162 83.316 23.7162ZM84.324 17.2602C83.508 17.2602 82.82 17.7642 82.26 18.7722C81.7 19.7802 81.332 21.0042 81.156 22.4442H81.516C82.908 22.4442 83.932 22.0842 84.588 21.3642C85.26 20.6442 85.596 19.7802 85.596 18.7722C85.596 18.3562 85.484 18.0042 85.26 17.7162C85.052 17.4122 84.74 17.2602 84.324 17.2602ZM101.906 28.7082C101.618 28.2922 100.65 26.5162 99.0017 23.3802C97.3697 20.2282 96.2097 18.0362 95.5217 16.8042C95.4577 17.3482 95.3137 18.3882 95.0897 19.9242C94.6577 23.0282 94.4417 25.6362 94.4417 27.7482C94.4417 28.2442 94.4737 28.9082 94.5377 29.7402C93.4177 29.7402 92.6577 29.6122 92.2577 29.3562C91.8737 29.0842 91.6817 28.7082 91.6817 28.2282C91.6817 28.0842 91.9457 25.9402 92.4737 21.7962C93.0017 17.6362 93.2737 14.7242 93.2897 13.0602L93.0737 12.7482C92.6737 12.1562 92.1457 11.6602 91.4897 11.2602C91.3297 11.1642 91.2337 11.1002 91.2017 11.0682C91.9697 10.6042 92.7057 10.3722 93.4097 10.3722C94.8177 10.3722 95.8497 10.8362 96.5057 11.7642C97.1617 12.6762 98.3857 14.9402 100.178 18.5562C100.37 18.9562 100.658 19.5642 101.042 20.3802C101.442 21.1802 101.762 21.8282 102.002 22.3242C102.562 23.5242 103.162 24.6522 103.802 25.7082C103.85 25.0842 104.066 23.1722 104.45 19.9722C104.85 16.7562 105.05 14.2122 105.05 12.3402C105.05 11.8442 105.018 11.1962 104.954 10.3962C106.074 10.3962 106.826 10.5242 107.21 10.7802C107.594 11.0362 107.786 11.3962 107.786 11.8602C107.786 12.0362 107.522 14.2682 106.994 18.5562C106.466 22.8442 106.202 25.8122 106.202 27.4602C106.202 28.0522 106.218 28.4842 106.25 28.7562C106.378 28.8682 106.586 29.0042 106.874 29.1642C105.882 29.8042 104.962 30.1242 104.114 30.1242C103.266 30.1242 102.53 29.6522 101.906 28.7082ZM114.441 27.8202C114.809 27.1802 115.049 26.4762 115.161 25.7082C115.273 24.9242 115.353 24.2602 115.401 23.7162C115.465 23.1562 115.521 22.4682 115.569 21.6522C115.617 20.8202 115.657 20.0682 115.689 19.3962C115.817 16.7082 115.905 14.9562 115.953 14.1402C115.569 14.1722 115.081 14.1882 114.489 14.1882C113.529 14.1882 113.049 13.5642 113.049 12.3162C113.049 11.7722 113.097 11.2922 113.193 10.8762C114.409 11.1642 115.865 11.3082 117.561 11.3082C119.257 11.3082 121.025 11.0202 122.865 10.4442C122.769 11.4202 122.425 12.1802 121.833 12.7242C121.241 13.2522 120.641 13.5722 120.033 13.6842L119.289 13.8282C118.985 17.0122 118.769 19.4922 118.641 21.2682C118.513 23.0442 118.313 24.4522 118.041 25.4922C117.785 26.5322 117.473 27.3642 117.105 27.9882C116.737 28.6122 116.305 29.1162 115.809 29.5002C115.313 29.8842 114.817 30.1402 114.321 30.2682C113.825 30.4122 113.273 30.4842 112.665 30.4842C111.177 30.4842 110.041 30.0522 109.257 29.1882C108.473 28.3242 108.081 27.4042 108.081 26.4282C108.081 25.4362 108.353 24.6602 108.897 24.1002C109.425 23.5242 110.185 23.2362 111.177 23.2362C111.673 23.2362 112.137 23.3642 112.569 23.6202C112.153 23.9722 111.825 24.4282 111.585 24.9882C111.361 25.5482 111.249 26.1162 111.249 26.6922C111.249 27.2682 111.393 27.7562 111.681 28.1562C111.985 28.5562 112.433 28.7562 113.025 28.7562C113.617 28.7562 114.089 28.4442 114.441 27.8202ZM128.063 17.6922C128.063 17.9322 127.863 19.1962 127.463 21.4842C127.079 23.7562 126.879 25.6362 126.863 27.1242C126.863 28.5962 126.959 29.5482 127.151 29.9802C125.903 29.6602 125.063 29.1802 124.631 28.5402C124.199 27.8842 123.983 26.9322 123.983 25.6842C123.983 25.0122 124.111 23.7962 124.367 22.0362C124.623 20.2762 124.751 18.9082 124.751 17.9322C124.751 16.9562 124.703 16.2042 124.607 15.6762C124.959 15.6442 125.287 15.6282 125.591 15.6282C126.519 15.6282 127.159 15.7882 127.511 16.1082C127.879 16.4122 128.063 16.9402 128.063 17.6922ZM128.423 13.5162C127.975 13.5802 127.583 13.6122 127.247 13.6122C125.599 13.6122 124.775 13.0362 124.775 11.8842C124.775 11.4682 124.895 10.9002 125.135 10.1802C125.583 10.1162 125.975 10.0842 126.311 10.0842C127.959 10.0842 128.783 10.6602 128.783 11.8122C128.783 12.2282 128.663 12.7962 128.423 13.5162ZM151.543 24.7002C152.135 24.8282 152.431 25.1242 152.431 25.5882C151.823 26.6922 151.079 27.5882 150.199 28.2762C149.319 28.9642 148.487 29.4202 147.703 29.6442C146.919 29.8682 146.111 29.9802 145.279 29.9802C143.391 29.9802 141.807 29.2602 140.527 27.8202C139.247 26.3802 138.607 24.2842 138.607 21.5322C138.607 18.4602 139.399 15.8442 140.983 13.6842C141.767 12.6442 142.767 11.8202 143.983 11.2122C145.215 10.5882 146.631 10.2762 148.231 10.2762C149.847 10.2762 151.071 10.7082 151.903 11.5722C152.751 12.4202 153.175 13.4282 153.175 14.5962C153.175 15.7482 152.855 16.6922 152.215 17.4282C151.575 18.1482 150.743 18.5082 149.719 18.5082C149.367 18.5082 148.959 18.4442 148.495 18.3162C148.831 17.9002 149.127 17.3082 149.383 16.5402C149.639 15.7722 149.767 15.0442 149.767 14.3562C149.767 13.6682 149.607 13.1082 149.287 12.6762C148.967 12.2442 148.463 12.0282 147.775 12.0282C146.719 12.0282 145.767 12.5162 144.919 13.4922C144.071 14.4682 143.439 15.6682 143.023 17.0922C142.607 18.5162 142.399 19.9882 142.399 21.5082C142.399 23.5562 142.799 25.1082 143.599 26.1642C144.399 27.2202 145.423 27.7482 146.671 27.7482C147.455 27.7482 148.271 27.4842 149.119 26.9562C149.967 26.4282 150.775 25.6762 151.543 24.7002ZM162.668 17.5962C161.628 17.5962 160.7 18.3002 159.884 19.7082C159.068 21.1002 158.66 22.4922 158.66 23.8842C158.66 26.7962 159.412 28.2522 160.916 28.2522C161.988 28.2522 162.86 27.5562 163.532 26.1642C164.204 24.7562 164.54 23.1802 164.54 21.4362C164.54 18.8762 163.916 17.5962 162.668 17.5962ZM160.628 15.4362C160.804 15.4362 160.964 15.4922 161.108 15.6042C161.268 15.7002 161.348 15.8042 161.348 15.9162C159.732 17.0362 158.764 18.5962 158.444 20.5962C158.78 19.7002 159.188 18.9242 159.668 18.2682C160.164 17.6122 160.676 17.1162 161.204 16.7802C162.212 16.1562 163.196 15.8442 164.156 15.8442C165.116 15.8442 165.932 16.3162 166.604 17.2602C167.276 18.2042 167.612 19.4682 167.612 21.0522C167.612 22.8282 167.252 24.4602 166.532 25.9482C165.732 27.6282 164.596 28.7882 163.124 29.4282C162.292 29.7962 161.38 29.9802 160.388 29.9802C158.996 29.9802 157.78 29.4442 156.74 28.3722C155.716 27.2842 155.204 25.7322 155.204 23.7162C155.204 21.6842 155.7 19.9002 156.692 18.3642C157.684 16.8122 158.996 15.8362 160.628 15.4362ZM173.232 24.7722C173.232 26.6762 173.808 27.6282 174.96 27.6282C175.568 27.6282 176.16 27.3002 176.736 26.6442C177.312 25.9882 177.776 25.1082 178.128 24.0042C178.496 22.9002 178.808 21.7242 179.064 20.4762C179.336 19.2122 179.536 17.8762 179.664 16.4682C179.888 13.7482 180 11.6282 180 10.1082C180 8.57218 179.936 7.42018 179.808 6.65218C180.96 6.90818 181.768 7.45218 182.232 8.28418C182.696 9.11618 182.928 10.1642 182.928 11.4282C182.928 12.6922 182.656 15.0442 182.112 18.4842C181.584 21.9242 181.32 24.4362 181.32 26.0202C181.32 27.6042 181.392 28.9482 181.536 30.0522C180.4 29.7482 179.616 29.2042 179.184 28.4202C178.768 27.6202 178.56 26.6202 178.56 25.4202C178.064 26.7962 177.32 27.8842 176.328 28.6842C175.336 29.4842 174.312 29.8842 173.256 29.8842C172.2 29.8842 171.336 29.4842 170.664 28.6842C170.008 27.8682 169.68 26.6762 169.68 25.1082C169.68 22.6282 170.36 20.5002 171.72 18.7242C173.08 16.9322 174.688 16.0362 176.544 16.0362C177.072 16.0362 177.904 16.1642 179.04 16.4202C178.048 16.6762 177.16 17.1242 176.376 17.7642C175.608 18.3882 175.008 19.1082 174.576 19.9242C173.68 21.5402 173.232 23.1562 173.232 24.7722ZM190.589 23.7162C189.821 23.7162 189.069 23.6282 188.333 23.4522C188.317 23.6122 188.309 23.8602 188.309 24.1962C188.309 25.5242 188.557 26.5242 189.053 27.1962C189.549 27.8682 190.141 28.2042 190.829 28.2042C191.517 28.2042 192.173 27.9962 192.797 27.5802C193.421 27.1642 193.965 26.5882 194.429 25.8522C195.005 25.9802 195.293 26.2762 195.293 26.7402C193.885 28.9002 192.069 29.9802 189.845 29.9802C188.501 29.9802 187.325 29.4682 186.317 28.4442C185.309 27.4042 184.805 25.9642 184.805 24.1242C184.805 22.7482 185.069 21.4442 185.597 20.2122C186.125 18.9642 186.965 17.9162 188.117 17.0682C189.269 16.2042 190.541 15.7722 191.933 15.7722C193.341 15.7722 194.373 16.0922 195.029 16.7322C195.685 17.3722 196.013 18.2122 196.013 19.2522C196.013 20.7562 195.485 21.8762 194.429 22.6122C193.389 23.3482 192.109 23.7162 190.589 23.7162ZM191.597 17.2602C190.781 17.2602 190.093 17.7642 189.533 18.7722C188.973 19.7802 188.605 21.0042 188.429 22.4442H188.789C190.181 22.4442 191.205 22.0842 191.861 21.3642C192.533 20.6442 192.869 19.7802 192.869 18.7722C192.869 18.3562 192.757 18.0042 192.533 17.7162C192.325 17.4122 192.013 17.2602 191.597 17.2602ZM197.707 29.9082C197.947 28.9802 198.435 28.2762 199.171 27.7962C199.091 27.4762 199.051 27.0362 199.051 26.4762C199.051 25.9002 199.219 24.3722 199.555 21.8922C200.147 17.7802 200.443 14.5962 200.443 12.3402C200.443 11.8602 200.411 11.2042 200.347 10.3722C201.563 10.4362 202.451 10.6282 203.011 10.9482C203.251 11.0762 203.435 11.2762 203.563 11.5482C203.691 11.8042 203.763 12.0442 203.779 12.2682C203.811 12.4922 203.827 12.9002 203.827 13.4922C203.827 14.0842 203.579 16.0282 203.083 19.3242C202.603 22.6042 202.323 25.1882 202.243 27.0762C206.035 27.0762 208.843 26.7722 210.667 26.1642C210.523 27.3482 210.163 28.2682 209.587 28.9242C209.011 29.5802 208.291 29.9082 207.427 29.9082C207.171 29.9082 206.451 29.8362 205.267 29.6922C204.099 29.5642 202.859 29.5002 201.547 29.5002C200.235 29.5002 198.955 29.6362 197.707 29.9082ZM214.624 25.0842C214.624 25.8362 214.76 26.4522 215.032 26.9322C215.32 27.3962 215.72 27.6282 216.232 27.6282C216.984 27.6282 217.696 27.1882 218.368 26.3082C219.056 25.4282 219.6 24.3002 220 22.9242C220.416 21.5482 220.624 20.2442 220.624 19.0122C220.624 17.7642 220.576 16.7562 220.48 15.9882C220.96 15.9562 221.296 15.9402 221.488 15.9402C222.304 15.9402 222.92 16.0922 223.336 16.3962C223.752 16.7002 223.96 17.2442 223.96 18.0282C223.96 18.3322 223.768 19.5722 223.384 21.7482C223 23.9082 222.808 25.6442 222.808 26.9562C222.808 28.2522 223.056 29.4042 223.552 30.4122C222.352 30.2042 221.472 29.7642 220.912 29.0922C220.352 28.4042 220.072 27.4202 220.072 26.1402C220.072 25.9162 220.104 25.4842 220.168 24.8442C219.736 26.3642 218.968 27.5882 217.864 28.5162C216.76 29.4442 215.672 29.9082 214.6 29.9082C213.544 29.9082 212.688 29.5162 212.032 28.7322C211.392 27.9322 211.072 26.8042 211.072 25.3482C211.072 23.8922 211.328 22.4842 211.84 21.1242C212.368 19.7482 213.152 18.5882 214.192 17.6442C215.232 16.6842 216.392 16.2042 217.672 16.2042C218.408 16.2042 219.16 16.3802 219.928 16.7322C218.312 17.3082 217.024 18.4442 216.064 20.1402C215.104 21.8202 214.624 23.4682 214.624 25.0842ZM228.851 6.65218C229.987 6.95618 230.763 7.50818 231.179 8.30818C231.611 9.09218 231.827 9.96418 231.827 10.9242C231.827 11.8842 231.675 13.5242 231.371 15.8442C231.067 18.1482 230.859 19.9882 230.747 21.3642C231.227 19.6522 231.907 18.2922 232.787 17.2842C233.683 16.2762 234.643 15.7722 235.667 15.7722C236.691 15.7722 237.571 16.2602 238.307 17.2362C239.059 18.2122 239.435 19.4602 239.435 20.9802C239.435 23.3322 238.803 25.3642 237.539 27.0762C236.291 28.7722 234.859 29.6202 233.243 29.6202C232.683 29.6202 232.123 29.4922 231.563 29.2362C232.251 29.0442 232.875 28.6522 233.435 28.0602C233.995 27.4682 234.451 26.7882 234.803 26.0202C235.523 24.4202 235.883 22.8202 235.883 21.2202C235.883 20.4362 235.731 19.7482 235.427 19.1562C235.139 18.5642 234.747 18.2682 234.251 18.2682C233.451 18.2682 232.635 19.0842 231.803 20.7162C230.987 22.3482 230.555 24.3802 230.507 26.8122V27.2682C230.539 27.8282 230.675 28.7562 230.915 30.0522C228.611 29.5242 227.459 27.8682 227.459 25.0842C227.459 23.9482 227.723 21.6602 228.251 18.2202C228.795 14.7802 229.067 12.2682 229.067 10.6842C229.067 9.10018 228.995 7.75618 228.851 6.65218Z" fill="white"/>
<defs>
<linearGradient id="paint0_linear_98_3925" x1="47.0672" y1="9.40143" x2="41.7189" y2="14.7821" gradientUnits="userSpaceOnUse">
<stop stop-color="#06B43C"/>
<stop offset="1" stop-color="#073869"/>
</linearGradient>
<linearGradient id="paint1_linear_98_3925" x1="45.4109" y1="1.11029" x2="37.2951" y2="9.17725" gradientUnits="userSpaceOnUse">
<stop stop-color="#955533"/>
<stop offset="1" stop-color="#2A1F45"/>
</linearGradient>
<clipPath id="clip0_98_3925">
<rect width="50" height="41.2403" fill="white"/>
</clipPath>
</defs>
</svg>
