<svg width="46" height="46" viewBox="0 0 46 46" fill="none" xmlns="http://www.w3.org/2000/svg">
<g clip-path="url(#clip0_149_340)">
<path opacity="0.5" d="M0 31.3168C0 33.2649 1.5686 34.8335 4.7035 37.9684L8.0316 41.2965C11.1665 44.4314 12.7351 46 14.6832 46C16.6313 46 18.2022 44.4314 21.3371 41.2965L41.2965 21.3371C44.4314 18.1999 46 16.629 46 14.6832C46 12.7374 44.4314 11.1665 41.2965 8.0316L37.9684 4.7035C34.8335 1.5686 33.2649 0 31.3168 0C29.5826 0 28.152 1.242 25.6496 3.7214L23.2346 6.1318L20.769 8.5997L18.354 11.0101L15.893 13.478L13.478 15.8907L11.0124 18.354L8.602 20.769L6.1341 23.2369L3.7237 25.6496C1.2397 28.152 0 29.5826 0 31.3168Z" fill="#C3CCEB"/>
<path d="M25.8474 3.88927C25.7847 3.82963 25.7187 3.77357 25.6496 3.72137L23.2369 6.13177C23.2875 6.20077 23.3443 6.26671 23.4071 6.32957L26.6593 9.58177C26.9863 9.88648 27.4188 10.0524 27.8657 10.0445C28.3126 10.0366 28.739 9.85555 29.0551 9.5395C29.3711 9.22345 29.5522 8.79707 29.56 8.35018C29.5679 7.90328 29.402 7.47078 29.0973 7.14377L25.8474 3.88927ZM20.9668 8.76987C20.9042 8.70944 20.8381 8.65262 20.769 8.59967L18.3586 11.0101C18.4092 11.0791 18.466 11.145 18.5288 11.2079L23.4071 16.0885C23.7326 16.4025 24.1684 16.5762 24.6207 16.5721C25.073 16.5679 25.5056 16.3863 25.8253 16.0663C26.1449 15.7463 26.3262 15.3136 26.3299 14.8613C26.3336 14.409 26.1595 13.9734 25.8451 13.6482L20.9668 8.76987ZM16.0885 13.6482C16.0259 13.5877 15.9598 13.5309 15.8907 13.478L13.478 15.8884C13.5286 15.9589 13.5854 16.0256 13.6482 16.0885L16.9027 19.3407C17.0607 19.5102 17.2511 19.6461 17.4627 19.7404C17.6743 19.8347 17.9027 19.8853 18.1343 19.8894C18.366 19.8935 18.596 19.8509 18.8108 19.7642C19.0256 19.6774 19.2207 19.5483 19.3845 19.3845C19.5483 19.2207 19.6775 19.0255 19.7642 18.8107C19.851 18.596 19.8936 18.3659 19.8895 18.1343C19.8854 17.9027 19.8347 17.6742 19.7404 17.4626C19.6461 17.251 19.5102 17.0606 19.3407 16.9027L16.0885 13.6482ZM11.2102 18.5265C11.1476 18.466 11.0815 18.4092 11.0124 18.3563L8.59973 20.769C8.65033 20.838 8.70707 20.9039 8.76994 20.9668L13.6482 25.8451C13.8073 26.0099 13.9976 26.1414 14.208 26.2319C14.4184 26.3224 14.6447 26.3701 14.8738 26.3722C15.1028 26.3743 15.33 26.3308 15.542 26.2441C15.754 26.1575 15.9467 26.0295 16.1087 25.8676C16.2708 25.7057 16.399 25.5132 16.4858 25.3012C16.5726 25.0893 16.6164 24.8621 16.6145 24.6331C16.6126 24.4041 16.5651 24.1777 16.4748 23.9672C16.3845 23.7567 16.2532 23.5663 16.0885 23.4071L11.2102 18.5265ZM6.32964 23.4071C6.26704 23.3459 6.201 23.2883 6.13184 23.2346L3.72144 25.6496C3.77204 25.7186 3.82877 25.7837 3.89164 25.8451L7.14384 29.0973C7.30176 29.2668 7.4922 29.4027 7.7038 29.497C7.9154 29.5913 8.14382 29.6419 8.37543 29.646C8.60705 29.6501 8.83712 29.6075 9.05191 29.5208C9.2667 29.434 9.46182 29.3049 9.62562 29.1411C9.78943 28.9773 9.91856 28.7821 10.0053 28.5673C10.0921 28.3526 10.1347 28.1225 10.1306 27.8909C10.1265 27.6593 10.0758 27.4308 9.98153 27.2192C9.88725 27.0076 9.75131 26.8172 9.58184 26.6593L6.32964 23.4071Z" fill="#3755BE"/>
</g>
<defs>
<clipPath id="clip0_149_340">
<rect width="46" height="46" fill="white"/>
</clipPath>
</defs>
</svg>
