<svg width="46" height="46" viewBox="0 0 46 46" fill="none" xmlns="http://www.w3.org/2000/svg">
<g clip-path="url(#clip0_149_332)">
<path d="M22.9999 0C22.5729 0 22.1634 0.169624 21.8615 0.471558C21.5595 0.773492 21.3899 1.183 21.3899 1.61V38.41C21.3899 38.837 21.5595 39.2465 21.8615 39.5484C22.1634 39.8504 22.5729 40.02 22.9999 40.02C23.4269 40.02 23.8364 39.8504 24.1383 39.5484C24.4403 39.2465 24.6099 38.837 24.6099 38.41V21.62H44.3899C44.8169 21.62 45.2264 21.4504 45.5283 21.1484C45.8303 20.8465 45.9999 20.437 45.9999 20.01V1.61C45.9999 1.183 45.8303 0.773492 45.5283 0.471558C45.2264 0.169624 44.8169 0 44.3899 0H23.2299C23.1909 0.000295119 23.1519 0.00182923 23.1131 0.0046C23.0754 0.00190591 23.0377 0.000371847 22.9999 0Z" fill="#3755BE"/>
<path d="M17.4818 35.3243C12.6086 36.0134 9.19995 37.6611 9.19995 40.0858C9.19995 43.3518 14.8952 46 23 46C31.1047 46 36.8 43.3523 36.8 40.0858C36.8 37.6607 33.3914 36.0134 28.5186 35.3248L27.8433 36.4743C31.5164 36.9836 34.04 38.0549 34.04 39.2974C34.04 41.0394 29.0973 42.4516 23 42.4516C16.9027 42.4516 11.96 41.0394 11.96 39.2974C11.9595 38.059 14.467 36.9891 18.1511 36.4776L17.4818 35.3243Z" fill="#C3CCEB"/>
</g>
<defs>
<clipPath id="clip0_149_332">
<rect width="46" height="46" fill="white"/>
</clipPath>
</defs>
</svg>
