<svg width="96" height="96" viewBox="0 0 96 96" fill="none" xmlns="http://www.w3.org/2000/svg">
<rect width="96" height="96" rx="48" fill="#FFEFC5"/>
<g clip-path="url(#clip0_1034_605)">
<path d="M58.0938 29H37.9062C32.9875 29 29 32.9875 29 37.9062V58.0938C29 63.0125 32.9875 67 37.9062 67H58.0938C63.0125 67 67 63.0125 67 58.0938V37.9062C67 32.9875 63.0125 29 58.0938 29Z" fill="#FFC008"/>
<path d="M35.0001 53.5141L37.0259 52.2881C37.5087 51.9959 38.1169 52.1752 38.4498 52.6309C38.8637 53.1974 39.3669 53.5905 40.2036 53.5905C41.377 53.5905 42.1168 53.1315 42.1168 51.3461V40.2043C42.1168 39.652 42.5646 39.2042 43.1168 39.2042H44.6879C45.2402 39.2042 45.6879 39.652 45.6879 40.2042V51.3966C45.6879 55.0952 43.5199 56.7788 40.3567 56.7788C37.5 56.7788 35.8418 55.2993 35 53.5138M48.113 53.9415C47.8082 53.5074 47.9866 52.9236 48.4456 52.6578L49.6908 51.9368C50.1605 51.6649 50.7506 51.8272 51.0996 52.2428C51.793 53.0683 52.6959 53.6162 54.0554 53.6162C55.5351 53.6162 56.4786 52.8764 56.4786 51.856C56.4786 50.6317 55.5093 50.198 53.8768 49.484L52.9842 49.1012C50.4078 48.0045 48.6987 46.627 48.6987 43.7191C48.6987 41.0407 50.7394 39 53.928 39C55.8813 39 57.3625 39.5855 58.4852 41.0649C58.8063 41.488 58.6541 42.0817 58.2071 42.3687L57.1186 43.0677C56.6335 43.3793 56.008 43.193 55.6051 42.7806C55.1465 42.3112 54.6193 42.1121 53.928 42.1121C52.8821 42.1121 52.2189 42.7754 52.2189 43.6425C52.2189 44.7138 52.8821 45.1475 54.4125 45.8109L55.3052 46.1934C58.3406 47.4945 60.0497 48.8206 60.0497 51.805C60.0497 55.0192 57.5245 56.7791 54.132 56.7791C51.2651 56.7791 49.2752 55.597 48.113 53.9415Z" fill="white"/>
</g>
<path d="M43.5453 83.8737C59.5343 85.7484 74.9508 76.6721 81.0317 61.7022L82.49 62.093C76.1777 77.8594 59.9488 87.4064 43.1532 85.3367L43.5453 83.8737ZM62.3743 13.6026C77.9543 20.2078 87.2354 36.5897 84.8194 53.3996L83.3601 53.0086C85.5782 37.0043 76.7662 21.4364 61.9823 15.0656L62.3743 13.6026ZM12.8956 34.1277C19.3953 17.8945 36.4089 8.25257 53.728 11.0977L53.3378 12.5542C36.8228 9.91183 20.6256 19.0828 14.3549 34.5187L12.8956 34.1277ZM12.0246 43.2118C9.73659 59.7155 19.1792 75.757 34.8031 81.7263L34.4129 83.1828C17.9912 76.9871 8.07795 60.1297 10.5662 42.8211L12.0246 43.2118Z" fill="#EAB416"/>
<circle cx="67.3373" cy="77.2527" r="6" transform="rotate(-75 67.3373 77.2527)" fill="#FFEFC5" stroke="#EAB416" stroke-width="1.5"/>
<circle cx="30.3564" cy="15.3211" r="2.25" transform="rotate(-75 30.3564 15.3211)" fill="#FFEFC5" stroke="#EAB416" stroke-width="1.5"/>
<circle cx="76.9112" cy="70.5006" r="3" transform="rotate(-75 76.9112 70.5006)" fill="#FFEFC5" stroke="#EAB416" stroke-width="1.5"/>
<circle cx="42.9697" cy="11.7128" r="3" transform="rotate(-75 42.9697 11.7128)" fill="#FFEFC5" stroke="#EAB416" stroke-width="1.5"/>
<circle cx="17.9712" cy="70.2368" r="3" transform="rotate(-75 17.9712 70.2368)" fill="#FFEFC5" stroke="#EAB416" stroke-width="1.5"/>
<defs>
<clipPath id="clip0_1034_605">
<rect width="38" height="38" fill="white" transform="translate(29 29)"/>
</clipPath>
</defs>
</svg>
