<svg width="48" height="48" viewBox="0 0 48 48" fill="none" xmlns="http://www.w3.org/2000/svg">
<path opacity="0.3" fill-rule="evenodd" clip-rule="evenodd" d="M9 42H43C44.6569 42 46 40.6569 46 39V17C46 15.3431 44.6569 14 43 14H22L16.8787 8.87868C16.3161 8.31607 15.553 8 14.7574 8H9C7.34315 8 6 9.34315 6 11V39C6 40.6569 7.34315 42 9 42Z" fill="#3755BE"/>
<path fill-rule="evenodd" clip-rule="evenodd" d="M5 38H39C40.6569 38 42 36.6569 42 35V13C42 11.3431 40.6569 10 39 10H18L12.8787 4.87868C12.3161 4.31607 11.553 4 10.7574 4H5C3.34315 4 2 5.34315 2 7V35C2 36.6569 3.34315 38 5 38Z" fill="#3755BE"/>
<path d="M18.8034 32L16.172 30.1128L18.9287 25.4359L14 23.2615L15.0025 20.2256L20.2654 21.3744L20.8501 16H24.1499L24.6511 21.3744L29.9975 20.2256L31 23.2615L25.9877 25.4359L28.828 30.1128L26.1966 32L22.4791 27.8974L18.8034 32Z" fill="white"/>
</svg>
