<svg width="46" height="46" viewBox="0 0 46 46" fill="none" xmlns="http://www.w3.org/2000/svg">
<path d="M17.4246 21.0128C18.6381 19.7994 20.2839 19.1177 22 19.1177H34.9412C36.6573 19.1177 38.3031 19.7994 39.5166 21.0128C40.73 22.2263 41.4118 23.8721 41.4118 25.5882V38.5294C41.4118 40.2455 40.73 41.8913 39.5166 43.1048C38.3031 44.3183 36.6573 45 34.9412 45H22C20.2839 45 18.6381 44.3183 17.4246 43.1048C16.2111 41.8913 15.5294 40.2455 15.5294 38.5294V25.5882C15.5294 23.8721 16.2111 22.2263 17.4246 21.0128Z" fill="#3755BE"/>
<path d="M3.93526 7.97497C1.40394 10.6284 -0.00573839 14.1563 1.75576e-05 17.8234C0.00577351 21.4906 1.32677 24.7988 3.72117 27.4221C6.11558 30.0455 9.40415 31.6789 12.9412 32.0018V25.5882C12.9412 23.1856 13.8956 20.8815 15.5945 19.1826C17.2933 17.4837 19.5975 16.5293 22 16.5293H28.4137C28.086 12.8768 26.3615 9.49166 23.5995 7.07935C20.8374 4.66704 17.251 3.4137 13.5876 3.58055C9.92424 3.7474 6.46658 5.32157 3.93526 7.97497Z" fill="#E1E5F5"/>
</svg>
