<svg width="96" height="96" viewBox="0 0 96 96" fill="none" xmlns="http://www.w3.org/2000/svg">
<rect width="96" height="96" rx="48" fill="#FFF2CE"/>
<path d="M29.25 58.5V49.75H34.3636V53.25H39.4773V37.5H44.5909V58.5H29.25ZM49.7045 58.5V51.5H54.8182V53.25H61.6364V49.75H49.7045V37.5H66.75V44.5H61.6364V42.75H54.8182V46.25H66.75V58.5H49.7045Z" fill="#FFC008"/>
<path fill-rule="evenodd" clip-rule="evenodd" d="M43.3148 10.4999C25.9517 12.5762 12.2336 26.5168 10.4995 43.9828H12.0073C13.7292 27.346 26.7812 14.0727 43.3148 12.0112V10.4999ZM52.3148 12.0114V10.5001C69.6775 12.5767 83.3951 26.5171 85.1292 43.9828H83.6214C81.8995 27.3463 68.8481 14.0732 52.3148 12.0114ZM52.3148 83.4542C68.348 81.4547 81.1069 68.9118 83.4343 52.9828H84.9498C82.602 69.7415 69.1775 82.9486 52.3148 84.9655V83.4542ZM12.1944 52.9828C14.5219 68.9122 27.2812 81.4552 43.3148 83.4543V84.9656C26.4517 82.9491 13.0268 69.7419 10.6789 52.9828H12.1944Z" fill="#FFC008"/>
<circle cx="24.75" cy="74.25" r="6" fill="#FFF2CE" stroke="#FFC008" stroke-width="1.5"/>
<circle cx="75" cy="22.5" r="2.25" fill="#FFF2CE" stroke="#FFC008" stroke-width="1.5"/>
<circle cx="33.75" cy="81.75" r="3" fill="#FFF2CE" stroke="#FFC008" stroke-width="1.5"/>
<circle cx="81.75" cy="33.75" r="3" fill="#FFF2CE" stroke="#FFC008" stroke-width="1.5"/>
<circle cx="18.75" cy="24.75" r="3" fill="#FFF2CE" stroke="#FFC008" stroke-width="1.5"/>
</svg>
