<svg width="46" height="46" viewBox="0 0 46 46" fill="none" xmlns="http://www.w3.org/2000/svg">
<path d="M8.49993 28.77C7.56713 30.0373 7.13305 31.6034 7.28036 33.17C7.42768 34.7366 8.1461 36.1943 9.29878 37.2655C10.4515 38.3366 11.9579 38.9464 13.5311 38.9785C15.1043 39.0107 16.6344 38.4631 17.8299 37.44C15.601 37.0565 13.532 36.0324 11.8752 34.4929C10.2185 32.9533 9.04569 30.9648 8.49993 28.77Z" fill="#E1E5F5"/>
<path d="M12.68 19.53C11.041 21.343 10.1552 23.7129 10.2033 26.1565C10.2513 28.6 11.2295 30.9333 12.9385 32.6805C14.6474 34.4277 16.9584 35.4573 19.4003 35.5595C21.8422 35.6616 24.2311 34.8285 26.08 33.23C22.532 33.0526 19.1814 31.5435 16.6974 29.0039C14.2134 26.4642 12.7788 23.0811 12.68 19.53Z" fill="#BFC5DF"/>
<path d="M26.78 7C29.1758 7.00001 31.5179 7.71008 33.5103 9.04052C35.5028 10.371 37.0563 12.2621 37.9745 14.475C38.8927 16.6879 39.1344 19.1233 38.6692 21.4735C38.204 23.8237 37.0526 25.9833 35.3606 27.6795C33.6686 29.3757 31.5118 30.5324 29.1628 31.0034C26.8137 31.4745 24.3777 31.2387 22.1626 30.326C19.9474 29.4133 18.0525 27.8645 16.7171 25.8753C15.3817 23.8861 14.6659 21.5458 14.6599 19.15C14.656 17.5559 14.9666 15.9766 15.5739 14.5027C16.1812 13.0287 17.0734 11.6891 18.1992 10.5605C19.325 9.43184 20.6625 8.5364 22.1349 7.92544C23.6073 7.31448 25.1858 7 26.78 7Z" fill="#3755BE"/>
</svg>
