<svg width="66" height="66" viewBox="0 0 66 66" fill="none" xmlns="http://www.w3.org/2000/svg">
<circle cx="33" cy="33" r="33" fill="#D3DCF9"/>
<g clip-path="url(#clip0_1176_695)">
<path d="M43.0312 17H24.9688C20.5677 17 17 20.5677 17 24.9688V43.0312C17 47.4323 20.5677 51 24.9688 51H43.0312C47.4323 51 51 47.4323 51 43.0312V24.9688C51 20.5677 47.4323 17 43.0312 17Z" fill="#FF8E88"/>
<path d="M40.0312 15H21.9688C17.5677 15 14 18.5677 14 22.9688V41.0312C14 45.4323 17.5677 49 21.9688 49H40.0312C44.4323 49 48 45.4323 48 41.0312V22.9688C48 18.5677 44.4323 15 40.0312 15Z" fill="#3755BE"/>
<mask id="path-4-inside-1_1176_695" fill="white">
<path d="M19.0001 36.9863L20.8126 35.8893C21.2446 35.6279 21.7888 35.7884 22.0867 36.196C22.457 36.7029 22.9073 37.0547 23.6559 37.0547C24.7058 37.0547 25.3677 36.644 25.3677 35.0465V25.0775C25.3677 24.5833 25.7683 24.1827 26.2624 24.1827H27.6682C28.1623 24.1827 28.5629 24.5833 28.5629 25.0775V35.0917C28.5629 38.401 26.623 39.9074 23.7928 39.9074C21.2368 39.9074 19.7532 38.5836 19 36.986M30.7327 37.3687C30.46 36.9803 30.6196 36.4579 31.0303 36.2201L32.1444 35.575C32.5646 35.3318 33.0926 35.477 33.4049 35.8488C34.0253 36.5874 34.8332 37.0776 36.0495 37.0776C37.3735 37.0776 38.2177 36.4157 38.2177 35.5028C38.2177 34.4073 37.3504 34.0192 35.8898 33.3804L35.0912 33.0379C32.7859 32.0567 31.2567 30.8242 31.2567 28.2224C31.2567 25.8259 33.0826 24 35.9356 24C37.6832 24 39.0085 24.5238 40.0131 25.8475C40.3004 26.2261 40.1642 26.7573 39.7643 27.0141L38.7903 27.6396C38.3563 27.9183 37.7966 27.7517 37.4362 27.3827C37.0259 26.9626 36.5541 26.7845 35.9356 26.7845C34.9998 26.7845 34.4064 27.378 34.4064 28.1538C34.4064 29.1124 34.9998 29.5004 36.3691 30.094L37.1678 30.4362C39.8837 31.6003 41.4129 32.7869 41.4129 35.4571C41.4129 38.333 39.1535 39.9076 36.1181 39.9076C33.553 39.9076 31.7725 38.8499 30.7327 37.3687Z"/>
</mask>
<path d="M19.0001 36.9863L20.8126 35.8893C21.2446 35.6279 21.7888 35.7884 22.0867 36.196C22.457 36.7029 22.9073 37.0547 23.6559 37.0547C24.7058 37.0547 25.3677 36.644 25.3677 35.0465V25.0775C25.3677 24.5833 25.7683 24.1827 26.2624 24.1827H27.6682C28.1623 24.1827 28.5629 24.5833 28.5629 25.0775V35.0917C28.5629 38.401 26.623 39.9074 23.7928 39.9074C21.2368 39.9074 19.7532 38.5836 19 36.986M30.7327 37.3687C30.46 36.9803 30.6196 36.4579 31.0303 36.2201L32.1444 35.575C32.5646 35.3318 33.0926 35.477 33.4049 35.8488C34.0253 36.5874 34.8332 37.0776 36.0495 37.0776C37.3735 37.0776 38.2177 36.4157 38.2177 35.5028C38.2177 34.4073 37.3504 34.0192 35.8898 33.3804L35.0912 33.0379C32.7859 32.0567 31.2567 30.8242 31.2567 28.2224C31.2567 25.8259 33.0826 24 35.9356 24C37.6832 24 39.0085 24.5238 40.0131 25.8475C40.3004 26.2261 40.1642 26.7573 39.7643 27.0141L38.7903 27.6396C38.3563 27.9183 37.7966 27.7517 37.4362 27.3827C37.0259 26.9626 36.5541 26.7845 35.9356 26.7845C34.9998 26.7845 34.4064 27.378 34.4064 28.1538C34.4064 29.1124 34.9998 29.5004 36.3691 30.094L37.1678 30.4362C39.8837 31.6003 41.4129 32.7869 41.4129 35.4571C41.4129 38.333 39.1535 39.9076 36.1181 39.9076C33.553 39.9076 31.7725 38.8499 30.7327 37.3687Z" fill="white"/>
<path d="M35.8898 33.3804L36.01 33.1055L36.008 33.1047L35.8898 33.3804ZM35.0912 33.0379L35.2094 32.7622L35.2087 32.7619L35.0912 33.0379ZM36.3691 30.094L36.2498 30.3692L36.2509 30.3697L36.3691 30.094ZM37.1678 30.4362L37.286 30.1605L37.286 30.1605L37.1678 30.4362ZM38.7903 27.6396L38.9525 27.892L38.7903 27.6396ZM37.4362 27.3827L37.6508 27.173L37.4362 27.3827ZM39.7643 27.0141L39.6022 26.7617L39.7643 27.0141ZM32.1444 35.575L31.9941 35.3154L32.1444 35.575ZM33.4049 35.8488L33.6346 35.6558L33.4049 35.8488ZM31.0303 36.2201L30.88 35.9605L31.0303 36.2201ZM30.7327 37.3687L30.9782 37.1963L30.7327 37.3687ZM20.8126 35.8893L20.968 36.146L20.8126 35.8893ZM22.0867 36.196L21.8445 36.373L22.0867 36.196ZM19.0001 36.9863L19.1555 37.2429L20.968 36.146L20.8126 35.8893L20.6573 35.6327L18.8448 36.7296L19.0001 36.9863ZM22.0867 36.196L21.8445 36.373C22.0435 36.6454 22.2765 36.8937 22.5752 37.0727C22.8774 37.2539 23.2311 37.3547 23.6559 37.3547V37.0547V36.7547C23.332 36.7547 23.0863 36.6795 22.8836 36.5581C22.6775 36.4345 22.5002 36.2535 22.3289 36.0191L22.0867 36.196ZM23.6559 37.0547V37.3547C24.211 37.3547 24.7389 37.2477 25.1196 36.8598C25.4975 36.4747 25.6677 35.8764 25.6677 35.0465H25.3677H25.0677C25.0677 35.8142 24.9069 36.2199 24.6914 36.4395C24.4786 36.6563 24.1506 36.7547 23.6559 36.7547V37.0547ZM25.3677 35.0465H25.6677V25.0775H25.3677H25.0677V35.0465H25.3677ZM26.2624 24.1827V24.4827H27.6682V24.1827V23.8827H26.2624V24.1827ZM28.5629 25.0775H28.2629V35.0917H28.5629H28.8629V25.0775H28.5629ZM28.5629 35.0917H28.2629C28.2629 36.6871 27.7969 37.8029 27.0335 38.5222C26.2668 39.2445 25.1575 39.6074 23.7928 39.6074V39.9074V40.2074C25.2583 40.2074 26.534 39.8171 27.4449 38.9589C28.359 38.0976 28.8629 36.8056 28.8629 35.0917H28.5629ZM23.7928 39.9074V39.6074C21.3666 39.6074 19.9811 38.3636 19.2714 36.8581L19 36.986L18.7286 37.1139C19.5252 38.8036 21.107 40.2074 23.7928 40.2074V39.9074ZM31.0303 36.2201L31.1806 36.4797L32.2948 35.8347L32.1444 35.575L31.9941 35.3154L30.88 35.9605L31.0303 36.2201ZM33.4049 35.8488L33.1752 36.0417C33.845 36.8392 34.7334 37.3776 36.0495 37.3776V37.0776V36.7776C34.9329 36.7776 34.2056 36.3356 33.6346 35.6558L33.4049 35.8488ZM36.0495 37.0776V37.3776C36.7584 37.3776 37.3682 37.2007 37.809 36.8734C38.2556 36.5418 38.5177 36.0616 38.5177 35.5028H38.2177H37.9177C37.9177 35.8569 37.7577 36.1641 37.4513 36.3917C37.1389 36.6236 36.6646 36.7776 36.0495 36.7776V37.0776ZM38.2177 35.5028H38.5177C38.5177 35.1874 38.4548 34.9092 38.3256 34.6605C38.197 34.4131 38.011 34.2106 37.7868 34.0345C37.3506 33.6917 36.7274 33.4193 36.01 33.1056L35.8898 33.3804L35.7696 33.6553C36.5128 33.9803 37.0536 34.2214 37.4161 34.5063C37.5913 34.6439 37.7134 34.7837 37.7932 34.9372C37.8722 35.0893 37.9177 35.2704 37.9177 35.5028H38.2177ZM35.8898 33.3804L36.008 33.1047L35.2094 32.7622L35.0912 33.0379L34.9729 33.3136L35.7715 33.6561L35.8898 33.3804ZM35.0912 33.0379L35.2087 32.7619C34.0703 32.2773 33.1603 31.7451 32.5339 31.0388C31.9167 30.3428 31.5567 29.457 31.5567 28.2224H31.2567H30.9567C30.9567 29.5895 31.3614 30.6209 32.085 31.4369C32.7996 32.2426 33.8068 32.8173 34.9737 33.3139L35.0912 33.0379ZM31.2567 28.2224H31.5567C31.5567 27.1034 31.9815 26.1287 32.7306 25.4322C33.4806 24.7349 34.5738 24.3 35.9356 24.3V24V23.7C34.4444 23.7 33.1982 24.1781 32.322 24.9928C31.4449 25.8084 30.9567 26.9449 30.9567 28.2224H31.2567ZM35.9356 24V24.3C37.6115 24.3 38.8384 24.7959 39.7741 26.0289L40.0131 25.8475L40.2521 25.6662C39.1786 24.2517 37.755 23.7 35.9356 23.7V24ZM39.7643 27.0141L39.6022 26.7617L38.6282 27.3871L38.7903 27.6396L38.9525 27.892L39.9264 27.2665L39.7643 27.0141ZM37.4362 27.3827L37.6508 27.173C37.177 26.6881 36.6244 26.4845 35.9356 26.4845V26.7845V27.0845C36.4839 27.0845 36.8747 27.2372 37.2216 27.5923L37.4362 27.3827ZM35.9356 26.7845V26.4845C35.4037 26.4845 34.9451 26.6541 34.6164 26.958C34.2867 27.2628 34.1064 27.6863 34.1064 28.1538H34.4064H34.7064C34.7064 27.8455 34.8227 27.5844 35.0237 27.3985C35.2257 27.2117 35.5317 27.0845 35.9356 27.0845V26.7845ZM34.4064 28.1538H34.1064C34.1064 28.712 34.2863 29.131 34.6722 29.4826C35.0338 29.8119 35.5696 30.0744 36.2498 30.3692L36.3691 30.094L36.4884 29.8187C35.7992 29.52 35.3537 29.2917 35.0763 29.039C34.8232 28.8085 34.7064 28.5542 34.7064 28.1538H34.4064ZM36.3691 30.094L36.2509 30.3697L37.0497 30.712L37.1678 30.4362L37.286 30.1605L36.4872 29.8182L36.3691 30.094ZM37.1678 30.4362L37.0496 30.712C38.4001 31.2908 39.4122 31.8585 40.0892 32.5862C40.753 33.2999 41.1129 34.1881 41.1129 35.4571H41.4129H41.7129C41.7129 34.0559 41.3082 33.0157 40.5285 32.1775C39.7618 31.3534 38.6514 30.7457 37.286 30.1605L37.1678 30.4362ZM41.4129 35.4571H41.1129C41.1129 36.8081 40.5863 37.8327 39.7167 38.5263C38.8392 39.2262 37.5875 39.6076 36.1181 39.6076V39.9076V40.2076C37.684 40.2076 39.0798 39.8017 40.0908 38.9954C41.1098 38.1826 41.7129 36.982 41.7129 35.4571H41.4129ZM36.1181 39.9076V39.6076C33.6442 39.6076 31.9583 38.5924 30.9782 37.1963L30.7327 37.3687L30.4871 37.5411C31.5868 39.1075 33.4617 40.2076 36.1181 40.2076V39.9076ZM38.7903 27.6396L38.6282 27.3871C38.3565 27.5617 37.9518 27.4812 37.6508 27.173L37.4362 27.3827L37.2216 27.5923C37.6414 28.0221 38.3561 28.275 38.9525 27.892L38.7903 27.6396ZM40.0131 25.8475L39.7741 26.0289C39.9391 26.2462 39.879 26.5839 39.6022 26.7617L39.7643 27.0141L39.9264 27.2665C40.4493 26.9307 40.6617 26.206 40.2521 25.6662L40.0131 25.8475ZM32.1444 35.575L32.2948 35.8347C32.5643 35.6786 32.937 35.7582 33.1752 36.0417L33.4049 35.8488L33.6346 35.6558C33.2482 35.1958 32.565 34.9849 31.9941 35.3154L32.1444 35.575ZM27.6682 24.1827V24.4827C27.9966 24.4827 28.2629 24.749 28.2629 25.0775H28.5629H28.8629C28.8629 24.4177 28.328 23.8827 27.6682 23.8827V24.1827ZM31.0303 36.2201L30.88 35.9605C30.3432 36.2713 30.0967 36.9849 30.4871 37.5411L30.7327 37.3687L30.9782 37.1963C30.8233 36.9757 30.8959 36.6446 31.1806 36.4797L31.0303 36.2201ZM25.3677 25.0775H25.6677C25.6677 24.749 25.934 24.4827 26.2624 24.4827V24.1827V23.8827C25.6026 23.8827 25.0677 24.4177 25.0677 25.0775H25.3677ZM20.8126 35.8893L20.968 36.146C21.2426 35.9798 21.6207 36.0668 21.8445 36.373L22.0867 36.196L22.3289 36.0191C21.9569 35.51 21.2466 35.276 20.6573 35.6327L20.8126 35.8893Z" fill="#3755BE" mask="url(#path-4-inside-1_1176_695)"/>
</g>
<defs>
<clipPath id="clip0_1176_695">
<rect width="37" height="36" fill="white" transform="translate(14 15)"/>
</clipPath>
</defs>
</svg>
