<svg width="530" height="530" viewBox="0 0 530 530" fill="none" xmlns="http://www.w3.org/2000/svg">
<g clip-path="url(#clip0_501_2)">
<rect width="530" height="530" rx="265" fill="#FFF4D3"/>
<path d="M421.4 601.25C429.03 589.53 431.61 578.07 432.18 564.5C432.196 564.088 432.293 563.683 432.467 563.309C432.64 562.935 432.886 562.599 433.19 562.32C439.33 556.67 446 551.35 451.46 545.18C457.553 538.307 462.823 531.153 467.27 523.72C477.743 506.233 484.797 488.357 488.43 470.09C491.657 453.837 493.067 438.417 492.66 423.83C492.1 404 491.07 383.22 488.97 363.04C487.01 344.173 485.63 331.537 484.83 325.13C482.003 302.657 476.963 277.697 469.71 250.25C466.737 239.017 463.303 228.557 459.41 218.87C456.15 210.79 452.15 202.92 448.39 195.12C448.151 194.623 448.094 194.056 448.23 193.52C449.643 188.047 450.657 182.427 451.27 176.66C453.463 156.067 453.483 136.393 451.33 117.64C449.91 105.24 447.517 94.53 444.15 85.51C437.59 67.92 422.93 61.7 405.41 64.92C393.657 67.08 381.55 70.2933 369.09 74.56C358.1 78.33 347.41 83.62 337.22 89.27C334.553 90.7567 331.907 92.4433 329.28 94.33C329.055 94.4903 328.794 94.5932 328.52 94.6298C328.246 94.6664 327.968 94.6356 327.71 94.54C320.53 91.97 312.96 90.34 305.18 88.87C279.567 84.0433 253.793 83.9167 227.86 88.49C219.64 89.9367 211.533 91.7967 203.54 94.07C203.313 94.1363 203.075 94.1553 202.841 94.1261C202.607 94.0969 202.382 94.0199 202.18 93.9C179.62 80.56 155.01 70.41 129.24 65.49C113.84 62.55 99.6301 62.94 90.4101 77.63C85.2601 85.85 83.2201 96.19 81.6501 106.02C77.7835 130.34 77.1735 155.02 79.8201 180.06C80.3068 184.68 81.3535 189.137 82.9601 193.43C83.0935 193.79 83.0735 194.14 82.9001 194.48C79.4068 201.433 76.3968 207.8 73.8701 213.58C66.2601 231.01 61.0001 250.28 56.3901 270.21C50.4835 295.737 46.1934 321.09 43.5201 346.27C40.8934 371.037 39.1868 398.127 38.4001 427.54C37.6001 457.48 44.4535 486.567 58.9601 514.8C67.2601 530.96 78.4668 545.22 92.5801 557.58C94.4534 559.22 96.3068 560.877 98.1401 562.55C98.7468 563.103 99.0335 563.787 99.0001 564.6C98.3201 580.47 104.21 594.24 113.67 606.49" stroke="#9CA2AF" stroke-width="2"/>
<path d="M377.18 118.08C381.247 121.087 385.293 124.047 389.32 126.96C402.98 136.853 415.153 148.3 425.84 161.3C426.06 161.573 426.163 161.533 426.15 161.18L424.65 118.28" stroke="#9D756E" stroke-width="2"/>
<path d="M424.65 118.28C424.01 112.9 423.163 107.553 422.11 102.24C420.86 95.9001 417.99 89.4801 410.16 90.6301C404.607 91.4434 398.85 92.8701 392.89 94.9101C381.257 98.8901 370.853 103.17 361.68 107.75C361.59 107.796 361.514 107.866 361.461 107.953C361.408 108.039 361.38 108.139 361.38 108.24C361.38 108.341 361.408 108.441 361.461 108.527C361.514 108.614 361.59 108.684 361.68 108.73C367.053 111.39 372.22 114.507 377.18 118.08" stroke="#9D8D8C" stroke-width="2"/>
<path d="M424.65 118.28C424.217 119.627 423.577 119.763 422.73 118.69C422.58 118.507 422.486 118.285 422.46 118.05C421.61 111.89 413.75 108.69 408.36 108.44C402.633 108.18 396.933 109.133 391.26 111.3C386.02 113.307 381.327 115.567 377.18 118.08" stroke="#FFBA97" stroke-width="2"/>
<path d="M106.13 120.46L104.68 160.86C104.627 162.447 105.057 162.593 105.97 161.3C108.703 157.44 111.68 153.837 114.9 150.49C122.953 142.123 132.007 134.153 142.06 126.58C146.16 123.493 150.177 120.523 154.11 117.67" stroke="#9D756E" stroke-width="2"/>
<path d="M154.11 117.67L168.32 108.93C168.422 108.868 168.505 108.782 168.564 108.679C168.622 108.575 168.652 108.459 168.652 108.34C168.652 108.221 168.622 108.105 168.564 108.001C168.505 107.898 168.422 107.811 168.32 107.75C156.66 100.84 143.88 96.41 130.76 92.76C127.12 91.7466 123.577 91.0733 120.13 90.74C112.98 90.05 109.83 95.41 108.73 101.5C107.597 107.78 106.73 114.1 106.13 120.46" stroke="#9D8D8C" stroke-width="2"/>
<path d="M154.11 117.67C148.63 114.077 142.68 111.41 136.26 109.67C132.92 108.763 129.203 108.387 125.11 108.54C118.49 108.787 113.073 111.457 108.86 116.55C107.71 117.93 107.72 119.87 106.87 121.49C106.65 121.903 106.447 121.897 106.26 121.47C106.147 121.197 106.103 120.86 106.13 120.46" stroke="#FFBA97" stroke-width="2"/>
<path d="M101.4 217.74C98.7734 223.52 96.2168 230.027 93.7301 237.26C89.2768 250.2 85.6701 263.093 82.9101 275.94C75.0801 312.32 69.7201 349.19 67.2601 386.33C66.5401 397.16 66.5001 408.77 66.3001 420.04" stroke="#9D8D8C" stroke-width="2"/>
<path d="M66.3001 420.04C65.8601 430.86 66.0901 441.097 66.9901 450.75C69.8434 481.37 81.8201 508 102.92 530.64C108.45 536.58 115.11 540.88 120.47 546.78C124.063 550.74 125.74 555.017 125.5 559.61C124.67 575.56 128.55 589 143.36 597.37C150.42 601.36 159.82 601.8 167.11 599.09C173.51 596.71 178.277 592.567 181.41 586.66C182.57 584.46 183.19 582.07 183.9 579.71C185.92 572.93 190.85 568.64 198.3 568.7C232.647 568.953 277.413 568.99 332.6 568.81C341.52 568.78 345.75 573.66 347.97 581.4C350.197 589.18 354.927 594.733 362.16 598.06C375.5 604.19 390.45 599.87 398.58 587.43C402.32 581.723 404.417 575.457 404.87 568.63C405.5 559.18 404.66 551.81 412.75 544.76C417.81 540.347 422.657 535.897 427.29 531.41C433.01 525.87 438.353 519.203 443.32 511.41C446.02 507.17 449.073 501.49 452.48 494.37C460.41 477.82 464.28 460.35 465.16 441.75C465.54 433.87 465.507 427.083 465.06 421.39" stroke="#9D756E" stroke-width="2"/>
<path d="M465.06 421.39C465.16 397.83 463.37 377.64 460.69 353.94C459.39 342.527 458.63 335.897 458.41 334.05C455.21 307.89 450.097 282.097 443.07 256.67C439.943 245.37 436.737 235.323 433.45 226.53C432.757 224.663 431.657 222.307 430.15 219.46" stroke="#9D8D8C" stroke-width="2"/>
<path d="M430.15 219.46C418.637 192.853 401.554 170.637 378.9 152.81C372.68 147.91 366.547 143.423 360.5 139.35C346.04 129.6 328.57 122.38 311.5 117.47C302.367 114.85 292.807 113.123 282.82 112.29C268.05 111.05 252.62 111.2 238.24 113.77C227.227 115.737 217.113 118.19 207.9 121.13C195.867 124.977 184.23 130.433 172.99 137.5C154.923 148.867 139.06 162.757 125.4 179.17C118.28 187.72 113.09 196.86 107.44 205.99C106.007 208.303 103.993 212.22 101.4 217.74" stroke="#9CA2AF" stroke-width="2"/>
<path d="M430.15 219.46C428.73 219.153 427.473 217.92 426.38 215.76C425.267 213.567 424.417 212.087 423.83 211.32C419.204 205.193 414.13 199.263 408.61 193.53C396.997 181.477 385.43 171.203 373.91 162.71C369.98 159.81 365.73 157.59 361.72 154.81C358.96 152.883 355.877 151.02 352.47 149.22C344.177 144.853 336.5 141.403 329.44 138.87C319.48 135.297 310.567 132.66 302.7 130.96C280.26 126.1 257.777 125.807 235.25 130.08C216.643 133.607 198.27 139.823 180.13 148.73C173.643 151.917 167.83 155.25 162.69 158.73C150.51 166.963 140.093 175.293 131.44 183.72C124.04 190.93 117.3 199.01 110.22 206.71C107.32 209.863 104.98 213.32 103.2 217.08C103.1 217.3 102.733 217.66 102.1 218.16C102 218.233 101.893 218.273 101.78 218.28C101.703 218.282 101.629 218.259 101.568 218.213C101.508 218.167 101.466 218.103 101.45 218.03C101.43 217.937 101.413 217.84 101.4 217.74" stroke="#FFE7D8" stroke-width="2"/>
<path d="M465.06 421.39C464.02 422.99 463.203 424.683 462.61 426.47C459.537 435.677 455.487 444.243 450.46 452.17C444.76 461.17 437.13 469.58 429.49 477.21C423.123 483.563 416.27 488.93 408.93 493.31C399.843 498.723 392.117 502.533 385.75 504.74C384.123 505.307 380.36 506.38 374.46 507.96" stroke="#FFBA97" stroke-width="2"/>
<path d="M374.46 507.96C376.073 505.06 377.04 503.16 377.36 502.26C377.553 501.727 377.5 500.477 377.2 498.51" stroke="#F9DDD1" stroke-width="2"/>
<path d="M377.2 498.51C380.727 495.343 383.317 490.587 384.97 484.24C387.13 475.96 388.287 468.217 388.44 461.01C388.46 460.057 388.613 459.24 388.9 458.56C389.207 457.82 389.577 457.06 390.01 456.28" stroke="#FFE7D8" stroke-width="2"/>
<path d="M390.01 456.28C409.857 460.02 426.717 455.22 440.59 441.88C450.19 432.64 455.11 420.59 460.32 408.49C462.847 402.603 462.363 397.16 458.87 392.16C455.963 388.013 452.297 386.16 447.87 386.6C439.48 387.43 437.13 393.95 434.16 400.51" stroke="#9D8D8C" stroke-width="2"/>
<path d="M434.16 400.51C431.32 402.537 429.493 404.093 428.68 405.18C425.607 409.293 423.057 412.167 421.03 413.8C415.123 418.567 408.437 420.857 400.97 420.67C393.24 420.48 387.6 415.15 384.39 408.53C383.457 406.61 382.813 404.17 382.46 401.21C382.16 398.723 381.897 396.193 381.67 393.62" stroke="#FFBA97" stroke-width="2"/>
<path d="M381.67 393.62C382.963 390.687 384.283 388.183 385.63 386.11C387.283 383.57 391.53 377.42 398.37 367.66C400.59 364.493 401.237 361.427 400.31 358.46C398.283 351.953 393.543 349.207 386.09 350.22" stroke="#9D8D8C" stroke-width="2"/>
<path d="M386.09 350.22C385.19 345.21 385.1 339.76 384.16 335.31C383.153 330.53 381.873 325.827 380.32 321.2C377.58 313.027 373.367 305.27 367.68 297.93" stroke="#FFE7D8" stroke-width="2"/>
<path d="M367.68 297.93C370.213 297.757 372.487 297.617 374.5 297.51C381.08 297.157 385.757 294.197 388.53 288.63C390.983 283.703 391.087 278.883 388.84 274.17C385.447 267.063 380.127 263.56 372.88 263.66C369.673 263.707 367.063 264.363 365.05 265.63C361.04 268.16 359.15 271.85 357.08 275.91" stroke="#FFBA97" stroke-width="2"/>
<path d="M357.08 275.91L339.49 258.24" stroke="#FFE7D8" stroke-width="2"/>
<path d="M339.49 258.24C349.74 258.82 358.2 253.74 362.07 244.28C364.683 237.88 364.087 231.627 360.28 225.52C356.72 219.82 350.51 215.79 343.72 215.54C330.93 215.08 322.04 224.64 322.26 237.24" stroke="#9D8D8C" stroke-width="2"/>
<path d="M322.26 237.24C321.993 236.747 321.463 236.64 320.67 236.92C320.512 236.978 320.342 236.997 320.175 236.974C320.008 236.952 319.848 236.888 319.71 236.79C304.57 225.98 285.82 221.04 267.4 221.1C254.57 221.14 242.05 222.19 229.99 227C227.823 227.86 224.4 229.547 219.72 232.06C216.413 233.833 213.02 235.583 209.54 237.31" stroke="#FFE7D8" stroke-width="2"/>
<path d="M209.54 237.31C209.253 230.863 207.437 225.81 204.09 222.15C191.69 208.58 169.44 216.22 167.61 234.54C166.5 245.65 173.77 254.49 183.94 257.91C184.987 258.257 187.407 258.39 191.2 258.31" stroke="#9D8D8C" stroke-width="2"/>
<path d="M191.2 258.31L173.55 275.72" stroke="#FFE7D8" stroke-width="2"/>
<path d="M173.55 275.72C169.89 268.53 166.03 263.28 157.08 263.53C149.787 263.737 144.663 267.01 141.71 273.35C138.89 279.41 139.43 286.13 143.52 291.45C147.993 297.263 154.573 299.293 163.26 297.54" stroke="#FFBA97" stroke-width="2"/>
<path d="M163.26 297.54C157.053 305.647 152.647 313.55 150.04 321.25C146.96 330.337 145.483 339.94 145.61 350.06" stroke="#FFE7D8" stroke-width="2"/>
<path d="M145.61 350.06C140.703 349.753 136.82 350.94 133.96 353.62C129.86 357.46 129.15 362.91 132.53 367.5C137.223 373.867 141.677 380.313 145.89 386.84C147.39 389.16 148.657 391.377 149.69 393.49" stroke="#9D8D8C" stroke-width="2"/>
<path d="M149.69 393.49C149.17 397.15 148.687 400.7 148.24 404.14C148.013 405.9 147.573 407.447 146.92 408.78C144.01 414.67 139.9 418.99 133.31 420.33C127.777 421.463 122.417 420.713 117.23 418.08C108.92 413.86 104.69 408.54 98.9101 402.15C98.838 402.071 98.7488 402.009 98.6487 401.968C98.5486 401.927 98.44 401.907 98.3301 401.91C98.0168 401.93 97.7868 401.793 97.6401 401.5C97.7001 401.04 97.4401 400.803 96.8601 400.79" stroke="#FFBA97" stroke-width="2"/>
<path d="M96.8601 400.79C95.4001 397.33 93.8035 394.38 92.0702 391.94C86.9402 384.75 76.9802 384.69 71.9802 391.99C68.3335 397.33 68.0935 403.45 71.2602 410.35C75.5402 419.68 79.7902 428.22 86.1502 436.47C99.2202 453.46 120.4 461.3 141.43 456.26" stroke="#9D8D8C" stroke-width="2"/>
<path d="M141.43 456.26C141.73 469.38 144.65 481.763 150.19 493.41C150.93 494.963 151.607 496.397 152.22 497.71" stroke="#FFE7D8" stroke-width="2"/>
<path d="M152.22 497.71L155.77 507.45" stroke="#F9DDD1" stroke-width="2"/>
<path d="M155.77 507.45C144.37 504.157 135.09 500.613 127.93 496.82C105.81 485.1 88.9601 465.65 76.3601 443.86C72.9901 438.03 71.1001 431.53 68.6301 425.1C67.9501 423.34 66.9401 421.81 66.3001 420.04" stroke="#FFBA97" stroke-width="2"/>
<path d="M339.49 258.24C329.91 256.07 321.74 247.57 322.26 237.24" stroke="#9CA2AF" stroke-width="2"/>
<path d="M209.54 237.31C209.273 242.33 207.263 246.973 203.51 251.24C200.17 255.033 196.067 257.39 191.2 258.31" stroke="#9CA2AF" stroke-width="2"/>
<path d="M155.77 507.45C156.103 507.75 156.57 508.193 157.17 508.78C157.65 509.24 158.09 509.757 158.49 510.33C170.59 527.6 189.09 540.95 209.9 545.34C214.82 546.38 220.484 546.89 226.89 546.87C254.997 546.77 281.27 546.807 305.71 546.98C309.76 547.01 314.82 546.77 318.57 545.78C330.023 542.733 339.087 539.25 345.76 535.33C356.753 528.87 366.32 519.747 374.46 507.96" stroke="#F9C5B3" stroke-width="2"/>
<path d="M96.8601 400.79C98.7401 405.81 101.067 410.593 103.84 415.14C106.887 420.147 111.037 424.207 116.29 427.32C126.69 433.48 139.8 431.13 146.95 421.72C153.45 413.167 154.363 403.757 149.69 393.49" stroke="#9D756E" stroke-width="2"/>
<path d="M357.08 275.91C355.4 285.963 358.933 293.303 367.68 297.93" stroke="#FFCFBA" stroke-width="2"/>
<path d="M386.09 350.22C379.58 351.17 375.08 355.58 371.22 360.46C368.727 363.62 366.28 366.823 363.88 370.07C352.14 385.98 347.97 405.86 355.45 424.7C360.017 436.213 367.877 445.297 379.03 451.95C380.977 453.117 384.637 454.56 390.01 456.28" stroke="#9CA2AF" stroke-width="2"/>
<path d="M377.2 498.51C368.387 504.803 360.737 509.06 354.25 511.28C347.483 513.6 340.57 515.903 333.51 518.19C328.97 519.663 323.33 520.59 316.59 520.97C311.537 521.263 305.87 521.433 299.59 521.48C274.563 521.66 249.283 521.653 223.75 521.46C217.203 521.413 210.687 520.84 204.2 519.74C199.17 518.89 194.49 517.03 189.63 515.68C182.39 513.67 175.49 510.74 168.6 507.86C164.93 506.33 161.86 503.96 158.39 501.2C156.603 499.767 154.547 498.603 152.22 497.71" stroke="#F9F2F4" stroke-width="2"/>
<path d="M141.43 456.26C155.297 452.373 165.76 444.003 172.82 431.15C182.62 413.29 180.98 391.69 170.27 374.77C166.93 369.49 163.563 364.683 160.17 360.35C156.05 355.09 151.197 351.66 145.61 350.06" stroke="#9CA2AF" stroke-width="2"/>
<path d="M163.26 297.54C163.733 297.2 164.607 296.613 165.88 295.78C172.94 291.15 175.67 284.1 173.55 275.72" stroke="#FFCFBA" stroke-width="2"/>
<path d="M381.67 393.62C379.023 398.507 378.113 403.8 378.94 409.5C379.787 415.293 382.3 420.19 386.48 424.19C390.46 427.997 394.54 430.133 398.72 430.6C408.6 431.7 416.747 428.383 423.16 420.65C427.42 415.51 431.087 408.797 434.16 400.51" stroke="#9D756E" stroke-width="2"/>
<path d="M256.74 256.09C256.087 258.717 255.334 261.3 254.48 263.84C252.85 268.67 248.21 271.69 243.16 270.38C238.953 269.287 236.817 266.723 236.75 262.69C236.69 259.02 234.42 256.23 230.66 255.6C220.95 253.98 219.25 264.87 222.02 271.54C225.47 279.82 233.21 287.75 242.57 288.3C251.077 288.807 258.194 285.607 263.92 278.7C264.487 278.02 264.907 277.27 265.18 276.45C265.217 276.336 265.285 276.234 265.377 276.157C265.469 276.08 265.581 276.03 265.7 276.013C265.819 275.997 265.94 276.014 266.05 276.063C266.159 276.112 266.253 276.19 266.32 276.29C270.99 283.25 277.45 288.4 286.27 288.16C297.09 287.86 305.99 280.77 309.57 270.71C310.49 268.117 310.74 265.57 310.32 263.07C309.5 258.21 305.49 254.83 300.5 255.92C297.433 256.587 295.747 258.62 295.44 262.02C294.79 269.32 286.92 273.19 280.79 268.86C276.65 265.92 275.87 261.07 274.79 256.24C274.703 255.853 274.837 255.57 275.19 255.39C276.27 254.81 277.39 254.64 277.95 253.38C279.47 249.92 279.653 246.973 278.5 244.54C276.287 239.867 272.42 237.287 266.9 236.8C259.18 236.11 249.79 242.29 251.85 251.02C252.39 253.333 253.817 254.703 256.13 255.13C256.234 255.15 256.333 255.191 256.42 255.25C256.508 255.31 256.582 255.387 256.639 255.477C256.696 255.566 256.735 255.667 256.752 255.772C256.769 255.878 256.765 255.986 256.74 256.09Z" stroke="#9CA2AF" stroke-width="2"/>
<path d="M421.4 601.25C416.107 608.85 409.56 614.947 401.76 619.54C377.51 633.83 346.53 627.11 329.5 604.45C327.78 602.15 326.11 599.777 324.49 597.33C324.269 596.998 323.968 596.725 323.614 596.537C323.26 596.349 322.863 596.25 322.46 596.25L207.79 596.58C207.578 596.58 207.37 596.633 207.185 596.735C206.999 596.836 206.843 596.982 206.73 597.16C203.4 602.33 199.85 607.72 195.36 611.83C184.413 621.857 171.41 626.903 156.35 626.97C139.92 627.05 124.24 619.01 113.67 606.49C104.21 594.24 98.3201 580.47 99.0001 564.6C99.0335 563.787 98.7468 563.103 98.1401 562.55C96.3068 560.877 94.4534 559.22 92.5801 557.58C78.4668 545.22 67.2601 530.96 58.9601 514.8C44.4535 486.567 37.6001 457.48 38.4001 427.54C39.1868 398.127 40.8934 371.037 43.5201 346.27C46.1934 321.09 50.4835 295.737 56.3901 270.21C61.0001 250.28 66.2601 231.01 73.8701 213.58C76.3968 207.8 79.4068 201.433 82.9001 194.48C83.0735 194.14 83.0935 193.79 82.9601 193.43C81.3535 189.137 80.3068 184.68 79.8201 180.06C77.1735 155.02 77.7835 130.34 81.6501 106.02C83.2201 96.19 85.2601 85.85 90.4101 77.63C99.6301 62.94 113.84 62.55 129.24 65.49C155.01 70.41 179.62 80.56 202.18 93.9C202.382 94.0199 202.607 94.0969 202.841 94.1261C203.075 94.1553 203.313 94.1363 203.54 94.07C211.533 91.7967 219.64 89.9367 227.86 88.49C253.793 83.9167 279.567 84.0433 305.18 88.87C312.96 90.34 320.53 91.97 327.71 94.54C327.968 94.6356 328.246 94.6664 328.52 94.6298C328.794 94.5932 329.055 94.4903 329.28 94.33C331.907 92.4433 334.553 90.7567 337.22 89.27C347.41 83.62 358.1 78.33 369.09 74.56C381.55 70.2933 393.657 67.08 405.41 64.92C422.93 61.7 437.59 67.92 444.15 85.51C447.517 94.53 449.91 105.24 451.33 117.64C453.483 136.393 453.463 156.067 451.27 176.66C450.657 182.427 449.643 188.047 448.23 193.52C448.094 194.056 448.151 194.623 448.39 195.12C452.15 202.92 456.15 210.79 459.41 218.87C463.303 228.557 466.737 239.017 469.71 250.25C476.963 277.697 482.003 302.657 484.83 325.13C485.63 331.537 487.01 344.173 488.97 363.04C491.07 383.22 492.1 404 492.66 423.83C493.067 438.417 491.657 453.837 488.43 470.09C484.797 488.357 477.743 506.233 467.27 523.72C462.823 531.153 457.553 538.307 451.46 545.18C446 551.35 439.33 556.67 433.19 562.32C432.886 562.599 432.64 562.935 432.467 563.309C432.293 563.683 432.196 564.088 432.18 564.5C431.61 578.07 429.03 589.53 421.4 601.25ZM377.18 118.08C381.247 121.087 385.293 124.047 389.32 126.96C402.98 136.853 415.153 148.3 425.84 161.3C426.06 161.573 426.163 161.533 426.15 161.18L424.65 118.28C424.01 112.9 423.163 107.553 422.11 102.24C420.86 95.9 417.99 89.48 410.16 90.63C404.607 91.4433 398.85 92.87 392.89 94.91C381.257 98.89 370.853 103.17 361.68 107.75C361.59 107.796 361.514 107.866 361.461 107.953C361.408 108.039 361.38 108.139 361.38 108.24C361.38 108.341 361.408 108.441 361.461 108.527C361.514 108.614 361.59 108.684 361.68 108.73C367.053 111.39 372.22 114.507 377.18 118.08ZM106.13 120.46L104.68 160.86C104.627 162.447 105.057 162.593 105.97 161.3C108.703 157.44 111.68 153.837 114.9 150.49C122.953 142.123 132.007 134.153 142.06 126.58C146.16 123.493 150.177 120.523 154.11 117.67L168.32 108.93C168.422 108.868 168.505 108.782 168.564 108.679C168.622 108.575 168.652 108.459 168.652 108.34C168.652 108.221 168.622 108.105 168.564 108.001C168.505 107.898 168.422 107.811 168.32 107.75C156.66 100.84 143.88 96.41 130.76 92.76C127.12 91.7467 123.577 91.0733 120.13 90.74C112.98 90.05 109.83 95.41 108.73 101.5C107.597 107.78 106.73 114.1 106.13 120.46ZM101.4 217.74C98.7735 223.52 96.2168 230.027 93.7301 237.26C89.2768 250.2 85.6701 263.093 82.9101 275.94C75.0801 312.32 69.7201 349.19 67.2601 386.33C66.5401 397.16 66.5001 408.77 66.3001 420.04C65.8601 430.86 66.0901 441.097 66.9901 450.75C69.8434 481.37 81.8201 508 102.92 530.64C108.45 536.58 115.11 540.88 120.47 546.78C124.063 550.74 125.74 555.017 125.5 559.61C124.67 575.56 128.55 589 143.36 597.37C150.42 601.36 159.82 601.8 167.11 599.09C173.51 596.71 178.277 592.567 181.41 586.66C182.57 584.46 183.19 582.07 183.9 579.71C185.92 572.93 190.85 568.64 198.3 568.7C232.647 568.953 277.413 568.99 332.6 568.81C341.52 568.78 345.75 573.66 347.97 581.4C350.197 589.18 354.927 594.733 362.16 598.06C375.5 604.19 390.45 599.87 398.58 587.43C402.32 581.723 404.417 575.457 404.87 568.63C405.5 559.18 404.66 551.81 412.75 544.76C417.81 540.347 422.657 535.897 427.29 531.41C433.01 525.87 438.353 519.203 443.32 511.41C446.02 507.17 449.073 501.49 452.48 494.37C460.41 477.82 464.28 460.35 465.16 441.75C465.54 433.87 465.507 427.083 465.06 421.39C465.16 397.83 463.37 377.64 460.69 353.94C459.39 342.527 458.63 335.897 458.41 334.05C455.21 307.89 450.097 282.097 443.07 256.67C439.943 245.37 436.737 235.323 433.45 226.53C432.757 224.663 431.657 222.307 430.15 219.46C418.637 192.853 401.553 170.637 378.9 152.81C372.68 147.91 366.547 143.423 360.5 139.35C346.04 129.6 328.57 122.38 311.5 117.47C302.367 114.85 292.807 113.123 282.82 112.29C268.05 111.05 252.62 111.2 238.24 113.77C227.227 115.737 217.113 118.19 207.9 121.13C195.867 124.977 184.23 130.433 172.99 137.5C154.923 148.867 139.06 162.757 125.4 179.17C118.28 187.72 113.09 196.86 107.44 205.99C106.007 208.303 103.993 212.22 101.4 217.74Z" fill="#3A4863"/>
<path d="M424.65 118.28C424.217 119.627 423.577 119.763 422.73 118.69C422.58 118.507 422.486 118.285 422.46 118.05C421.61 111.89 413.75 108.69 408.36 108.44C402.633 108.18 396.933 109.133 391.26 111.3C386.02 113.307 381.327 115.567 377.18 118.08C372.22 114.507 367.053 111.39 361.68 108.73C361.59 108.684 361.514 108.614 361.461 108.527C361.408 108.441 361.38 108.341 361.38 108.24C361.38 108.139 361.408 108.039 361.461 107.953C361.514 107.866 361.59 107.796 361.68 107.75C370.853 103.17 381.257 98.8899 392.89 94.9099C398.85 92.8699 404.607 91.4433 410.16 90.63C417.99 89.48 420.86 95.8999 422.11 102.24C423.163 107.553 424.01 112.9 424.65 118.28Z" fill="#FFD2B4"/>
<path d="M154.11 117.67C148.63 114.077 142.68 111.41 136.26 109.67C132.92 108.763 129.203 108.387 125.11 108.54C118.49 108.787 113.073 111.457 108.86 116.55C107.71 117.93 107.72 119.87 106.87 121.49C106.65 121.903 106.447 121.897 106.26 121.47C106.147 121.197 106.103 120.86 106.13 120.46C106.73 114.1 107.597 107.78 108.73 101.5C109.83 95.41 112.98 90.05 120.13 90.74C123.577 91.0733 127.12 91.7466 130.76 92.76C143.88 96.41 156.66 100.84 168.32 107.75C168.421 107.811 168.505 107.898 168.563 108.001C168.622 108.105 168.652 108.221 168.652 108.34C168.652 108.459 168.622 108.575 168.563 108.679C168.505 108.782 168.421 108.868 168.32 108.93L154.11 117.67Z" fill="#FFD2B4"/>
<path d="M154.11 117.67C150.177 120.523 146.16 123.493 142.06 126.58C132.007 134.153 122.953 142.123 114.9 150.49C111.68 153.837 108.703 157.44 105.97 161.3C105.057 162.593 104.627 162.447 104.68 160.86L106.13 120.46C106.103 120.86 106.147 121.197 106.26 121.47C106.447 121.897 106.65 121.903 106.87 121.49C107.72 119.87 107.71 117.93 108.86 116.55C113.073 111.457 118.49 108.787 125.11 108.54C129.203 108.387 132.92 108.763 136.26 109.67C142.68 111.41 148.63 114.077 154.11 117.67Z" fill="#FFA279"/>
<path d="M424.65 118.28L426.15 161.18C426.163 161.533 426.06 161.573 425.84 161.3C415.153 148.3 402.98 136.853 389.32 126.96C385.293 124.047 381.247 121.087 377.18 118.08C381.327 115.567 386.02 113.307 391.26 111.3C396.933 109.133 402.633 108.18 408.36 108.44C413.75 108.69 421.61 111.89 422.46 118.05C422.486 118.285 422.58 118.507 422.73 118.69C423.577 119.763 424.217 119.627 424.65 118.28Z" fill="#FFA279"/>
<path d="M430.15 219.46C428.73 219.153 427.473 217.92 426.38 215.76C425.267 213.567 424.417 212.087 423.83 211.32C419.203 205.193 414.13 199.263 408.61 193.53C396.997 181.477 385.43 171.203 373.91 162.71C369.98 159.81 365.73 157.59 361.72 154.81C358.96 152.883 355.877 151.02 352.47 149.22C344.177 144.853 336.5 141.403 329.44 138.87C319.48 135.297 310.567 132.66 302.7 130.96C280.26 126.1 257.777 125.807 235.25 130.08C216.643 133.607 198.27 139.823 180.13 148.73C173.643 151.917 167.83 155.25 162.69 158.73C150.51 166.963 140.093 175.293 131.44 183.72C124.04 190.93 117.3 199.01 110.22 206.71C107.32 209.863 104.98 213.32 103.2 217.08C103.1 217.3 102.733 217.66 102.1 218.16C102 218.233 101.893 218.273 101.78 218.28C101.703 218.282 101.628 218.259 101.568 218.213C101.508 218.167 101.466 218.103 101.45 218.03C101.43 217.937 101.413 217.84 101.4 217.74C103.993 212.22 106.007 208.303 107.44 205.99C113.09 196.86 118.28 187.72 125.4 179.17C139.06 162.757 154.923 148.867 172.99 137.5C184.23 130.433 195.867 124.977 207.9 121.13C217.113 118.19 227.227 115.737 238.24 113.77C252.62 111.2 268.05 111.05 282.82 112.29C292.807 113.123 302.367 114.85 311.5 117.47C328.57 122.38 346.04 129.6 360.5 139.35C366.547 143.423 372.68 147.91 378.9 152.81C401.553 170.637 418.637 192.853 430.15 219.46Z" fill="#FEFCFB"/>
<path d="M430.15 219.46C431.657 222.307 432.757 224.663 433.45 226.53C436.737 235.323 439.943 245.37 443.07 256.67C450.097 282.097 455.21 307.89 458.41 334.05C458.63 335.897 459.39 342.527 460.69 353.94C463.37 377.64 465.16 397.83 465.06 421.39C464.02 422.99 463.203 424.683 462.61 426.47C459.537 435.677 455.487 444.243 450.46 452.17C444.76 461.17 437.13 469.58 429.49 477.21C423.123 483.563 416.27 488.93 408.93 493.31C399.843 498.723 392.117 502.533 385.75 504.74C384.123 505.307 380.36 506.38 374.46 507.96C376.073 505.06 377.04 503.16 377.36 502.26C377.553 501.727 377.5 500.477 377.2 498.51C380.727 495.343 383.317 490.587 384.97 484.24C387.13 475.96 388.287 468.217 388.44 461.01C388.46 460.057 388.613 459.24 388.9 458.56C389.207 457.82 389.577 457.06 390.01 456.28C409.857 460.02 426.717 455.22 440.59 441.88C450.19 432.64 455.11 420.59 460.32 408.49C462.847 402.603 462.363 397.16 458.87 392.16C455.963 388.013 452.297 386.16 447.87 386.6C439.48 387.43 437.13 393.95 434.16 400.51C431.32 402.537 429.493 404.093 428.68 405.18C425.607 409.293 423.057 412.167 421.03 413.8C415.123 418.567 408.437 420.857 400.97 420.67C393.24 420.48 387.6 415.15 384.39 408.53C383.457 406.61 382.813 404.17 382.46 401.21C382.16 398.723 381.897 396.193 381.67 393.62C382.963 390.687 384.283 388.183 385.63 386.11C387.283 383.57 391.53 377.42 398.37 367.66C400.59 364.493 401.237 361.427 400.31 358.46C398.283 351.953 393.543 349.207 386.09 350.22C385.19 345.21 385.1 339.76 384.16 335.31C383.153 330.53 381.873 325.827 380.32 321.2C377.58 313.027 373.367 305.27 367.68 297.93C370.213 297.757 372.487 297.617 374.5 297.51C381.08 297.157 385.757 294.197 388.53 288.63C390.983 283.703 391.087 278.883 388.84 274.17C385.447 267.063 380.127 263.56 372.88 263.66C369.673 263.707 367.063 264.363 365.05 265.63C361.04 268.16 359.15 271.85 357.08 275.91L339.49 258.24C349.74 258.82 358.2 253.74 362.07 244.28C364.683 237.88 364.087 231.627 360.28 225.52C356.72 219.82 350.51 215.79 343.72 215.54C330.93 215.08 322.04 224.64 322.26 237.24C321.993 236.747 321.463 236.64 320.67 236.92C320.512 236.978 320.342 236.997 320.175 236.974C320.008 236.952 319.848 236.888 319.71 236.79C304.57 225.98 285.82 221.04 267.4 221.1C254.57 221.14 242.05 222.19 229.99 227C227.823 227.86 224.4 229.547 219.72 232.06C216.413 233.833 213.02 235.583 209.54 237.31C209.253 230.863 207.437 225.81 204.09 222.15C191.69 208.58 169.44 216.22 167.61 234.54C166.5 245.65 173.77 254.49 183.94 257.91C184.987 258.257 187.407 258.39 191.2 258.31L173.55 275.72C169.89 268.53 166.03 263.28 157.08 263.53C149.787 263.737 144.663 267.01 141.71 273.35C138.89 279.41 139.43 286.13 143.52 291.45C147.993 297.263 154.573 299.293 163.26 297.54C157.053 305.647 152.647 313.55 150.04 321.25C146.96 330.337 145.483 339.94 145.61 350.06C140.703 349.753 136.82 350.94 133.96 353.62C129.86 357.46 129.15 362.91 132.53 367.5C137.223 373.867 141.677 380.313 145.89 386.84C147.39 389.16 148.657 391.377 149.69 393.49C149.17 397.15 148.687 400.7 148.24 404.14C148.013 405.9 147.573 407.447 146.92 408.78C144.01 414.67 139.9 418.99 133.31 420.33C127.777 421.463 122.417 420.713 117.23 418.08C108.92 413.86 104.69 408.54 98.9101 402.15C98.8379 402.071 98.7487 402.009 98.6487 401.968C98.5486 401.926 98.4399 401.907 98.33 401.91C98.0167 401.93 97.7867 401.793 97.6401 401.5C97.7001 401.04 97.44 400.803 96.86 400.79C95.4 397.33 93.8034 394.38 92.0701 391.94C86.9401 384.75 76.9801 384.69 71.9801 391.99C68.3334 397.33 68.0934 403.45 71.2601 410.35C75.5401 419.68 79.7901 428.22 86.1501 436.47C99.2201 453.46 120.4 461.3 141.43 456.26C141.73 469.38 144.65 481.763 150.19 493.41C150.93 494.963 151.607 496.397 152.22 497.71L155.77 507.45C144.37 504.157 135.09 500.613 127.93 496.82C105.81 485.1 88.96 465.65 76.36 443.86C72.99 438.03 71.1001 431.53 68.6301 425.1C67.9501 423.34 66.94 421.81 66.3 420.04C66.5 408.77 66.5401 397.16 67.2601 386.33C69.7201 349.19 75.0801 312.32 82.9101 275.94C85.6701 263.093 89.2767 250.2 93.7301 237.26C96.2167 230.027 98.7734 223.52 101.4 217.74C101.413 217.84 101.43 217.937 101.45 218.03C101.466 218.103 101.508 218.167 101.568 218.213C101.628 218.259 101.703 218.282 101.78 218.28C101.893 218.273 102 218.233 102.1 218.16C102.733 217.66 103.1 217.3 103.2 217.08C104.98 213.32 107.32 209.863 110.22 206.71C117.3 199.01 124.04 190.93 131.44 183.72C140.093 175.293 150.51 166.963 162.69 158.73C167.83 155.25 173.643 151.917 180.13 148.73C198.27 139.823 216.643 133.607 235.25 130.08C257.777 125.807 280.26 126.1 302.7 130.96C310.567 132.66 319.48 135.297 329.44 138.87C336.5 141.403 344.177 144.853 352.47 149.22C355.877 151.02 358.96 152.883 361.72 154.81C365.73 157.59 369.98 159.81 373.91 162.71C385.43 171.203 396.997 181.477 408.61 193.53C414.13 199.263 419.203 205.193 423.83 211.32C424.417 212.087 425.267 213.567 426.38 215.76C427.473 217.92 428.73 219.153 430.15 219.46Z" fill="#FFD2B4"/>
<path d="M209.54 237.31C209.273 242.33 207.263 246.973 203.51 251.24C200.17 255.033 196.067 257.39 191.2 258.31C187.407 258.39 184.987 258.257 183.94 257.91C173.77 254.49 166.5 245.65 167.61 234.54C169.44 216.22 191.69 208.58 204.09 222.15C207.437 225.81 209.253 230.863 209.54 237.31Z" fill="#3A4863"/>
<path d="M339.49 258.24C329.91 256.07 321.74 247.57 322.26 237.24C322.04 224.64 330.93 215.08 343.72 215.54C350.51 215.79 356.72 219.82 360.28 225.52C364.087 231.627 364.683 237.88 362.07 244.28C358.2 253.74 349.74 258.82 339.49 258.24Z" fill="#3A4863"/>
<path d="M322.26 237.24C321.74 247.57 329.91 256.07 339.49 258.24L357.08 275.91C355.4 285.963 358.933 293.303 367.68 297.93C373.367 305.27 377.58 313.027 380.32 321.2C381.873 325.827 383.153 330.53 384.16 335.31C385.1 339.76 385.19 345.21 386.09 350.22C379.58 351.17 375.08 355.58 371.22 360.46C368.727 363.62 366.28 366.823 363.88 370.07C352.14 385.98 347.97 405.86 355.45 424.7C360.017 436.213 367.877 445.297 379.03 451.95C380.977 453.117 384.637 454.56 390.01 456.28C389.577 457.06 389.207 457.82 388.9 458.56C388.613 459.24 388.46 460.057 388.44 461.01C388.287 468.217 387.13 475.96 384.97 484.24C383.317 490.587 380.727 495.343 377.2 498.51C368.387 504.803 360.737 509.06 354.25 511.28C347.483 513.6 340.57 515.903 333.51 518.19C328.97 519.663 323.33 520.59 316.59 520.97C311.537 521.263 305.87 521.433 299.59 521.48C274.563 521.66 249.283 521.653 223.75 521.46C217.203 521.413 210.687 520.84 204.2 519.74C199.17 518.89 194.49 517.03 189.63 515.68C182.39 513.67 175.49 510.74 168.6 507.86C164.93 506.33 161.86 503.96 158.39 501.2C156.603 499.767 154.547 498.603 152.22 497.71C151.607 496.397 150.93 494.963 150.19 493.41C144.65 481.763 141.73 469.38 141.43 456.26C155.297 452.373 165.76 444.003 172.82 431.15C182.62 413.29 180.98 391.69 170.27 374.77C166.93 369.49 163.563 364.683 160.17 360.35C156.05 355.09 151.197 351.66 145.61 350.06C145.483 339.94 146.96 330.337 150.04 321.25C152.647 313.55 157.053 305.647 163.26 297.54C163.733 297.2 164.607 296.613 165.88 295.78C172.94 291.15 175.67 284.1 173.55 275.72L191.2 258.31C196.067 257.39 200.17 255.033 203.51 251.24C207.263 246.973 209.273 242.33 209.54 237.31C213.02 235.583 216.413 233.833 219.72 232.06C224.4 229.547 227.823 227.86 229.99 227C242.05 222.19 254.57 221.14 267.4 221.1C285.82 221.04 304.57 225.98 319.71 236.79C319.848 236.888 320.008 236.952 320.175 236.974C320.342 236.997 320.512 236.978 320.67 236.92C321.463 236.64 321.993 236.747 322.26 237.24ZM256.74 256.09C256.087 258.717 255.333 261.3 254.48 263.84C252.85 268.67 248.21 271.69 243.16 270.38C238.953 269.287 236.817 266.723 236.75 262.69C236.69 259.02 234.42 256.23 230.66 255.6C220.95 253.98 219.25 264.87 222.02 271.54C225.47 279.82 233.21 287.75 242.57 288.3C251.077 288.807 258.193 285.607 263.92 278.7C264.487 278.02 264.907 277.27 265.18 276.45C265.217 276.336 265.285 276.234 265.377 276.157C265.469 276.08 265.581 276.03 265.7 276.013C265.819 275.997 265.94 276.014 266.05 276.063C266.159 276.112 266.253 276.19 266.32 276.29C270.99 283.25 277.45 288.4 286.27 288.16C297.09 287.86 305.99 280.77 309.57 270.71C310.49 268.117 310.74 265.57 310.32 263.07C309.5 258.21 305.49 254.83 300.5 255.92C297.433 256.587 295.747 258.62 295.44 262.02C294.79 269.32 286.92 273.19 280.79 268.86C276.65 265.92 275.87 261.07 274.79 256.24C274.703 255.853 274.837 255.57 275.19 255.39C276.27 254.81 277.39 254.64 277.95 253.38C279.47 249.92 279.653 246.973 278.5 244.54C276.287 239.867 272.42 237.287 266.9 236.8C259.18 236.11 249.79 242.29 251.85 251.02C252.39 253.333 253.817 254.703 256.13 255.13C256.234 255.15 256.332 255.191 256.42 255.25C256.508 255.31 256.582 255.387 256.639 255.477C256.696 255.566 256.734 255.667 256.752 255.773C256.769 255.878 256.765 255.986 256.74 256.09Z" fill="#FEFCFB"/>
<path d="M256.13 255.13C253.817 254.703 252.39 253.333 251.85 251.02C249.79 242.29 259.18 236.11 266.9 236.8C272.42 237.287 276.287 239.867 278.5 244.54C279.653 246.973 279.47 249.92 277.95 253.38C277.39 254.64 276.27 254.81 275.19 255.39C274.837 255.57 274.703 255.853 274.79 256.24C275.87 261.07 276.65 265.92 280.79 268.86C286.92 273.19 294.79 269.32 295.44 262.02C295.747 258.62 297.433 256.587 300.5 255.92C305.49 254.83 309.5 258.21 310.32 263.07C310.74 265.57 310.49 268.117 309.57 270.71C305.99 280.77 297.09 287.86 286.27 288.16C277.45 288.4 270.99 283.25 266.32 276.29C266.253 276.19 266.159 276.112 266.05 276.063C265.94 276.014 265.819 275.997 265.7 276.013C265.581 276.03 265.469 276.08 265.377 276.157C265.285 276.234 265.217 276.336 265.18 276.45C264.907 277.27 264.487 278.02 263.92 278.7C258.193 285.607 251.077 288.807 242.57 288.3C233.21 287.75 225.47 279.82 222.02 271.54C219.25 264.87 220.95 253.98 230.66 255.6C234.42 256.23 236.69 259.02 236.75 262.69C236.817 266.723 238.953 269.287 243.16 270.38C248.21 271.69 252.85 268.67 254.48 263.84C255.333 261.3 256.087 258.717 256.74 256.09C256.765 255.986 256.769 255.878 256.752 255.772C256.735 255.667 256.696 255.566 256.639 255.477C256.582 255.387 256.508 255.31 256.42 255.25C256.333 255.191 256.234 255.15 256.13 255.13Z" fill="#3A4863"/>
<path d="M173.55 275.72C175.67 284.1 172.94 291.15 165.88 295.78C164.607 296.613 163.733 297.2 163.26 297.54C154.573 299.293 147.993 297.263 143.52 291.45C139.43 286.13 138.89 279.41 141.71 273.35C144.663 267.01 149.787 263.737 157.08 263.53C166.03 263.28 169.89 268.53 173.55 275.72Z" fill="#FFA279"/>
<path d="M367.68 297.93C358.933 293.303 355.4 285.963 357.08 275.91C359.15 271.85 361.04 268.16 365.05 265.63C367.063 264.363 369.673 263.707 372.88 263.66C380.127 263.56 385.447 267.063 388.84 274.17C391.087 278.883 390.983 283.703 388.53 288.63C385.757 294.197 381.08 297.157 374.5 297.51C372.487 297.617 370.213 297.757 367.68 297.93Z" fill="#FFA279"/>
<path d="M145.61 350.06C151.197 351.66 156.05 355.09 160.17 360.35C163.563 364.683 166.93 369.49 170.27 374.77C180.98 391.69 182.62 413.29 172.82 431.15C165.76 444.003 155.297 452.373 141.43 456.26C120.4 461.3 99.2199 453.46 86.1499 436.47C79.7899 428.22 75.5399 419.68 71.2599 410.35C68.0933 403.45 68.3333 397.33 71.9799 391.99C76.9799 384.69 86.9399 384.75 92.0699 391.94C93.8033 394.38 95.3999 397.33 96.8599 400.79C98.7399 405.81 101.067 410.593 103.84 415.14C106.887 420.147 111.037 424.207 116.29 427.32C126.69 433.48 139.8 431.13 146.95 421.72C153.45 413.167 154.363 403.757 149.69 393.49C148.657 391.377 147.39 389.16 145.89 386.84C141.677 380.313 137.223 373.867 132.53 367.5C129.15 362.91 129.86 357.46 133.96 353.62C136.82 350.94 140.703 349.753 145.61 350.06Z" fill="#3A4863"/>
<path d="M381.67 393.62C379.023 398.507 378.113 403.8 378.94 409.5C379.787 415.293 382.3 420.19 386.48 424.19C390.46 427.997 394.54 430.133 398.72 430.6C408.6 431.7 416.747 428.383 423.16 420.65C427.42 415.51 431.087 408.797 434.16 400.51C437.13 393.95 439.48 387.43 447.87 386.6C452.297 386.16 455.963 388.013 458.87 392.16C462.363 397.16 462.847 402.603 460.32 408.49C455.11 420.59 450.19 432.64 440.59 441.88C426.717 455.22 409.857 460.02 390.01 456.28C384.637 454.56 380.977 453.117 379.03 451.95C367.877 445.297 360.017 436.213 355.45 424.7C347.97 405.86 352.14 385.98 363.88 370.07C366.28 366.823 368.727 363.62 371.22 360.46C375.08 355.58 379.58 351.17 386.09 350.22C393.543 349.207 398.283 351.953 400.31 358.46C401.237 361.427 400.59 364.493 398.37 367.66C391.53 377.42 387.283 383.57 385.63 386.11C384.283 388.183 382.963 390.687 381.67 393.62Z" fill="#3A4863"/>
<path d="M149.69 393.49C154.363 403.757 153.45 413.167 146.95 421.72C139.8 431.13 126.69 433.48 116.29 427.32C111.037 424.207 106.887 420.147 103.84 415.14C101.067 410.593 98.7399 405.81 96.8599 400.79C97.4399 400.803 97.6999 401.04 97.6399 401.5C97.7866 401.793 98.0165 401.93 98.3299 401.91C98.4397 401.907 98.5484 401.927 98.6485 401.968C98.7485 402.009 98.8377 402.071 98.9099 402.15C104.69 408.54 108.92 413.86 117.23 418.08C122.417 420.713 127.777 421.463 133.31 420.33C139.9 418.99 144.01 414.67 146.92 408.78C147.573 407.447 148.013 405.9 148.24 404.14C148.687 400.7 149.17 397.15 149.69 393.49Z" fill="#FFA279"/>
<path d="M381.67 393.62C381.897 396.193 382.16 398.723 382.46 401.21C382.814 404.17 383.457 406.61 384.39 408.53C387.6 415.15 393.24 420.48 400.97 420.67C408.437 420.857 415.124 418.567 421.03 413.8C423.057 412.167 425.607 409.293 428.68 405.18C429.493 404.093 431.32 402.537 434.16 400.51C431.087 408.797 427.42 415.51 423.16 420.65C416.747 428.383 408.6 431.7 398.72 430.6C394.54 430.133 390.46 427.997 386.48 424.19C382.3 420.19 379.787 415.293 378.94 409.5C378.113 403.8 379.023 398.507 381.67 393.62Z" fill="#FFA279"/>
<path d="M66.3 420.04C66.94 421.81 67.95 423.34 68.63 425.1C71.1 431.53 72.99 438.03 76.36 443.86C88.96 465.65 105.81 485.1 127.93 496.82C135.09 500.613 144.37 504.157 155.77 507.45C156.103 507.75 156.57 508.193 157.17 508.78C157.65 509.24 158.09 509.757 158.49 510.33C170.59 527.6 189.09 540.95 209.9 545.34C214.82 546.38 220.483 546.89 226.89 546.87C254.997 546.77 281.27 546.807 305.71 546.98C309.76 547.01 314.82 546.77 318.57 545.78C330.023 542.733 339.087 539.25 345.76 535.33C356.753 528.87 366.32 519.747 374.46 507.96C380.36 506.38 384.123 505.307 385.75 504.74C392.117 502.533 399.843 498.723 408.93 493.31C416.27 488.93 423.123 483.563 429.49 477.21C437.13 469.58 444.76 461.17 450.46 452.17C455.487 444.243 459.537 435.677 462.61 426.47C463.203 424.683 464.02 422.99 465.06 421.39C465.507 427.083 465.54 433.87 465.16 441.75C464.28 460.35 460.41 477.82 452.48 494.37C449.073 501.49 446.02 507.17 443.32 511.41C438.353 519.203 433.01 525.87 427.29 531.41C422.657 535.897 417.81 540.347 412.75 544.76C404.66 551.81 405.5 559.18 404.87 568.63C404.417 575.457 402.32 581.723 398.58 587.43C390.45 599.87 375.5 604.19 362.16 598.06C354.927 594.733 350.197 589.18 347.97 581.4C345.75 573.66 341.52 568.78 332.6 568.81C277.413 568.99 232.647 568.953 198.3 568.7C190.85 568.64 185.92 572.93 183.9 579.71C183.19 582.07 182.57 584.46 181.41 586.66C178.277 592.567 173.51 596.71 167.11 599.09C159.82 601.8 150.42 601.36 143.36 597.37C128.55 589 124.67 575.56 125.5 559.61C125.74 555.017 124.063 550.74 120.47 546.78C115.11 540.88 108.45 536.58 102.92 530.64C81.82 508 69.8433 481.37 66.99 450.75C66.09 441.097 65.86 430.86 66.3 420.04Z" fill="#FFA279"/>
<path d="M152.22 497.71C154.547 498.603 156.603 499.767 158.39 501.2C161.86 503.96 164.93 506.33 168.6 507.86C175.49 510.74 182.39 513.67 189.63 515.68C194.49 517.03 199.17 518.89 204.2 519.74C210.687 520.84 217.203 521.413 223.75 521.46C249.283 521.653 274.563 521.66 299.59 521.48C305.87 521.433 311.537 521.263 316.59 520.97C323.33 520.59 328.97 519.663 333.51 518.19C340.57 515.903 347.483 513.6 354.25 511.28C360.737 509.06 368.387 504.803 377.2 498.51C377.5 500.477 377.553 501.727 377.36 502.26C377.04 503.16 376.073 505.06 374.46 507.96C366.32 519.747 356.753 528.87 345.76 535.33C339.087 539.25 330.023 542.733 318.57 545.78C314.82 546.77 309.76 547.01 305.71 546.98C281.27 546.807 254.997 546.77 226.89 546.87C220.483 546.89 214.82 546.38 209.9 545.34C189.09 540.95 170.59 527.6 158.49 510.33C158.09 509.757 157.65 509.24 157.17 508.78C156.57 508.193 156.103 507.75 155.77 507.45L152.22 497.71Z" fill="#E3DEB5"/>
</g>
<defs>
<clipPath id="clip0_501_2">
<rect width="530" height="530" rx="265" fill="white"/>
</clipPath>
</defs>
</svg>
