<svg width="40" height="40" viewBox="0 0 40 40" fill="none" xmlns="http://www.w3.org/2000/svg">
<path opacity="0.3" d="M20 40C31.0457 40 40 31.0457 40 20C40 8.9543 31.0457 0 20 0C8.9543 0 0 8.9543 0 20C0 31.0457 8.9543 40 20 40Z" fill="#3755BE"/>
<path d="M26.5898 15.8567C26.1166 15.354 26.1406 14.5629 26.6433 14.0898C27.146 13.6166 27.9371 13.6406 28.4103 14.1433L33.4103 19.4558C33.8633 19.9371 33.8633 20.6879 33.4103 21.1692L28.4103 26.4817C27.9371 26.9844 27.146 27.0084 26.6433 26.5353C26.1406 26.0621 26.1166 25.271 26.5898 24.7683L30.7834 20.3125L26.5898 15.8567ZM13.4102 15.8567L9.21656 20.3125L13.4102 24.7683C13.8834 25.271 13.8594 26.0621 13.3567 26.5353C12.854 27.0084 12.0629 26.9844 11.5898 26.4817L6.58975 21.1692C6.13675 20.6879 6.13675 19.9371 6.58975 19.4558L11.5898 14.1433C12.0629 13.6406 12.854 13.6166 13.3567 14.0898C13.8594 14.5629 13.8834 15.354 13.4102 15.8567Z" fill="#3755BE"/>
<path opacity="0.3" d="M23.4722 11.8718C23.6508 11.205 23.2551 10.5195 22.5883 10.3409C21.9214 10.1622 21.236 10.5579 21.0573 11.2247L16.528 28.1284C16.3493 28.7953 16.7451 29.4807 17.4119 29.6594C18.0787 29.8381 18.7641 29.4423 18.9428 28.7755L23.4722 11.8718Z" fill="#3755BE"/>
</svg>
