<svg width="48" height="48" viewBox="0 0 48 48" fill="none" xmlns="http://www.w3.org/2000/svg">
<path fill-rule="evenodd" clip-rule="evenodd" d="M32.7482 39.8779L44.4454 22.332C44.9049 21.6428 44.7187 20.7115 44.0294 20.2519C43.783 20.0877 43.4935 20 43.1973 20H34.0001V8.95416C34.0001 8.12574 33.3285 7.45416 32.5001 7.45416C31.9986 7.45416 31.5302 7.70481 31.252 8.12211L19.5548 25.6679C19.0953 26.3572 19.2816 27.2885 19.9708 27.7481C20.2172 27.9123 20.5068 28 20.8029 28H30.0001V39.0458C30.0001 39.8743 30.6717 40.5458 31.5001 40.5458C32.0016 40.5458 32.47 40.2952 32.7482 39.8779Z" fill="#3755BE"/>
<path opacity="0.3" fill-rule="evenodd" clip-rule="evenodd" d="M9 10H19C20.6569 10 22 11.3431 22 13C22 14.6569 20.6569 16 19 16H9C7.34315 16 6 14.6569 6 13C6 11.3431 7.34315 10 9 10ZM9 34H19C20.6569 34 22 35.3431 22 37C22 38.6569 20.6569 40 19 40H9C7.34315 40 6 38.6569 6 37C6 35.3431 7.34315 34 9 34ZM5 22H13C14.6569 22 16 23.3431 16 25C16 26.6569 14.6569 28 13 28H5C3.34315 28 2 26.6569 2 25C2 23.3431 3.34315 22 5 22Z" fill="#3755BE"/>
</svg>
