<svg width="66" height="66" viewBox="0 0 66 66" fill="none" xmlns="http://www.w3.org/2000/svg">
<circle cx="33" cy="33" r="33" fill="#D3DCF9"/>
<g clip-path="url(#clip0_1176_690)">
<path d="M31.8491 14.7563C22.5303 14.7563 23.1196 18.7856 23.1196 18.7856V22.9725H31.9816V24.285H19.5903C19.5903 24.285 13.625 23.55 13.625 33.0066C13.625 42.4631 18.8921 42.0786 18.8921 42.0786H21.9331V37.6673C21.9331 37.6673 21.7625 32.4002 27.0519 32.4002H35.927C35.927 32.4002 40.8778 32.4789 40.8778 27.6069V19.6125C40.8778 19.6125 41.6285 14.7405 31.8976 14.7405L31.8491 14.7563ZM26.9508 17.5611C27.2659 17.5531 27.5762 17.6388 27.8426 17.8072C28.1089 17.9756 28.3194 18.2193 28.4473 18.5073C28.5752 18.7954 28.6148 19.1148 28.5611 19.4254C28.5074 19.7359 28.3628 20.0236 28.1456 20.252C27.9285 20.4803 27.6484 20.6392 27.341 20.7084C27.0335 20.7776 26.7124 20.7541 26.4184 20.6409C26.1243 20.5276 25.8704 20.3297 25.6888 20.0721C25.5072 19.8145 25.406 19.5089 25.3981 19.1938V19.1676C25.3981 18.745 25.566 18.3397 25.8648 18.0409C26.1636 17.7421 26.5689 17.5742 26.9915 17.5742L26.9508 17.5611Z" fill="#3755BE"/>
<path d="M27.8429 17.8072C27.5765 17.6388 27.2662 17.5531 26.9511 17.5611L26.9918 17.5742C26.5692 17.5742 26.1639 17.7421 25.8651 18.0409C25.5663 18.3397 25.3984 18.745 25.3984 19.1676V19.1938C25.4063 19.5089 25.5075 19.8145 25.6891 20.0721C25.8707 20.3297 26.1246 20.5276 26.4187 20.6409C26.7128 20.7541 27.0338 20.7776 27.3413 20.7084C27.6488 20.6392 27.9288 20.4804 28.146 20.252C28.3631 20.0236 28.5077 19.7359 28.5614 19.4254C28.6151 19.1149 28.5755 18.7954 28.4476 18.5073C28.3197 18.2193 28.1092 17.9757 27.8429 17.8072Z" fill="white"/>
<path d="M33.1115 52.2569C42.4302 52.2569 41.8409 48.2144 41.8409 48.2144V44.0406H32.9803V42.7281H45.4096C45.4096 42.7281 51.3749 43.3949 51.3749 33.9934C51.3749 24.592 46.1079 24.9214 46.1079 24.9214H43.0274V29.275C43.0274 29.275 43.1981 34.5421 37.9087 34.5421H29.0296C29.0296 34.5421 24.0749 34.4672 24.0749 39.3392V47.3875C24.0749 47.3875 23.3242 52.2595 33.0551 52.2595H33.1076L33.1115 52.2569ZM38.0098 49.4389C37.6947 49.4469 37.3844 49.3612 37.118 49.1928C36.8516 49.0244 36.6412 48.7807 36.5133 48.4927C36.3854 48.2046 36.3458 47.8852 36.3995 47.5746C36.4532 47.2641 36.5977 46.9764 36.8149 46.748C37.0321 46.5197 37.3121 46.3608 37.6196 46.2916C37.927 46.2224 38.2481 46.2459 38.5422 46.3591C38.8363 46.4724 39.0902 46.6703 39.2718 46.9279C39.4534 47.1855 39.5546 47.4911 39.5624 47.8062V47.8456C39.5624 48.2681 39.3946 48.6734 39.0958 48.9722C38.7969 49.2711 38.3917 49.4389 37.9691 49.4389H38.0098Z" fill="#FF8E88"/>
<path d="M37.1178 49.1928C37.3842 49.3612 37.6945 49.4469 38.0095 49.4389H37.9689C38.3914 49.4389 38.7967 49.2711 39.0955 48.9722C39.3944 48.6734 39.5622 48.2681 39.5622 47.8456V47.8062C39.5543 47.4911 39.4532 47.1855 39.2716 46.9279C39.09 46.6703 38.8361 46.4724 38.542 46.3591C38.2479 46.2459 37.9268 46.2224 37.6194 46.2916C37.3119 46.3608 37.0319 46.5197 36.8147 46.748C36.5975 46.9764 36.453 47.2641 36.3993 47.5746C36.3456 47.8852 36.3852 48.2046 36.5131 48.4927C36.641 48.7807 36.8514 49.0244 37.1178 49.1928Z" fill="white"/>
</g>
<defs>
<clipPath id="clip0_1176_690">
<rect width="39" height="39" fill="white" transform="translate(13 14)"/>
</clipPath>
</defs>
</svg>
