<svg width="40" height="40" viewBox="0 0 40 40" fill="none" xmlns="http://www.w3.org/2000/svg">
<path opacity="0.3" fill-rule="evenodd" clip-rule="evenodd" d="M3 37H37C38.6569 37 40 35.6569 40 34V12C40 10.3431 38.6569 9 37 9H16L10.8787 3.87868C10.3161 3.31607 9.55301 3 8.75736 3H3C1.34315 3 0 4.34315 0 6V34C0 35.6569 1.34315 37 3 37Z" fill="#3755BE"/>
<g clip-path="url(#clip0_1056_841)">
<path d="M15 28H13.5C13.1022 28 12.7206 27.842 12.4393 27.5607C12.158 27.2794 12 26.8978 12 26.5V21.5C12 21.1022 12.158 20.7206 12.4393 20.4393C12.7206 20.158 13.1022 20 13.5 20H20V19H19V18H18V19H16V17.5C16 17.1022 16.158 16.7206 16.4393 16.4393C16.7206 16.158 17.1022 16 17.5 16H21.5C21.8978 16 22.2794 16.158 22.5607 16.4393C22.842 16.7206 23 17.1022 23 17.5V22.5C23 22.6326 22.9473 22.7598 22.8536 22.8536C22.7598 22.9473 22.6326 23 22.5 23H16.5C16.1022 23 15.7206 23.158 15.4393 23.4393C15.158 23.7206 15 24.1022 15 24.5V28Z" fill="#3755BE"/>
<path d="M24 19V22.5C24 22.8978 23.842 23.2794 23.5607 23.5607C23.2794 23.842 22.8978 24 22.5 24H16.5C16.3674 24 16.2402 24.0527 16.1464 24.1464C16.0527 24.2402 16 24.3674 16 24.5V29.5C16 29.8978 16.158 30.2794 16.4393 30.5607C16.7206 30.842 17.1022 31 17.5 31H21.5C21.8978 31 22.2794 30.842 22.5607 30.5607C22.842 30.2794 23 29.8978 23 29.5V28H21V29H20V28H19V27H25.5C25.8978 27 26.2794 26.842 26.5607 26.5607C26.842 26.2794 27 25.8978 27 25.5V20.5C27 20.1022 26.842 19.7206 26.5607 19.4393C26.2794 19.158 25.8978 19 25.5 19H24Z" fill="#3755BE"/>
</g>
<defs>
<clipPath id="clip0_1056_841">
<rect width="15" height="15" fill="white" transform="translate(12 16)"/>
</clipPath>
</defs>
</svg>
