<svg width="96" height="96" viewBox="0 0 96 96" fill="none" xmlns="http://www.w3.org/2000/svg">
<rect width="96" height="96" rx="48" fill="#E9F5FF"/>
<path d="M47.8491 29.7563C38.5303 29.7563 39.1196 33.7856 39.1196 33.7856V37.9725H47.9816V39.285H35.5903C35.5903 39.285 29.625 38.55 29.625 48.0066C29.625 57.4631 34.8921 57.0786 34.8921 57.0786H37.9331V52.6673C37.9331 52.6673 37.7625 47.4002 43.0519 47.4002H51.927C51.927 47.4002 56.8777 47.4789 56.8777 42.6069V34.6125C56.8777 34.6125 57.6285 29.7405 47.8976 29.7405L47.8491 29.7563ZM42.9508 32.5611C43.2659 32.5531 43.5762 32.6388 43.8426 32.8072C44.1089 32.9756 44.3194 33.2193 44.4473 33.5073C44.5752 33.7954 44.6148 34.1148 44.5611 34.4254C44.5074 34.7359 44.3628 35.0236 44.1456 35.252C43.9285 35.4803 43.6484 35.6392 43.341 35.7084C43.0335 35.7776 42.7124 35.7541 42.4184 35.6409C42.1243 35.5276 41.8704 35.3297 41.6888 35.0721C41.5072 34.8145 41.406 34.5089 41.3981 34.1938V34.1676C41.3981 33.745 41.566 33.3397 41.8648 33.0409C42.1636 32.7421 42.5689 32.5742 42.9915 32.5742L42.9508 32.5611Z" fill="url(#paint0_linear_1033_556)"/>
<path d="M48.1115 66.2569C57.4302 66.2569 56.8409 62.2144 56.8409 62.2144V58.0406H47.9803V56.7281H60.4096C60.4096 56.7281 66.3749 57.3949 66.3749 47.9934C66.3749 38.592 61.1079 38.9214 61.1079 38.9214H58.0274V43.275C58.0274 43.275 58.1981 48.5421 52.9087 48.5421H44.0296C44.0296 48.5421 39.0749 48.4672 39.0749 53.3392V61.3875C39.0749 61.3875 38.3242 66.2595 48.0551 66.2595H48.1076L48.1115 66.2569ZM53.0098 63.4389C52.6947 63.4469 52.3844 63.3612 52.118 63.1928C51.8516 63.0244 51.6412 62.7807 51.5133 62.4927C51.3854 62.2046 51.3458 61.8852 51.3995 61.5746C51.4532 61.2641 51.5977 60.9764 51.8149 60.748C52.0321 60.5197 52.3121 60.3608 52.6196 60.2916C52.927 60.2224 53.2481 60.2459 53.5422 60.3591C53.8363 60.4724 54.0902 60.6703 54.2718 60.9279C54.4534 61.1855 54.5546 61.4911 54.5624 61.8062V61.8455C54.5624 62.2681 54.3946 62.6734 54.0958 62.9722C53.7969 63.2711 53.3917 63.4389 52.9691 63.4389H53.0098Z" fill="url(#paint1_linear_1033_556)"/>
<path d="M81.2945 33.9227C74.9235 19.1385 59.355 10.3255 43.3502 12.5442L42.9595 11.0859C59.7698 8.66929 76.1521 17.9504 82.7575 33.5307L81.2945 33.9227ZM11.0234 52.7518C8.9537 35.9565 18.5003 19.7279 34.2662 13.4153L34.6572 14.8745C19.688 20.9557 10.6118 36.3712 12.4864 52.3598L11.0234 52.7518ZM53.5381 85.339C36.2298 87.8267 19.3729 77.9135 13.1773 61.4921L14.6337 61.1019C20.6029 76.7254 36.6438 86.1671 53.1471 83.8797L53.5381 85.339ZM61.8407 81.5513C77.2773 75.2809 86.4483 59.0826 83.8059 42.5672L85.2623 42.177C88.1076 59.4964 78.4653 76.5102 62.2314 83.0096L61.8407 81.5513Z" fill="#6697BF"/>
<circle cx="63.6646" cy="16.6287" r="6" transform="rotate(165 63.6646 16.6287)" fill="#E9F5FF" stroke="#6697BF" stroke-width="1.5"/>
<circle cx="28.5206" cy="79.621" r="2.25" transform="rotate(165 28.5206 79.621)" fill="#E9F5FF" stroke="#6697BF" stroke-width="1.5"/>
<circle cx="53.0303" cy="11.7136" r="3" transform="rotate(165 53.0303 11.7136)" fill="#E9F5FF" stroke="#6697BF" stroke-width="1.5"/>
<circle cx="19.0888" cy="70.5014" r="3" transform="rotate(165 19.0888 70.5014)" fill="#E9F5FF" stroke="#6697BF" stroke-width="1.5"/>
<circle cx="82.2719" cy="62.8891" r="3" transform="rotate(165 82.2719 62.8891)" fill="#E9F5FF" stroke="#6697BF" stroke-width="1.5"/>
<defs>
<linearGradient id="paint0_linear_1033_556" x1="33.2569" y1="33.3301" x2="50.6956" y2="50.7293" gradientUnits="userSpaceOnUse">
<stop stop-color="#387EB8"/>
<stop offset="1" stop-color="#366994"/>
</linearGradient>
<linearGradient id="paint1_linear_1033_556" x1="43.5735" y1="44.6644" x2="63.4975" y2="62.0584" gradientUnits="userSpaceOnUse">
<stop stop-color="#FFE052"/>
<stop offset="1" stop-color="#FFC331"/>
</linearGradient>
</defs>
</svg>
