<svg width="48" height="48" viewBox="0 0 48 48" fill="none" xmlns="http://www.w3.org/2000/svg">
<path opacity="0.3" fill-rule="evenodd" clip-rule="evenodd" d="M6 4.47493L23.1707 1.25542C23.7188 1.15265 24.2812 1.15265 24.8293 1.25542L42 4.47493V25.3617C42 31.964 38.5988 38.1007 33 41.5999L25.1925 46.4796C24.4629 46.9356 23.5371 46.9356 22.8075 46.4796L15 41.5999C9.40122 38.1007 6 31.964 6 25.3617V4.47493Z" fill="#3755BE"/>
<path fill-rule="evenodd" clip-rule="evenodd" d="M22.1438 28.6625C21.6047 28.6625 21.0657 28.4468 20.6344 28.0156L16.3219 23.7031C15.4594 22.8406 15.4594 21.5468 16.3219 20.6843C17.1844 19.8218 18.586 19.8218 19.3407 20.6843L22.1438 23.4875L29.2594 16.3719C30.1219 15.5094 31.4157 15.5094 32.2782 16.3719C33.1407 17.2344 33.1407 18.5281 32.2782 19.3906L23.6532 28.0156C23.2219 28.4468 22.6829 28.6625 22.1438 28.6625Z" fill="#3755BE"/>
</svg>
