<svg width="40" height="40" viewBox="0 0 40 40" fill="none" xmlns="http://www.w3.org/2000/svg">
<g clip-path="url(#clip0_1061_863)">
<path d="M11 29H8C7.20435 29 6.44129 28.6839 5.87868 28.1213C5.31607 27.5587 5 26.7956 5 26V16C5 15.2044 5.31607 14.4413 5.87868 13.8787C6.44129 13.3161 7.20435 13 8 13H21V11H19V9H17V11H13V8C13 7.20435 13.3161 6.44129 13.8787 5.87868C14.4413 5.31607 15.2044 5 16 5H24C24.7957 5 25.5587 5.31607 26.1213 5.87868C26.6839 6.44129 27 7.20435 27 8V18C27 18.2652 26.8946 18.5196 26.7071 18.7071C26.5196 18.8946 26.2652 19 26 19H14C13.2044 19 12.4413 19.3161 11.8787 19.8787C11.3161 20.4413 11 21.2044 11 22V29Z" fill="#3755BE"/>
<path d="M29 11V18C29 18.7956 28.6839 19.5587 28.1213 20.1213C27.5587 20.6839 26.7957 21 26 21H14C13.7348 21 13.4804 21.1054 13.2929 21.2929C13.1054 21.4804 13 21.7348 13 22V32C13 32.7956 13.3161 33.5587 13.8787 34.1213C14.4413 34.6839 15.2044 35 16 35H24C24.7957 35 25.5587 34.6839 26.1213 34.1213C26.6839 33.5587 27 32.7956 27 32V29H23V31H21V29H19V27H32C32.7957 27 33.5587 26.6839 34.1213 26.1213C34.6839 25.5587 35 24.7956 35 24V14C35 13.2044 34.6839 12.4413 34.1213 11.8787C33.5587 11.3161 32.7957 11 32 11H29Z" fill="#3755BE"/>
</g>
<defs>
<clipPath id="clip0_1061_863">
<rect width="30" height="30" fill="white" transform="translate(5 5)"/>
</clipPath>
</defs>
</svg>
