<svg width="626" height="643" viewBox="0 0 626 643" fill="none" xmlns="http://www.w3.org/2000/svg">
<path fill-rule="evenodd" clip-rule="evenodd" d="M241.054 138.387C291.958 105.489 313.388 34.5947 371.361 16.913C436.13 -2.84158 526.444 -14.1874 569.239 38.2899C615.647 95.1988 566.711 180.673 564.767 254.08C563.659 295.906 553.765 335.645 560.269 376.977C571.747 449.928 649.84 520.294 617.067 586.471C587.603 645.97 495.792 635.245 429.629 640.782C371.393 645.656 313.527 638.912 259.603 616.387C208.01 594.835 170.376 554.053 129.831 515.551C82.2608 470.376 10.197 436.514 1.69221 371.464C-6.79733 306.532 41.6182 245.378 88.5348 199.693C128.603 160.677 194.083 168.742 241.054 138.387Z" fill="#FF8E88"/>
</svg>
