<svg width="48" height="48" viewBox="0 0 48 48" fill="none" xmlns="http://www.w3.org/2000/svg">
<path opacity="0.3" d="M28.5858 33.4142C27.8047 32.6332 27.8047 31.3668 28.5858 30.5858C29.3668 29.8047 30.6332 29.8047 31.4142 30.5858L39.4142 38.5858C40.1953 39.3668 40.1953 40.6332 39.4142 41.4142C38.6332 42.1953 37.3668 42.1953 36.5858 41.4142L28.5858 33.4142Z" fill="#3755BE"/>
<path d="M22 32C27.5228 32 32 27.5228 32 22C32 16.4772 27.5228 12 22 12C16.4772 12 12 16.4772 12 22C12 27.5228 16.4772 32 22 32ZM22 36C14.268 36 8 29.732 8 22C8 14.268 14.268 8 22 8C29.732 8 36 14.268 36 22C36 29.732 29.732 36 22 36Z" fill="#1B1F3B"/>
</svg>
