<svg width="664" height="653" viewBox="0 0 664 653" fill="none" xmlns="http://www.w3.org/2000/svg">
<path fill-rule="evenodd" clip-rule="evenodd" d="M314.589 1.52359C371.811 -5.91562 428.697 14.9363 480.045 41.2633C533.062 68.4457 582.057 104.683 613.945 155.009C646.488 206.367 670.182 267.647 661.632 327.843C653.35 386.152 597.052 422.929 568.571 474.479C539.4 527.28 543.182 603.194 491.93 635.007C440.827 666.726 374.731 631.461 314.589 632.128C253.634 632.805 185.631 672.855 134.96 638.968C83.6634 604.661 94.7405 525.533 70.4034 468.823C49.4145 419.915 7.01101 380.772 1.44073 327.843C-4.36394 272.687 7.22898 214.213 38.81 168.622C69.6038 124.167 125.985 109.304 172.236 81.2802C219.56 52.6057 259.717 8.65725 314.589 1.52359Z" fill="#1B1F3B"/>
</svg>
