<svg width="96" height="96" viewBox="0 0 96 96" fill="none" xmlns="http://www.w3.org/2000/svg">
<rect width="96" height="96" rx="48" fill="#E3F7FD"/>
<circle cx="48" cy="48" r="19.5" fill="#05BECD"/>
<path d="M67.5 48C67.5 58.7695 58.7696 67.5 48 67.5C37.2304 67.5 28.5 58.7695 28.5 48C28.5 30.5 49 64.5 67.5 48Z" fill="#3979DF" fill-opacity="0.5"/>
<path d="M47.4707 57.2344C51.3169 57.2344 53.5571 53.4161 55.5611 49.5809C56.7628 47.2812 56.9491 50.5882 55.3018 53.75C53.6545 56.9118 50.254 59.5 46.7037 59.5C41.5024 59.5 38.5 55.9045 38.5 49.9071C38.5 42.3575 44.4683 36.5 50.4366 36.5C54.0234 36.5 56.0031 38.2601 56.0031 40.7408C56.0031 43.2215 54.1695 45.0139 52.5989 45.0139C52.1971 45.0139 52.0145 44.7629 52.0145 44.5478C52.0145 43.7592 53.1468 42.8594 53.1468 40.8483C53.1468 39.1922 52.3396 38.1167 50.6192 38.1167C47.0324 38.1167 42.1599 43.4007 42.1599 49.9035C42.1599 54.3953 43.9935 57.2344 47.4707 57.2344Z" fill="white"/>
<path d="M12.0679 51.9999C14.0041 68.3938 26.9531 81.413 43.3149 83.4531V84.9628C26.1238 82.907 12.5091 69.2231 10.5581 51.9999H12.0679ZM85.0708 51.9999C83.1198 69.2227 69.5056 82.9065 52.3149 84.9628V83.4521C68.6762 81.4115 81.6249 68.3934 83.561 51.9999H85.0708ZM52.3149 10.5019C69.3505 12.5396 82.8767 25.9965 85.0181 42.9999H83.5044C81.3803 26.826 68.5211 14.0339 52.3149 12.0126V10.5019ZM43.3149 12.0117C27.1082 14.0324 14.2487 26.8256 12.1245 42.9999H10.6108C12.7523 25.9961 26.2789 12.5391 43.3149 10.5019V12.0117Z" fill="#56B0B7"/>
<circle cx="24.75" cy="74.25" r="6" fill="#E3F7FD" stroke="#56B0B7" stroke-width="1.5"/>
<circle cx="75" cy="22.5" r="2.25" fill="#E3F7FD" stroke="#56B0B7" stroke-width="1.5"/>
<circle cx="33.75" cy="81.75" r="3" fill="#E3F7FD" stroke="#56B0B7" stroke-width="1.5"/>
<circle cx="81.75" cy="33.75" r="3" fill="#E3F7FD" stroke="#56B0B7" stroke-width="1.5"/>
<circle cx="18.75" cy="24.75" r="3" fill="#E3F7FD" stroke="#56B0B7" stroke-width="1.5"/>
</svg>
