<svg width="48" height="48" viewBox="0 0 48 48" fill="none" xmlns="http://www.w3.org/2000/svg">
<path fill-rule="evenodd" clip-rule="evenodd" d="M10.6667 8H37.3333C41.0152 8 44 11.0445 44 14.8V35.2C44 38.9555 41.0152 42 37.3333 42H10.6667C6.98477 42 4 38.9555 4 35.2V14.8C4 11.0445 6.98477 8 10.6667 8ZM8.44444 35.2H28.4444L18.4444 21.6L8.44444 35.2ZM32.8889 28.4C36.5708 28.4 39.5556 25.3555 39.5556 21.6C39.5556 17.8445 36.5708 14.8 32.8889 14.8C29.207 14.8 26.2222 17.8445 26.2222 21.6C26.2222 25.3555 29.207 28.4 32.8889 28.4Z" fill="#3755BE"/>
</svg>
