<svg width="96" height="96" viewBox="0 0 96 96" fill="none" xmlns="http://www.w3.org/2000/svg">
	<rect width="96" height="96" rx="48" fill="#B8E3EA" />
	<path d="M72.6726 50.9252C72.5976 50.9252 72.5226 50.9751 72.4726 51.0998C71.9701 52.5486 71.2676 53.4239 70.6926 53.4239C70.3676 53.4239 70.2426 53.0499 70.2426 52.5012C70.2426 51.0748 71.0926 48.0499 71.5176 46.6509C71.5676 46.4763 71.5926 46.3267 71.5926 46.202C71.5926 45.8005 71.3676 45.5985 70.8176 45.5985C70.2426 45.5985 69.5901 45.8229 68.9876 46.9002C68.7876 45.9501 68.1376 45.5486 67.2326 45.5486C66.2076 45.5486 65.2026 46.2244 64.3776 47.2993C63.5501 48.3741 62.5726 48.7257 61.8451 48.5486C62.3701 47.2768 62.5701 46.2993 62.5701 45.5985C62.5701 44.4763 62.0201 43.8005 61.1201 43.8005C59.7651 43.8005 58.9876 45.0998 58.9876 46.4489C58.9876 47.4988 59.4626 48.5736 60.5176 49.0998C59.6401 51.0748 58.3626 52.8753 57.8601 52.8753C57.2351 52.8753 57.0351 49.8005 57.0851 47.5985C57.1101 46.3516 57.2101 46.2768 57.2101 45.9002C57.2101 45.6758 57.0601 45.5262 56.4826 45.5262C55.1526 45.5262 54.7276 46.6484 54.6776 47.9501C54.6526 48.4489 54.5776 48.9227 54.4526 49.399C53.9026 51.3741 52.7476 52.9002 51.9951 52.9002C51.6451 52.9002 51.5451 52.5511 51.5451 52.0998C51.5451 50.6733 52.3451 48.8753 52.3451 47.3491C52.3451 46.2269 51.8451 45.5237 50.9201 45.5237C49.8151 45.5237 48.3876 46.8254 47.0101 49.2494C47.4601 47.399 47.6351 45.601 46.3075 45.601C46.0075 45.601 45.7317 45.6758 45.48 45.8254C45.3949 45.8648 45.3233 45.9284 45.2744 46.0083C45.2254 46.0882 45.2013 46.1808 45.205 46.2743C45.33 48.2494 43.6 53.3242 41.9725 53.3242C41.6725 53.3242 41.5225 53 41.5225 52.4763C41.5225 51.0499 42.3725 48.0249 42.7975 46.6234C42.8443 46.4697 42.8695 46.3103 42.8725 46.1496C42.8725 45.7756 42.6475 45.5761 42.0975 45.5761C41.5225 45.5761 40.87 45.8005 40.2675 46.8728C40.0425 45.9252 39.4175 45.5262 38.5125 45.5262C37.035 45.5262 35.405 47.0723 34.6775 49.0998C33.7025 51.8005 31.7725 54.4239 29.14 54.4239C26.76 54.4239 25.505 52.4489 25.505 49.3242C25.505 44.8005 28.84 41.1247 31.295 41.1247C32.4725 41.1247 33.025 41.8728 33.025 43.0249C33.025 44.4239 32.25 45.0499 32.25 45.5985C32.25 45.7481 32.375 45.9227 32.65 45.9227C33.725 45.9227 34.98 44.6758 34.98 42.9501C34.98 41.2244 33.625 40 31.17 40C27.085 40 23 44.0748 23 49.3267C23 53.4988 25.055 56 28.615 56C31.045 56 33.175 54.1247 34.3025 51.9252C34.4275 53.7506 35.255 54.6983 36.5325 54.6983C37.66 54.6983 38.5625 54.0249 39.265 52.8504C39.54 54.0723 40.24 54.6733 41.17 54.6733C42.22 54.6733 43.125 54 43.95 52.7756C43.95 53.7481 44.15 54.6733 45.005 54.6733C45.405 54.6733 45.88 54.5736 45.955 54.2244C46.8576 50.5486 49.0651 47.5237 49.7401 47.5237C49.9401 47.5237 49.9901 47.7232 49.9901 47.9476C49.9901 48.9501 49.2901 51 49.2901 52.2993C49.2901 53.7257 49.8901 54.6484 51.1451 54.6484C52.5226 54.6484 53.9251 52.9751 54.8526 50.4988C55.1526 52.8005 55.7801 54.6484 56.7576 54.6484C57.9601 54.6484 60.1401 52.0997 61.4451 49.399C61.9451 49.4738 62.7226 49.4489 63.4751 48.9252C63.1501 49.7232 62.9751 50.5985 62.9751 51.4489C62.9751 53.9501 64.1751 54.6484 65.2026 54.6484C66.3301 54.6484 67.2326 53.9751 67.9351 52.8005C68.1601 53.8479 68.7601 54.6234 69.8401 54.6234C71.5201 54.6234 72.9976 52.9002 72.9976 51.4738C73.0226 51.1746 72.8476 50.9252 72.6726 50.9252ZM37.585 53.2993C36.91 53.2993 36.635 52.6259 36.635 51.5985C36.635 49.8254 37.86 46.8504 39.14 46.8504C39.69 46.8504 39.915 47.4988 39.915 48.3242C39.915 50.1247 38.765 53.2993 37.585 53.2993ZM60.9676 48C60.5676 47.5262 60.4176 46.8504 60.4176 46.2743C60.4176 45.5511 60.6926 44.9501 60.9926 44.9501C61.2926 44.9501 61.4176 45.2494 61.4176 45.6983C61.3926 46.399 61.1426 47.4738 60.9676 48ZM66.2551 53.2993C65.5801 53.2993 65.3051 52.5012 65.3051 51.5985C65.3051 49.8753 66.5301 46.8504 67.8101 46.8504C68.3601 46.8504 68.5601 47.4988 68.5601 48.3242C68.5851 50.1247 67.4601 53.2993 66.2551 53.2993Z" fill="#14A2B8" />
	<path fill-rule="evenodd" clip-rule="evenodd" d="M43.3148 10.4999C25.9517 12.5762 12.2336 26.5168 10.4995 43.9828H12.0073C13.7292 27.346 26.7812 14.0727 43.3148 12.0112V10.4999ZM52.3148 12.0114V10.5001C69.6775 12.5767 83.3951 26.5171 85.1292 43.9828H83.6214C81.8995 27.3463 68.8481 14.0732 52.3148 12.0114ZM52.3148 83.4542C68.348 81.4547 81.1069 68.9118 83.4343 52.9828H84.9498C82.602 69.7415 69.1775 82.9486 52.3148 84.9655V83.4542ZM12.1944 52.9828C14.5219 68.9122 27.2812 81.4552 43.3148 83.4543V84.9656C26.4517 82.9491 13.0268 69.7419 10.6789 52.9828H12.1944Z" fill="#14A2B8" />
	<circle cx="24.75" cy="74.25" r="6" fill="#B8E3EA" stroke="#14A2B8" stroke-width="1.5" />
	<circle cx="75" cy="22.5" r="2.25" fill="#B8E3EA" stroke="#14A2B8" stroke-width="1.5" />
	<circle cx="33.75" cy="81.75" r="3" fill="#B8E3EA" stroke="#14A2B8" stroke-width="1.5" />
	<circle cx="81.75" cy="33.75" r="3" fill="#B8E3EA" stroke="#14A2B8" stroke-width="1.5" />
	<circle cx="18.75" cy="24.75" r="3" fill="#B8E3EA" stroke="#14A2B8" stroke-width="1.5" />
</svg>
