<svg width="24" height="24" viewBox="0 0 24 24" fill="none" xmlns="http://www.w3.org/2000/svg">
<path d="M8 3C8.79565 3 9.55871 3.31607 10.1213 3.87868C10.6839 4.44129 11 5.20435 11 6V7C11 7.79565 10.6839 8.55871 10.1213 9.12132C9.55871 9.68393 8.79565 10 8 10H6C5.20435 10 4.44129 9.68393 3.87868 9.12132C3.31607 8.55871 3 7.79565 3 7V6C3 5.20435 3.31607 4.44129 3.87868 3.87868C4.44129 3.31607 5.20435 3 6 3H8ZM8 12C8.79565 12 9.55871 12.3161 10.1213 12.8787C10.6839 13.4413 11 14.2044 11 15V18C11 18.7956 10.6839 19.5587 10.1213 20.1213C9.55871 20.6839 8.79565 21 8 21H6C5.20435 21 4.44129 20.6839 3.87868 20.1213C3.31607 19.5587 3 18.7956 3 18V15C3 14.2044 3.31607 13.4413 3.87868 12.8787C4.44129 12.3161 5.20435 12 6 12H8ZM18 3C18.7956 3 19.5587 3.31607 20.1213 3.87868C20.6839 4.44129 21 5.20435 21 6V18C21 18.7956 20.6839 19.5587 20.1213 20.1213C19.5587 20.6839 18.7956 21 18 21H16C15.2044 21 14.4413 20.6839 13.8787 20.1213C13.3161 19.5587 13 18.7956 13 18V6C13 5.20435 13.3161 4.44129 13.8787 3.87868C14.4413 3.31607 15.2044 3 16 3H18Z" fill="#C3CCEB"/>
<path d="M20.1213 3.87868C19.5587 3.31607 18.7956 3 18 3H16C15.2044 3 14.4413 3.31607 13.8787 3.87868C13.3161 4.44129 13 5.20435 13 6V18C13 18.7956 13.3161 19.5587 13.8787 20.1213C14.4413 20.6839 15.2044 21 16 21H18C18.7956 21 19.5587 20.6839 20.1213 20.1213C20.6839 19.5587 21 18.7956 21 18V6C21 5.20435 20.6839 4.44129 20.1213 3.87868Z" fill="#3755BE"/>
</svg>
