<svg width="32" height="32" viewBox="0 0 32 32" fill="none" xmlns="http://www.w3.org/2000/svg">
<path fill-rule="evenodd" clip-rule="evenodd" d="M30.3999 23.2001C30.3999 25.1096 29.6413 26.941 28.2911 28.2912C26.9408 29.6415 25.1094 30.4001 23.1999 30.4001C21.2903 30.4001 19.459 29.6415 18.1087 28.2912C16.7585 26.941 15.9999 25.1096 15.9999 23.2001C15.9999 21.2905 16.7585 19.4591 18.1087 18.1089C19.459 16.7586 21.2903 16 23.1999 16C25.1094 16 26.9408 16.7586 28.2911 18.1089C29.6413 19.4591 30.3999 21.2905 30.3999 23.2001ZM20.7998 25.592C20.7998 25.7336 20.8373 25.8726 20.9086 25.9949C20.9798 26.1172 21.0822 26.2184 21.2054 26.2882C21.3285 26.358 21.468 26.3939 21.6095 26.3921C21.751 26.3904 21.8896 26.3512 22.011 26.2784L26.011 23.8832C26.1297 23.8122 26.2279 23.7116 26.2961 23.5913C26.3642 23.471 26.4001 23.3351 26.4001 23.1968C26.4001 23.0586 26.3642 22.9226 26.2961 22.8023C26.2279 22.682 26.1297 22.5815 26.011 22.5104L22.011 20.1152C21.8897 20.0425 21.7513 20.0033 21.6099 20.0015C21.4685 19.9997 21.3292 20.0355 21.2061 20.1051C21.083 20.1747 20.9805 20.2756 20.9092 20.3977C20.8378 20.5198 20.8001 20.6586 20.7998 20.8V25.592Z" fill="#3755BE"/>
<path d="M4.48868 7.78873C5.31384 6.96357 6.433 6.5 7.59995 6.5H24.4C25.5669 6.5 26.6861 6.96357 27.5112 7.78873C28.3364 8.61389 28.8 9.73305 28.8 10.9V16.5112C27.3528 15.3162 25.5616 14.6151 23.6878 14.5104C21.814 14.4056 19.9558 14.9027 18.3845 15.9289C16.8132 16.9552 15.6112 18.4569 14.9539 20.2148C14.2967 21.9727 14.2186 23.8946 14.7312 25.7H7.59995C6.433 25.7 5.31384 25.2364 4.48868 24.4113C3.66352 23.5861 3.19995 22.467 3.19995 21.3V10.9C3.19995 9.73305 3.66352 8.61389 4.48868 7.78873Z" fill="#C3CCEB"/>
</svg>
