<svg width="48" height="49" viewBox="0 0 48 49" fill="none" xmlns="http://www.w3.org/2000/svg">
<path opacity="0.3" d="M11.7143 4.43994H27.4728C28.1822 4.43994 28.8686 4.69131 29.4102 5.14942L38.9374 13.2078C39.6113 13.7778 40 14.6157 40 15.4983V40.6066C40 44.1877 39.9591 44.4399 36.2857 44.4399H11.7143C8.0409 44.4399 8 44.1877 8 40.6066V8.27327C8 4.69219 8.0409 4.43994 11.7143 4.43994Z" fill="#3755BE"/>
<path d="M28 22.4399H14C12.8954 22.4399 12 23.3354 12 24.4399C12 25.5445 12.8954 26.4399 14 26.4399H28C29.1046 26.4399 30 25.5445 30 24.4399C30 23.3354 29.1046 22.4399 28 22.4399Z" fill="#3755BE"/>
<path d="M20 30.4399H14C12.8954 30.4399 12 31.3354 12 32.4399C12 33.5445 12.8954 34.4399 14 34.4399H20C21.1046 34.4399 22 33.5445 22 32.4399C22 31.3354 21.1046 30.4399 20 30.4399Z" fill="#3755BE"/>
</svg>
