<svg width="66" height="66" viewBox="0 0 66 66" fill="none" xmlns="http://www.w3.org/2000/svg">
<circle cx="33" cy="33" r="33" fill="#D3DCF9"/>
<circle cx="34.5" cy="34.5" r="18.5" fill="#FF8E88"/>
<circle cx="31.5" cy="32.5" r="18.5" fill="#3755BE"/>
<rect x="7" y="28" width="15" height="5" rx="2.5" fill="#3755BE"/>
<rect x="14.5352" y="13" width="15" height="5" rx="2.5" transform="rotate(45 14.5352 13)" fill="#3755BE"/>
<rect x="31" y="9" width="15" height="5" rx="2.5" transform="rotate(90 31 9)" fill="#3755BE"/>
<path d="M30.998 41.2609C34.6469 41.2609 36.7722 37.6384 38.6735 33.9998C39.8136 31.8181 39.9903 34.9555 38.4275 37.9551C36.8646 40.9548 33.6385 43.4103 30.2703 43.4103C25.3357 43.4103 22.4873 39.9991 22.4873 34.3093C22.4873 27.1469 28.1495 21.5898 33.8118 21.5898C37.2146 21.5898 39.0928 23.2596 39.0928 25.6131C39.0928 27.9665 37.3533 29.667 35.8632 29.667C35.482 29.667 35.3088 29.4289 35.3088 29.2249C35.3088 28.4767 36.383 27.623 36.383 25.7151C36.383 24.1439 35.6172 23.1236 33.985 23.1236C30.5821 23.1236 25.9595 28.1366 25.9595 34.3059C25.9595 38.5673 27.6991 41.2609 30.998 41.2609Z" fill="white"/>
</svg>
