<svg width="60" height="60" viewBox="0 0 60 60" fill="none" xmlns="http://www.w3.org/2000/svg">
<rect width="60" height="60" rx="30" fill="#F3F5FB"/>
<path d="M31.5561 36.7873L42.2667 28.2607L42.5303 28.052C43.6128 27.1948 43.7954 25.6225 42.9383 24.5401C42.8196 24.3902 42.6841 24.2544 42.5345 24.1354L31.5562 15.4042C30.6453 14.6797 29.3549 14.6797 28.4439 15.4042L17.4581 24.1414C16.3775 25.0008 16.1982 26.5735 17.0576 27.6542C17.1751 27.8018 17.3089 27.9358 17.4564 28.0533L17.7167 28.2607L28.4432 36.7884C29.3545 37.5128 30.6453 37.5124 31.5561 36.7873Z" fill="#3755BE"/>
<path opacity="0.3" fill-rule="evenodd" clip-rule="evenodd" d="M28.4274 41.1178L18.8933 33.5381C18.2427 33.0209 17.2959 33.129 16.7786 33.7796C16.7746 33.7846 16.7707 33.7897 16.7668 33.7947C16.2544 34.4564 16.3754 35.4081 17.037 35.9205L17.0442 35.926L28.4789 44.6718C29.3752 45.3574 30.6197 45.3575 31.5161 44.6721L42.9464 35.933C43.6156 35.4213 43.7434 34.464 43.2317 33.7948C43.2295 33.7919 43.2273 33.7891 43.2251 33.7862C42.7113 33.1239 41.7578 33.0036 41.0955 33.5174C41.0907 33.5211 41.0859 33.5249 41.0811 33.5287L31.5393 41.1175C30.6285 41.8419 29.3383 41.842 28.4274 41.1178Z" fill="#3755BE"/>
</svg>
