<svg width="60" height="60" viewBox="0 0 60 60" fill="none" xmlns="http://www.w3.org/2000/svg">
<rect width="60" height="60" rx="30" fill="#F3F5FB"/>
<path d="M31.8672 38.1448L44.72 27.9128L45.0363 27.6624C46.3352 26.6338 46.5544 24.747 45.5259 23.4481C45.3834 23.2682 45.2209 23.1053 45.0413 22.9625L31.8674 12.485C30.7742 11.6157 29.2257 11.6157 28.1326 12.485L14.9496 22.9697C13.6529 24.001 13.4377 25.8883 14.469 27.185C14.61 27.3622 14.7705 27.5229 14.9476 27.664L15.26 27.9128L28.1318 38.146C29.2253 39.0154 30.7742 39.0149 31.8672 38.1448Z" fill="#3755BE"/>
<path opacity="0.3" fill-rule="evenodd" clip-rule="evenodd" d="M28.1127 43.3412L16.6719 34.2457C15.8911 33.6249 14.755 33.7547 14.1342 34.5355C14.1295 34.5415 14.1247 34.5475 14.12 34.5536C13.5052 35.3475 13.6504 36.4896 14.4443 37.1045L14.453 37.1111L28.1746 47.6061C29.2502 48.4288 30.7435 48.4289 31.8193 47.6064L45.5356 37.1195C46.3387 36.5055 46.4919 35.3567 45.8779 34.5536C45.8753 34.5502 45.8727 34.5468 45.87 34.5434C45.2534 33.7486 44.1093 33.6042 43.3145 34.2208C43.3087 34.2253 43.303 34.2298 43.2973 34.2343L31.847 43.3409C30.7541 44.2101 29.2059 44.2103 28.1127 43.3412Z" fill="#3755BE"/>
</svg>
