<svg xmlns="http://www.w3.org/2000/svg" version="1.1" xmlns:xlink="http://www.w3.org/1999/xlink" width="50" height="50"><svg width="50" height="50" viewBox="0 0 50 50" fill="none" xmlns="http://www.w3.org/2000/svg">
<rect x="36.062" y="17.6451" width="4.45206" height="1.12786" rx="0.563928" transform="rotate(-30 36.062 17.6451)" fill="#03305C"></rect>
<path d="M39.2796 13.3745C38.3325 14.6374 38.4881 16.0457 38.775 16.669C39.9029 18.2421 42.1467 17.5119 43.4052 16.8471C44.6636 16.1822 45.3641 13.2558 45.3641 11.8014C43.8801 11.6827 41.0604 11 39.2796 13.3745Z" fill="#0ABE24"></path>
<path d="M40.9932 12.0085C42.5538 11.3421 44.3015 11.7165 45.3643 11.8015C45.3642 12.8777 44.9789 14.7589 44.2695 15.9343L41.9092 14.8552L41.4336 15.0329L41.1377 15.2409L40.9932 12.0085Z" fill="#C5FF2A"></path>
<path d="M44.8645 14.5927C44.5577 15.5222 44.1145 16.3687 43.5491 16.7578L41.6418 14.9736L42.2356 14.3505L44.8645 14.5927Z" fill="#8FEE03"></path>
<path d="M45.364 11.8015C45.364 11.8286 45.3616 11.8563 45.3611 11.8845C44.6594 12.4562 40.945 15.6413 40.781 15.8054C40.6529 15.9332 39.7609 16.637 39.2332 17.1452C39.0665 17.0177 38.9125 16.8602 38.7751 16.6686C38.7111 16.5295 38.6541 16.3512 38.614 16.1442C39.0987 16.0205 40.1231 15.4707 40.6921 15.152C41.4342 14.7365 44.8772 12.0647 45.1443 11.946C45.22 11.9122 45.2684 11.8559 45.3054 11.7956C45.3252 11.7973 45.3447 11.7999 45.364 11.8015Z" fill="url(#paint0_linear_1195_908)"></path>
<rect width="6.7152" height="1.70118" rx="0.850592" transform="matrix(0.258819 -0.965926 -0.965926 -0.258819 35.147 17.5889)" fill="#2B2045"></rect>
<path d="M40.6434 11.6501C38.7385 13.0787 36.6142 12.8439 35.6741 12.4112C33.3014 10.71 34.4027 7.32552 35.4055 5.42735C36.4083 3.52919 40.8224 2.47267 43.0161 2.47267C43.1951 4.71108 44.2248 8.96404 40.6434 11.6501Z" fill="#FD304F"></path>
<path d="M42.7031 9.06573C43.7084 6.71189 43.1449 4.07604 43.0166 2.47296C41.3935 2.47296 38.5553 3.05259 36.7822 4.12238L38.4101 7.6839L38.1416 8.4007L37.8281 8.84796L42.7031 9.06573Z" fill="#F8D42E"></path>
<path d="M38.8059 3.22595C37.4034 3.68894 36.1258 4.35787 35.5393 5.2113L38.2307 8.08728L39.1711 7.19177L38.8059 3.22595Z" fill="#F4B41C"></path>
<path d="M43.0164 2.47253C42.9752 2.47253 42.933 2.4757 42.8904 2.47644C42.0288 3.53384 37.2247 9.1382 36.9773 9.38562C36.7853 9.5777 35.7237 10.923 34.9568 11.7196C35.149 11.9708 35.3849 12.204 35.6736 12.411C35.8829 12.5073 36.1515 12.5926 36.4626 12.6532C36.6494 11.922 37.4821 10.3775 37.9626 9.51941C38.5903 8.3992 42.6186 3.20742 42.7976 2.80457C42.8485 2.69016 42.9332 2.61633 43.0242 2.56042C43.0216 2.53082 43.0187 2.50148 43.0164 2.47253Z" fill="url(#paint1_linear_1195_908)"></path>
<path d="M10 40.1541L17.2903 32.8638L24.5807 40.1541L17.2903 40.1541L10 40.1541Z" fill="#88E100"></path>
<path d="M13.645 36.5091L17.2902 32.8639L20.9354 36.5091L13.645 36.5091Z" fill="#063054"></path>
<path d="M10 25.5736L17.2903 32.8639L10 40.1543V32.8639V25.5736Z" fill="#88E100"></path>
<path d="M13.645 29.2188L17.2902 32.8639L13.645 36.5091V29.2188Z" fill="#063054"></path>
<path d="M24.5806 25.5771L17.2902 32.8674L9.99991 25.5771L17.2902 25.5771L24.5806 25.5771Z" fill="#0A8371"></path>
<path d="M20.9353 29.2222L17.2901 32.8674L13.645 29.2222L20.9353 29.2222Z" fill="#063054"></path>
<path d="M24.5771 40.1542L17.2868 32.8639L24.5771 25.5736L24.5771 32.8639L24.5771 40.1542Z" fill="#88E100"></path>
<path d="M20.9319 36.5091L17.2867 32.8639L20.9319 29.2188L20.9319 36.5091Z" fill="#063054"></path>
<path d="M10 25.5804L17.2903 18.2901L24.5807 25.5804L17.2903 25.5804L10 25.5804Z" fill="#FF4D4E"></path>
<path d="M13.645 21.9354L17.2902 18.2903L20.9354 21.9354L13.645 21.9354Z" fill="#7E1434"></path>
<path d="M10 10.9999L17.2903 18.2903L10 25.5806V18.2903V10.9999Z" fill="#FF4D4E"></path>
<path d="M13.645 14.6451L17.2902 18.2903L13.645 21.9355V14.6451Z" fill="#7E1434"></path>
<path d="M24.5806 11.0034L17.2902 18.2937L9.99991 11.0034L17.2902 11.0034L24.5806 11.0034Z" fill="#FBA600"></path>
<path d="M20.9353 14.6486L17.2901 18.2938L13.645 14.6486L20.9353 14.6486Z" fill="#7E1434"></path>
<path d="M24.5771 25.5806L17.2868 18.2903L24.5771 11L24.5771 18.2903L24.5771 25.5806Z" fill="#FF4D4E"></path>
<path d="M20.9319 21.9354L17.2867 18.2903L20.9319 14.6451L20.9319 21.9354Z" fill="#7E1434"></path>
<path d="M24.5735 25.5804L31.8638 18.2901L39.1541 25.5804L31.8638 25.5804L24.5735 25.5804Z" fill="#1A9EFE"></path>
<path d="M28.2188 21.9354L31.8639 18.2903L35.5091 21.9354L28.2188 21.9354Z" fill="#04295D"></path>
<path d="M24.5735 10.9999L31.8638 18.2903L24.5735 25.5806V18.2903V10.9999Z" fill="#1A9EFE"></path>
<path d="M28.2188 14.6451L31.8639 18.2903L28.2188 21.9355V14.6451Z" fill="#04295D"></path>
<path d="M39.1543 11.0034L31.864 18.2937L24.5736 11.0034L31.864 11.0034L39.1543 11.0034Z" fill="#22AFFF"></path>
<path d="M35.509 14.6486L31.8639 18.2938L28.2187 14.6486L35.509 14.6486Z" fill="#04295D"></path>
<path d="M39.1506 25.5806L31.8603 18.2903L39.1506 11L39.1506 18.2903L39.1506 25.5806Z" fill="#1A9EFE"></path>
<path d="M35.5056 21.9354L31.8604 18.2903L35.5056 14.6451L35.5056 21.9354Z" fill="#04295D"></path>
<path d="M39.1541 40.1542L31.8637 32.8639L39.1541 25.5736L39.1541 32.8639L39.1541 40.1542Z" fill="#EC2345"></path>
<path d="M35.509 36.5091L31.8639 32.8639L35.509 29.2188L35.509 36.5091Z" fill="#063054"></path>
<path d="M24.5735 40.1542L31.8638 32.8639L39.1541 40.1542L31.8638 40.1542L24.5735 40.1542Z" fill="#EC2345"></path>
<path d="M28.2188 36.5091L31.8639 32.8639L35.5091 36.5091L28.2188 36.5091Z" fill="#063054"></path>
<path d="M24.5771 25.5736L31.8675 32.8639L24.5771 40.1543L24.5771 32.8639L24.5771 25.5736Z" fill="#EC2345"></path>
<path d="M28.2222 29.2188L31.8673 32.8639L28.2222 36.5091L28.2222 29.2188Z" fill="#063054"></path>
<path d="M39.1543 25.5771L31.864 32.8674L24.5736 25.5771L31.864 25.5771L39.1543 25.5771Z" fill="#FA660D"></path>
<path d="M35.509 29.2223L31.8639 32.8675L28.2187 29.2223L35.509 29.2223Z" fill="#063054"></path>
<defs>
<linearGradient id="SvgjsLinearGradient1037" x1="44.6793" y1="11.7956" x2="39.3298" y2="17.1761" gradientUnits="userSpaceOnUse">
<stop stop-color="#06B43C"></stop>
<stop offset="1" stop-color="#073869"></stop>
</linearGradient>
<linearGradient id="SvgjsLinearGradient1036" x1="43.0242" y1="3.50521" x2="34.909" y2="11.5725" gradientUnits="userSpaceOnUse">
<stop stop-color="#955533"></stop>
<stop offset="1" stop-color="#2A1F45"></stop>
</linearGradient>
</defs>
</svg><style>@media (prefers-color-scheme: light) { :root { filter: none; } }
@media (prefers-color-scheme: dark) { :root { filter: none; } }
</style></svg>